M48
; DRILL file {KiCad 5.99.0-unknown-2a2dc1c0ff~131~ubuntu21.04.1} date Tue Aug  3 15:44:58 2021
; FORMAT={-:-/ absolute / inch / decimal}
; #@! TF.CreationDate,2021-08-03T15:44:58+06:00
; #@! TF.GenerationSoftware,Kicad,Pcbnew,5.99.0-unknown-2a2dc1c0ff~131~ubuntu21.04.1
; #@! TF.FileFunction,Plated,1,4,PTH
FMAT,2
INCH
; #@! TA.AperFunction,Plated,PTH,ViaDrill
T1C0.0098
; #@! TA.AperFunction,Plated,PTH,ComponentDrill
T2C0.0315
; #@! TA.AperFunction,Plated,PTH,ComponentDrill
T3C0.0354
; #@! TA.AperFunction,Plated,PTH,ComponentDrill
T4C0.0394
; #@! TA.AperFunction,Plated,PTH,ComponentDrill
T5C0.0402
; #@! TA.AperFunction,Plated,PTH,ComponentDrill
T6C0.0669
; #@! TA.AperFunction,Plated,PTH,ComponentDrill
T7C0.0906
%
G90
G05
T1
X2.6634Y-2.5196
X2.7464Y-3.0046
X2.7864Y-2.9996
X2.8425Y-2.9727
X2.8714Y-2.6193
X2.8714Y-2.7946
X2.9011Y-3.0
X2.9011Y-3.0472
X2.9144Y-2.4336
X2.9574Y-2.7616
X2.9604Y-1.5816
X2.9744Y-3.1796
X2.9744Y-3.2046
X3.0284Y-2.6536
X3.041Y-2.9213
X3.0431Y-2.874
X3.0437Y-2.5187
X3.0444Y-2.5456
X3.0446Y-2.4254
X3.0448Y-2.4714
X3.0468Y-2.8268
X3.0684Y-2.9196
X3.0704Y-2.8716
X3.0764Y-2.8256
X3.0824Y-2.4636
X3.0824Y-2.5096
X3.0844Y-2.4156
X3.0924Y-3.7696
X3.0944Y-2.6536
X3.128Y-3.7684
X3.1561Y-2.4704
X3.1705Y-3.1437
X3.1724Y-2.4016
X3.1764Y-2.4386
X3.1764Y-2.5276
X3.1784Y-3.7376
X3.1793Y-2.8898
X3.1857Y-2.5009
X3.187Y-3.7677
X3.1984Y-2.4516
X3.2024Y-1.5296
X3.2044Y-2.4286
X3.2095Y-2.4965
X3.2104Y-3.0936
X3.2344Y-2.3596
X3.2344Y-3.7376
X3.2354Y-2.9796
X3.2354Y-3.3236
X3.2461Y-3.7658
X3.2573Y-3.0472
X3.2574Y-3.2036
X3.2731Y-3.0315
X3.2764Y-1.4496
X3.2904Y-3.1096
X3.3214Y-3.1396
X3.3684Y-1.4396
X3.4204Y-2.0316
X3.4444Y-2.0576
X3.4524Y-3.7076
X3.4664Y-2.0876
X3.4724Y-3.5984
X3.4774Y-3.7076
X3.5344Y-1.4376
X3.5826Y-2.9076
X3.8364Y-3.7502
X3.8364Y-3.7736
X3.8884Y-1.4736
X3.8924Y-3.7542
X3.8924Y-3.7776
X3.9449Y-4.0641
X3.9504Y-3.7776
X3.9524Y-3.7516
X3.9719Y-4.0641
X3.9744Y-3.002
X3.9979Y-4.0641
X4.002Y-2.9843
X4.0219Y-4.0641
X4.0564Y-3.2766
X4.0564Y-3.2976
X4.0564Y-3.3206
X4.0694Y-3.7596
X4.1404Y-3.7576
X4.1714Y-3.7566
X4.1824Y-3.0836
X4.2084Y-3.1092
X4.2234Y-2.4806
X4.2234Y-2.8216
X4.2404Y-3.0576
X4.2434Y-2.8016
X4.2484Y-3.1296
X4.2644Y-2.7806
X4.2824Y-3.0316
X4.2824Y-3.0596
X4.3772Y-2.5668
X4.3816Y-2.6803
X4.3844Y-2.7096
X4.3844Y-2.7356
X4.3845Y-2.7638
X4.3944Y-2.8586
X4.3969Y-2.4331
X4.4035Y-2.5276
X4.4124Y-2.7636
X4.4135Y-2.7323
X4.4144Y-2.3256
X4.4551Y-2.3049
X4.4554Y-3.8336
X4.4804Y-3.8586
X4.4884Y-2.6336
X4.4904Y-2.6756
X4.4919Y-2.7008
X4.4924Y-2.4836
X4.5014Y-2.9646
X4.5044Y-2.6136
X4.5054Y-2.6566
X4.5364Y-3.6576
X4.5544Y-3.1956
X4.5544Y-3.2296
X4.5724Y-3.3696
X4.5784Y-3.1956
X4.5784Y-3.2296
X4.6142Y-2.7913
X4.6144Y-3.1446
X4.6144Y-3.3296
X4.6164Y-3.7276
X4.6184Y-2.4876
X4.6524Y-3.6836
X4.6646Y-3.3794
X4.6732Y-3.7579
X4.6824Y-3.6116
X4.6864Y-1.9396
X4.689Y-2.965
X4.6904Y-1.7376
X4.6904Y-1.7936
X4.6924Y-2.5516
X4.6929Y-3.1011
X4.6944Y-1.9996
X4.7124Y-1.9516
X4.7184Y-1.8136
X4.7184Y-2.0136
X4.7216Y-1.748
X4.7544Y-2.5936
X4.7709Y-4.0641
X4.7819Y-3.9599
X4.7864Y-2.3536
X4.7904Y-3.5376
X4.7904Y-3.7086
X4.7913Y-3.0645
X4.7924Y-3.4116
X4.8031Y-3.9599
X4.8104Y-3.1576
X4.811Y-3.0842
X4.8144Y-2.3536
X4.8174Y-1.9646
X4.8243Y-1.7677
X4.8243Y-1.8357
X4.8304Y-3.1096
X4.8404Y-2.3536
X4.8704Y-2.3536
X4.8744Y-3.1096
X4.9493Y-3.2638
X4.9716Y-4.0484
X4.9716Y-4.0672
X5.1264Y-2.7896
X5.1664Y-2.3216
X5.1664Y-2.3456
X5.2384Y-1.4456
X5.2384Y-1.4736
X5.6144Y-1.9716
T3
X4.9138Y-1.7108
X4.9138Y-1.8108
X4.9138Y-1.9108
X4.9138Y-2.0108
X4.9138Y-2.1108
X5.0138Y-1.6608
X5.0138Y-1.7608
X5.0138Y-1.8608
X5.0138Y-1.9608
X5.0138Y-2.0608
X5.113Y-1.6608
X5.113Y-2.1108
X5.163Y-1.7608
X5.163Y-2.0108
T4
X2.6819Y-2.0433
X2.6829Y-2.1811
X2.7533Y-3.1608
X2.7533Y-3.2608
X2.7533Y-3.3608
X2.7533Y-3.4608
X2.7533Y-3.5608
X2.7533Y-3.6608
X2.7533Y-3.7608
X2.7819Y-2.0433
X2.7829Y-2.1811
X2.8533Y-3.1608
X2.8533Y-3.2608
X2.8533Y-3.3608
X2.8533Y-3.4608
X2.8533Y-3.5608
X2.8533Y-3.6608
X2.8533Y-3.7608
X2.8819Y-2.0433
X2.8829Y-2.1811
X3.4244Y-3.4296
X3.4244Y-3.5296
X3.5244Y-3.4296
X3.5244Y-3.5296
X5.1327Y-3.1457
X5.1327Y-3.2441
X5.1327Y-3.3228
X5.1327Y-3.4213
X5.2358Y-3.1457
X5.2358Y-3.2441
X5.2358Y-3.3228
X5.2358Y-3.4213
X5.5124Y-1.7496
X5.5124Y-1.8496
X5.6124Y-1.7496
X5.6124Y-1.8496
T5
X5.4236Y-1.6248
X5.4236Y-1.7248
X5.4236Y-2.0469
X5.4236Y-2.1469
T6
X5.1437Y-1.5758
X5.1437Y-2.1959
T7
X5.1189Y-3.0248
X5.1189Y-3.5421
X5.3425Y-3.0248
X5.3425Y-3.5421
T2
G00X5.1823Y-3.8859
M15
G01X5.1823Y-3.7993
M16
G05
G00X5.3437Y-3.6536
M15
G01X5.2571Y-3.6536
M16
G05
G00X5.4106Y-3.8859
M15
G01X5.4106Y-3.7993
M16
G05
T3
G00X5.2283Y-2.2904
M15
G01X5.2992Y-2.2904
M16
G05
G00X5.2283Y-2.8612
M15
G01X5.2992Y-2.8612
M16
G05
G00X5.4827Y-2.2904
M15
G01X5.5142Y-2.2904
M16
G05
G00X5.4827Y-2.8612
M15
G01X5.5142Y-2.8612
M16
G05
T0
M30
