G04 #@! TF.GenerationSoftware,KiCad,Pcbnew,5.99.0-unknown-2a2dc1c0ff~131~ubuntu21.04.1*
G04 #@! TF.CreationDate,2021-08-03T15:44:55+06:00*
G04 #@! TF.ProjectId,CM4IOv5,434d3449-4f76-4352-9e6b-696361645f70,rev?*
G04 #@! TF.SameCoordinates,Original*
G04 #@! TF.FileFunction,Soldermask,Top*
G04 #@! TF.FilePolarity,Negative*
%FSLAX46Y46*%
G04 Gerber Fmt 4.6, Leading zero omitted, Abs format (unit mm)*
G04 Created by KiCad (PCBNEW 5.99.0-unknown-2a2dc1c0ff~131~ubuntu21.04.1) date 2021-08-03 15:44:55*
%MOMM*%
%LPD*%
G01*
G04 APERTURE LIST*
G04 Aperture macros list*
%AMRoundRect*
0 Rectangle with rounded corners*
0 $1 Rounding radius*
0 $2 $3 $4 $5 $6 $7 $8 $9 X,Y pos of 4 corners*
0 Add a 4 corners polygon primitive as box body*
4,1,4,$2,$3,$4,$5,$6,$7,$8,$9,$2,$3,0*
0 Add four circle primitives for the rounded corners*
1,1,$1+$1,$2,$3*
1,1,$1+$1,$4,$5*
1,1,$1+$1,$6,$7*
1,1,$1+$1,$8,$9*
0 Add four rect primitives between the rounded corners*
20,1,$1+$1,$2,$3,$4,$5,0*
20,1,$1+$1,$4,$5,$6,$7,0*
20,1,$1+$1,$6,$7,$8,$9,0*
20,1,$1+$1,$8,$9,$2,$3,0*%
G04 Aperture macros list end*
G04 #@! TA.AperFunction,Profile*
%ADD10C,0.050000*%
G04 #@! TD*
%ADD11C,6.100000*%
%ADD12R,0.700000X0.200000*%
%ADD13RoundRect,0.700000X1.800000X0.700000X-1.800000X0.700000X-1.800000X-0.700000X1.800000X-0.700000X0*%
%ADD14RoundRect,0.700000X0.700000X1.800000X-0.700000X1.800000X-0.700000X-1.800000X0.700000X-1.800000X0*%
%ADD15O,2.800000X5.000000*%
%ADD16RoundRect,0.135000X0.185000X-0.135000X0.185000X0.135000X-0.185000X0.135000X-0.185000X-0.135000X0*%
%ADD17RoundRect,0.140000X0.170000X-0.140000X0.170000X0.140000X-0.170000X0.140000X-0.170000X-0.140000X0*%
%ADD18RoundRect,0.150000X-0.512500X-0.150000X0.512500X-0.150000X0.512500X0.150000X-0.512500X0.150000X0*%
%ADD19RoundRect,0.250000X-0.475000X0.250000X-0.475000X-0.250000X0.475000X-0.250000X0.475000X0.250000X0*%
%ADD20C,1.500000*%
%ADD21C,3.450000*%
%ADD22RoundRect,0.218750X0.256250X-0.218750X0.256250X0.218750X-0.256250X0.218750X-0.256250X-0.218750X0*%
%ADD23R,2.600000X0.300000*%
%ADD24O,3.300000X1.500000*%
%ADD25O,2.300000X1.500000*%
%ADD26C,2.700000*%
%ADD27RoundRect,0.135000X-0.135000X-0.185000X0.135000X-0.185000X0.135000X0.185000X-0.135000X0.185000X0*%
%ADD28RoundRect,0.250000X-0.250000X-0.475000X0.250000X-0.475000X0.250000X0.475000X-0.250000X0.475000X0*%
%ADD29R,0.300000X1.300000*%
%ADD30R,1.800000X2.200000*%
%ADD31R,0.650000X0.400000*%
%ADD32R,2.000000X4.500000*%
%ADD33RoundRect,0.250000X0.250000X0.475000X-0.250000X0.475000X-0.250000X-0.475000X0.250000X-0.475000X0*%
%ADD34R,1.700000X1.700000*%
%ADD35O,1.700000X1.700000*%
%ADD36C,3.200000*%
%ADD37RoundRect,0.250500X0.499500X-0.499500X0.499500X0.499500X-0.499500X0.499500X-0.499500X-0.499500X0*%
%ADD38C,2.500000*%
%ADD39RoundRect,0.062500X-0.350000X-0.062500X0.350000X-0.062500X0.350000X0.062500X-0.350000X0.062500X0*%
%ADD40RoundRect,0.062500X-0.062500X-0.350000X0.062500X-0.350000X0.062500X0.350000X-0.062500X0.350000X0*%
%ADD41R,3.700000X3.700000*%
%ADD42R,0.550000X0.300000*%
%ADD43R,0.550000X0.400000*%
%ADD44R,2.000000X2.000000*%
%ADD45RoundRect,0.135000X0.135000X0.185000X-0.135000X0.185000X-0.135000X-0.185000X0.135000X-0.185000X0*%
%ADD46RoundRect,0.250000X-1.025000X0.787500X-1.025000X-0.787500X1.025000X-0.787500X1.025000X0.787500X0*%
%ADD47RoundRect,0.135000X-0.185000X0.135000X-0.185000X-0.135000X0.185000X-0.135000X0.185000X0.135000X0*%
%ADD48RoundRect,0.140000X-0.140000X-0.170000X0.140000X-0.170000X0.140000X0.170000X-0.140000X0.170000X0*%
%ADD49RoundRect,0.218750X-0.256250X0.218750X-0.256250X-0.218750X0.256250X-0.218750X0.256250X0.218750X0*%
%ADD50RoundRect,0.140000X0.140000X0.170000X-0.140000X0.170000X-0.140000X-0.170000X0.140000X-0.170000X0*%
%ADD51RoundRect,0.250000X0.475000X-0.250000X0.475000X0.250000X-0.475000X0.250000X-0.475000X-0.250000X0*%
%ADD52RoundRect,0.150000X-0.587500X-0.150000X0.587500X-0.150000X0.587500X0.150000X-0.587500X0.150000X0*%
%ADD53RoundRect,0.150000X0.512500X0.150000X-0.512500X0.150000X-0.512500X-0.150000X0.512500X-0.150000X0*%
G04 APERTURE END LIST*
D10*
X141200000Y-105400000D02*
G75*
G03*
X146200000Y-100400000I0J5000000D01*
G01*
X146200000Y-40400000D02*
G75*
G03*
X141200000Y-35400000I-5000000J0D01*
G01*
X146200000Y-40400000D02*
X146200000Y-100400000D01*
X66200000Y-100400000D02*
G75*
G03*
X71200000Y-105400000I5000000J0D01*
G01*
X141200000Y-105400000D02*
X71200000Y-105400000D01*
X66200000Y-100400000D02*
X66200000Y-40400000D01*
X71200000Y-35400000D02*
G75*
G03*
X66200000Y-40400000I0J-5000000D01*
G01*
X71200000Y-35400000D02*
X141200000Y-35400000D01*
D11*
X111200000Y-91900000D03*
X111200000Y-43900000D03*
X78200000Y-91900000D03*
X78200000Y-43900000D03*
D12*
X76200000Y-60600000D03*
X79280000Y-60600000D03*
X76200000Y-61000000D03*
X79280000Y-61000000D03*
X76200000Y-61400000D03*
X79280000Y-61400000D03*
X76200000Y-61800000D03*
X79280000Y-61800000D03*
X76200000Y-62200000D03*
X79280000Y-62200000D03*
X76200000Y-62600000D03*
X79280000Y-62600000D03*
X76200000Y-63000000D03*
X79280000Y-63000000D03*
X76200000Y-63400000D03*
X79280000Y-63400000D03*
X76200000Y-63800000D03*
X79280000Y-63800000D03*
X76200000Y-64200000D03*
X79280000Y-64200000D03*
X76200000Y-64600000D03*
X79280000Y-64600000D03*
X76200000Y-65000000D03*
X79280000Y-65000000D03*
X76200000Y-65400000D03*
X79280000Y-65400000D03*
X76200000Y-65800000D03*
X79280000Y-65800000D03*
X76200000Y-66200000D03*
X79280000Y-66200000D03*
X76200000Y-66600000D03*
X79280000Y-66600000D03*
X76200000Y-67000000D03*
X79280000Y-67000000D03*
X76200000Y-67400000D03*
X79280000Y-67400000D03*
X76200000Y-67800000D03*
X79280000Y-67800000D03*
X76200000Y-68200000D03*
X79280000Y-68200000D03*
X76200000Y-68600000D03*
X79280000Y-68600000D03*
X76200000Y-69000000D03*
X79280000Y-69000000D03*
X76200000Y-69400000D03*
X79280000Y-69400000D03*
X76200000Y-69800000D03*
X79280000Y-69800000D03*
X76200000Y-70200000D03*
X79280000Y-70200000D03*
X76200000Y-70600000D03*
X79280000Y-70600000D03*
X76200000Y-71000000D03*
X79280000Y-71000000D03*
X76200000Y-71400000D03*
X79280000Y-71400000D03*
X76200000Y-71800000D03*
X79280000Y-71800000D03*
X76200000Y-72200000D03*
X79280000Y-72200000D03*
X76200000Y-72600000D03*
X79280000Y-72600000D03*
X76200000Y-73000000D03*
X79280000Y-73000000D03*
X76200000Y-73400000D03*
X79280000Y-73400000D03*
X76200000Y-73800000D03*
X79280000Y-73800000D03*
X76200000Y-74200000D03*
X79280000Y-74200000D03*
X76200000Y-74600000D03*
X79280000Y-74600000D03*
X76200000Y-75000000D03*
X79280000Y-75000000D03*
X76200000Y-75400000D03*
X79280000Y-75400000D03*
X76200000Y-75800000D03*
X79280000Y-75800000D03*
X76200000Y-76200000D03*
X79280000Y-76200000D03*
X76200000Y-76600000D03*
X79280000Y-76600000D03*
X76200000Y-77000000D03*
X79280000Y-77000000D03*
X76200000Y-77400000D03*
X79280000Y-77400000D03*
X76200000Y-77800000D03*
X79280000Y-77800000D03*
X76200000Y-78200000D03*
X79280000Y-78200000D03*
X76200000Y-78600000D03*
X79280000Y-78600000D03*
X76200000Y-79000000D03*
X79280000Y-79000000D03*
X76200000Y-79400000D03*
X79280000Y-79400000D03*
X76200000Y-79800000D03*
X79280000Y-79800000D03*
X76200000Y-80200000D03*
X79280000Y-80200000D03*
X110120000Y-60600000D03*
X113200000Y-60600000D03*
X110120000Y-61000000D03*
X113200000Y-61000000D03*
X110120000Y-61400000D03*
X113200000Y-61400000D03*
X110120000Y-61800000D03*
X113200000Y-61800000D03*
X110120000Y-62200000D03*
X113200000Y-62200000D03*
X110120000Y-62600000D03*
X113200000Y-62600000D03*
X110120000Y-63000000D03*
X113200000Y-63000000D03*
X110120000Y-63400000D03*
X113200000Y-63400000D03*
X110120000Y-63800000D03*
X113200000Y-63800000D03*
X110120000Y-64200000D03*
X113200000Y-64200000D03*
X110120000Y-64600000D03*
X113200000Y-64600000D03*
X110120000Y-65000000D03*
X113200000Y-65000000D03*
X110120000Y-65400000D03*
X113200000Y-65400000D03*
X110120000Y-65800000D03*
X113200000Y-65800000D03*
X110120000Y-66200000D03*
X113200000Y-66200000D03*
X110120000Y-66600000D03*
X113200000Y-66600000D03*
X110120000Y-67000000D03*
X113200000Y-67000000D03*
X110120000Y-67400000D03*
X113200000Y-67400000D03*
X110120000Y-67800000D03*
X113200000Y-67800000D03*
X110120000Y-68200000D03*
X113200000Y-68200000D03*
X110120000Y-68600000D03*
X113200000Y-68600000D03*
X110120000Y-69000000D03*
X113200000Y-69000000D03*
X110120000Y-69400000D03*
X113200000Y-69400000D03*
X110120000Y-69800000D03*
X113200000Y-69800000D03*
X110120000Y-70200000D03*
X113200000Y-70200000D03*
X110120000Y-70600000D03*
X113200000Y-70600000D03*
X110120000Y-71000000D03*
X113200000Y-71000000D03*
X110120000Y-71400000D03*
X113200000Y-71400000D03*
X110120000Y-71800000D03*
X113200000Y-71800000D03*
X110120000Y-72200000D03*
X113200000Y-72200000D03*
X110120000Y-72600000D03*
X113200000Y-72600000D03*
X110120000Y-73000000D03*
X113200000Y-73000000D03*
X110120000Y-73400000D03*
X113200000Y-73400000D03*
X110120000Y-73800000D03*
X113200000Y-73800000D03*
X110120000Y-74200000D03*
X113200000Y-74200000D03*
X110120000Y-74600000D03*
X113200000Y-74600000D03*
X110120000Y-75000000D03*
X113200000Y-75000000D03*
X110120000Y-75400000D03*
X113200000Y-75400000D03*
X110120000Y-75800000D03*
X113200000Y-75800000D03*
X110120000Y-76200000D03*
X113200000Y-76200000D03*
X110120000Y-76600000D03*
X113200000Y-76600000D03*
X110120000Y-77000000D03*
X113200000Y-77000000D03*
X110120000Y-77400000D03*
X113200000Y-77400000D03*
X110120000Y-77800000D03*
X113200000Y-77800000D03*
X110120000Y-78200000D03*
X113200000Y-78200000D03*
X110120000Y-78600000D03*
X113200000Y-78600000D03*
X110120000Y-79000000D03*
X113200000Y-79000000D03*
X110120000Y-79400000D03*
X113200000Y-79400000D03*
X110120000Y-79800000D03*
X113200000Y-79800000D03*
X110120000Y-80200000D03*
X113200000Y-80200000D03*
D13*
X134630400Y-92801600D03*
D14*
X137430400Y-97601600D03*
D15*
X131630400Y-97601600D03*
D16*
X141200000Y-38410000D03*
X141200000Y-37390000D03*
D17*
X119700000Y-89380000D03*
X119700000Y-88420000D03*
D18*
X121062500Y-95450000D03*
X121062500Y-96400000D03*
X121062500Y-97350000D03*
X123337500Y-97350000D03*
X123337500Y-96400000D03*
X123337500Y-95450000D03*
D19*
X118700000Y-95450000D03*
X118700000Y-97350000D03*
D17*
X117700000Y-89360000D03*
X117700000Y-88400000D03*
D20*
X130370000Y-86900000D03*
X130370000Y-84400000D03*
X130370000Y-82400000D03*
X130370000Y-79900000D03*
X132990000Y-86900000D03*
X132990000Y-84400000D03*
X132990000Y-82400000D03*
X132990000Y-79900000D03*
D21*
X135700000Y-89970000D03*
X135700000Y-76830000D03*
X130020000Y-89970000D03*
X130020000Y-76830000D03*
D16*
X72200000Y-74410000D03*
X72200000Y-73390000D03*
D22*
X112700000Y-102187500D03*
X112700000Y-100612500D03*
D23*
X132970000Y-60925000D03*
X132970000Y-61425000D03*
X132970000Y-61925000D03*
X132970000Y-62425000D03*
X132970000Y-62925000D03*
X132970000Y-63425000D03*
X132970000Y-63925000D03*
X132970000Y-64425000D03*
X132970000Y-64925000D03*
X132970000Y-65425000D03*
X132970000Y-65925000D03*
X132970000Y-66425000D03*
X132970000Y-66925000D03*
X132970000Y-67425000D03*
X132970000Y-67925000D03*
X132970000Y-68425000D03*
X132970000Y-68925000D03*
X132970000Y-69425000D03*
X132970000Y-69925000D03*
D24*
X133700000Y-58175000D03*
X133700000Y-72675000D03*
D25*
X139660000Y-72675000D03*
X139660000Y-58175000D03*
D17*
X130200000Y-69880000D03*
X130200000Y-68920000D03*
D26*
X87200000Y-70400000D03*
D27*
X123690000Y-75400000D03*
X124710000Y-75400000D03*
D26*
X70200000Y-39400000D03*
D16*
X124700000Y-77410000D03*
X124700000Y-76390000D03*
D28*
X117200000Y-70900000D03*
X119100000Y-70900000D03*
D26*
X116200000Y-40400000D03*
D28*
X122779600Y-100580900D03*
X124679600Y-100580900D03*
D29*
X78450000Y-97100000D03*
X78950000Y-97100000D03*
X79450000Y-97100000D03*
X79950000Y-97100000D03*
X80450000Y-97100000D03*
X80950000Y-97100000D03*
X81450000Y-97100000D03*
X81950000Y-97100000D03*
X82450000Y-97100000D03*
X82950000Y-97100000D03*
X83450000Y-97100000D03*
X83950000Y-97100000D03*
X84450000Y-97100000D03*
X84950000Y-97100000D03*
X85450000Y-97100000D03*
X85950000Y-97100000D03*
X86450000Y-97100000D03*
X86950000Y-97100000D03*
X87450000Y-97100000D03*
X87950000Y-97100000D03*
X88450000Y-97100000D03*
X88950000Y-97100000D03*
D30*
X76550000Y-100350000D03*
X90850000Y-100350000D03*
D16*
X81700000Y-37410000D03*
X81700000Y-36390000D03*
D31*
X116250000Y-92250000D03*
X116250000Y-92900000D03*
X116250000Y-93550000D03*
X118150000Y-93550000D03*
X118150000Y-92250000D03*
D32*
X126700000Y-69900000D03*
X126700000Y-61400000D03*
D27*
X118690000Y-77400000D03*
X119710000Y-77400000D03*
D29*
X95950000Y-97100000D03*
X96450000Y-97100000D03*
X96950000Y-97100000D03*
X97450000Y-97100000D03*
X97950000Y-97100000D03*
X98450000Y-97100000D03*
X98950000Y-97100000D03*
X99450000Y-97100000D03*
X99950000Y-97100000D03*
X100450000Y-97100000D03*
X100950000Y-97100000D03*
X101450000Y-97100000D03*
X101950000Y-97100000D03*
X102450000Y-97100000D03*
X102950000Y-97100000D03*
X103450000Y-97100000D03*
X103950000Y-97100000D03*
X104450000Y-97100000D03*
X104950000Y-97100000D03*
X105450000Y-97100000D03*
X105950000Y-97100000D03*
X106450000Y-97100000D03*
D30*
X94050000Y-100350000D03*
X108350000Y-100350000D03*
D33*
X128229600Y-100580900D03*
X126329600Y-100580900D03*
D34*
X73225000Y-55400000D03*
D35*
X70685000Y-55400000D03*
X68145000Y-55400000D03*
D36*
X133700000Y-42185000D03*
X133700000Y-53615000D03*
D37*
X124810000Y-53615000D03*
D20*
X127350000Y-52345000D03*
X124810000Y-51075000D03*
X127350000Y-49805000D03*
X124810000Y-48535000D03*
X127350000Y-47265000D03*
X124810000Y-45995000D03*
X127350000Y-44725000D03*
X124810000Y-43455000D03*
X127350000Y-42185000D03*
X129870000Y-53615000D03*
X131140000Y-51075000D03*
X131140000Y-44725000D03*
X129870000Y-42185000D03*
X137760000Y-54530000D03*
X137760000Y-51990000D03*
X137760000Y-43810000D03*
X137760000Y-41270000D03*
D38*
X130650000Y-55775000D03*
X130650000Y-40025000D03*
D16*
X97700000Y-37410000D03*
X97700000Y-36390000D03*
D17*
X118700000Y-89380000D03*
X118700000Y-88420000D03*
X116700000Y-89380000D03*
X116700000Y-88420000D03*
D39*
X118262500Y-80900000D03*
X118262500Y-81400000D03*
X118262500Y-81900000D03*
X118262500Y-82400000D03*
X118262500Y-82900000D03*
X118262500Y-83400000D03*
X118262500Y-83900000D03*
X118262500Y-84400000D03*
X118262500Y-84900000D03*
D40*
X119200000Y-85837500D03*
X119700000Y-85837500D03*
X120200000Y-85837500D03*
X120700000Y-85837500D03*
X121200000Y-85837500D03*
X121700000Y-85837500D03*
X122200000Y-85837500D03*
X122700000Y-85837500D03*
X123200000Y-85837500D03*
D39*
X124137500Y-84900000D03*
X124137500Y-84400000D03*
X124137500Y-83900000D03*
X124137500Y-83400000D03*
X124137500Y-82900000D03*
X124137500Y-82400000D03*
X124137500Y-81900000D03*
X124137500Y-81400000D03*
X124137500Y-80900000D03*
D40*
X123200000Y-79962500D03*
X122700000Y-79962500D03*
X122200000Y-79962500D03*
X121700000Y-79962500D03*
X121200000Y-79962500D03*
X120700000Y-79962500D03*
X120200000Y-79962500D03*
X119700000Y-79962500D03*
X119200000Y-79962500D03*
D41*
X121200000Y-82900000D03*
D34*
X73200000Y-51900000D03*
D35*
X70660000Y-51900000D03*
X68120000Y-51900000D03*
D42*
X120815000Y-43900000D03*
X120815000Y-44400000D03*
D43*
X120815000Y-44900000D03*
D42*
X120815000Y-45400000D03*
X120815000Y-45900000D03*
X121585000Y-45900000D03*
X121585000Y-45400000D03*
D43*
X121585000Y-44900000D03*
D42*
X121585000Y-44400000D03*
X121585000Y-43900000D03*
D44*
X67828400Y-70500400D03*
X118700000Y-103400000D03*
D45*
X122710000Y-98900000D03*
X121690000Y-98900000D03*
D46*
X126553200Y-91938000D03*
X126553200Y-98163000D03*
D16*
X135200000Y-38410000D03*
X135200000Y-37390000D03*
D34*
X142555200Y-46980000D03*
D35*
X140015200Y-46980000D03*
X142555200Y-44440000D03*
X140015200Y-44440000D03*
D47*
X124200000Y-88890000D03*
X124200000Y-89910000D03*
D42*
X120815000Y-48900000D03*
X120815000Y-49400000D03*
D43*
X120815000Y-49900000D03*
D42*
X120815000Y-50400000D03*
X120815000Y-50900000D03*
X121585000Y-50900000D03*
X121585000Y-50400000D03*
D43*
X121585000Y-49900000D03*
D42*
X121585000Y-49400000D03*
X121585000Y-48900000D03*
D16*
X123606800Y-77514800D03*
X123606800Y-76494800D03*
D48*
X117220000Y-67400000D03*
X118180000Y-67400000D03*
D16*
X116700000Y-96400000D03*
X116700000Y-95380000D03*
D31*
X119750000Y-92250000D03*
X119750000Y-92900000D03*
X119750000Y-93550000D03*
X121650000Y-93550000D03*
X121650000Y-92250000D03*
D49*
X67066400Y-65369400D03*
X67066400Y-66944400D03*
D33*
X128179600Y-102580900D03*
X126279600Y-102580900D03*
D34*
X72475000Y-95525000D03*
D35*
X69935000Y-95525000D03*
X72475000Y-92985000D03*
X69935000Y-92985000D03*
X72475000Y-90445000D03*
X69935000Y-90445000D03*
X72475000Y-87905000D03*
X69935000Y-87905000D03*
X72475000Y-85365000D03*
X69935000Y-85365000D03*
X72475000Y-82825000D03*
X69935000Y-82825000D03*
X72475000Y-80285000D03*
X69935000Y-80285000D03*
D48*
X127523600Y-73446800D03*
X128483600Y-73446800D03*
D50*
X119180000Y-63900000D03*
X118220000Y-63900000D03*
D26*
X70200000Y-101400000D03*
D28*
X117200000Y-68900000D03*
X119100000Y-68900000D03*
D51*
X79700000Y-38800000D03*
X79700000Y-36900000D03*
D17*
X115701924Y-89350000D03*
X115701924Y-88390000D03*
D50*
X121680000Y-47400000D03*
X120720000Y-47400000D03*
D52*
X120762500Y-63950000D03*
X120762500Y-65850000D03*
X122637500Y-64900000D03*
D53*
X77475000Y-38850000D03*
X77475000Y-37900000D03*
X77475000Y-36950000D03*
X75200000Y-36950000D03*
X75200000Y-38850000D03*
D16*
X68488800Y-65373600D03*
X68488800Y-64353600D03*
D28*
X122779600Y-102580900D03*
X124679600Y-102580900D03*
D50*
X120609600Y-75885200D03*
X119649600Y-75885200D03*
D34*
X86980000Y-87112000D03*
D35*
X86980000Y-89652000D03*
X89520000Y-87112000D03*
X89520000Y-89652000D03*
M02*
