G04 #@! TF.GenerationSoftware,KiCad,Pcbnew,5.99.0-unknown-2a2dc1c0ff~131~ubuntu21.04.1*
G04 #@! TF.CreationDate,2021-08-03T15:44:55+06:00*
G04 #@! TF.ProjectId,CM4IOv5,434d3449-4f76-4352-9e6b-696361645f70,rev?*
G04 #@! TF.SameCoordinates,Original*
G04 #@! TF.FileFunction,Soldermask,Bot*
G04 #@! TF.FilePolarity,Negative*
%FSLAX46Y46*%
G04 Gerber Fmt 4.6, Leading zero omitted, Abs format (unit mm)*
G04 Created by KiCad (PCBNEW 5.99.0-unknown-2a2dc1c0ff~131~ubuntu21.04.1) date 2021-08-03 15:44:55*
%MOMM*%
%LPD*%
G01*
G04 APERTURE LIST*
G04 Aperture macros list*
%AMRoundRect*
0 Rectangle with rounded corners*
0 $1 Rounding radius*
0 $2 $3 $4 $5 $6 $7 $8 $9 X,Y pos of 4 corners*
0 Add a 4 corners polygon primitive as box body*
4,1,4,$2,$3,$4,$5,$6,$7,$8,$9,$2,$3,0*
0 Add four circle primitives for the rounded corners*
1,1,$1+$1,$2,$3*
1,1,$1+$1,$4,$5*
1,1,$1+$1,$6,$7*
1,1,$1+$1,$8,$9*
0 Add four rect primitives between the rounded corners*
20,1,$1+$1,$2,$3,$4,$5,0*
20,1,$1+$1,$4,$5,$6,$7,0*
20,1,$1+$1,$6,$7,$8,$9,0*
20,1,$1+$1,$8,$9,$2,$3,0*%
G04 Aperture macros list end*
G04 #@! TA.AperFunction,Profile*
%ADD10C,0.050000*%
G04 #@! TD*
%ADD11C,6.100000*%
%ADD12RoundRect,0.700000X1.800000X0.700000X-1.800000X0.700000X-1.800000X-0.700000X1.800000X-0.700000X0*%
%ADD13RoundRect,0.700000X0.700000X1.800000X-0.700000X1.800000X-0.700000X-1.800000X0.700000X-1.800000X0*%
%ADD14O,2.800000X5.000000*%
%ADD15C,1.500000*%
%ADD16C,3.450000*%
%ADD17O,3.300000X1.500000*%
%ADD18O,2.300000X1.500000*%
%ADD19C,2.700000*%
%ADD20R,1.700000X1.700000*%
%ADD21O,1.700000X1.700000*%
%ADD22C,3.200000*%
%ADD23RoundRect,0.250500X0.499500X-0.499500X0.499500X0.499500X-0.499500X0.499500X-0.499500X-0.499500X0*%
%ADD24C,2.500000*%
%ADD25RoundRect,0.135000X-0.185000X0.135000X-0.185000X-0.135000X0.185000X-0.135000X0.185000X0.135000X0*%
%ADD26R,0.700000X1.100000*%
%ADD27R,0.900000X0.930000*%
%ADD28R,1.050000X0.780000*%
%ADD29R,0.700000X3.330000*%
%ADD30R,1.140000X1.830000*%
%ADD31R,0.860000X2.800000*%
G04 APERTURE END LIST*
D10*
X141200000Y-105400000D02*
G75*
G03*
X146200000Y-100400000I0J5000000D01*
G01*
X146200000Y-40400000D02*
G75*
G03*
X141200000Y-35400000I-5000000J0D01*
G01*
X146200000Y-40400000D02*
X146200000Y-100400000D01*
X66200000Y-100400000D02*
G75*
G03*
X71200000Y-105400000I5000000J0D01*
G01*
X141200000Y-105400000D02*
X71200000Y-105400000D01*
X66200000Y-100400000D02*
X66200000Y-40400000D01*
X71200000Y-35400000D02*
G75*
G03*
X66200000Y-40400000I0J-5000000D01*
G01*
X71200000Y-35400000D02*
X141200000Y-35400000D01*
D11*
X111200000Y-91900000D03*
X111200000Y-43900000D03*
X78200000Y-91900000D03*
X78200000Y-43900000D03*
D12*
X134630400Y-92801600D03*
D13*
X137430400Y-97601600D03*
D14*
X131630400Y-97601600D03*
D15*
X130370000Y-86900000D03*
X130370000Y-84400000D03*
X130370000Y-82400000D03*
X130370000Y-79900000D03*
X132990000Y-86900000D03*
X132990000Y-84400000D03*
X132990000Y-82400000D03*
X132990000Y-79900000D03*
D16*
X135700000Y-89970000D03*
X135700000Y-76830000D03*
X130020000Y-89970000D03*
X130020000Y-76830000D03*
D17*
X133700000Y-58175000D03*
X133700000Y-72675000D03*
D18*
X139660000Y-72675000D03*
X139660000Y-58175000D03*
D19*
X87200000Y-70400000D03*
X70200000Y-39400000D03*
X116200000Y-40400000D03*
D20*
X73225000Y-55400000D03*
D21*
X70685000Y-55400000D03*
X68145000Y-55400000D03*
D22*
X133700000Y-42185000D03*
X133700000Y-53615000D03*
D23*
X124810000Y-53615000D03*
D15*
X127350000Y-52345000D03*
X124810000Y-51075000D03*
X127350000Y-49805000D03*
X124810000Y-48535000D03*
X127350000Y-47265000D03*
X124810000Y-45995000D03*
X127350000Y-44725000D03*
X124810000Y-43455000D03*
X127350000Y-42185000D03*
X129870000Y-53615000D03*
X131140000Y-51075000D03*
X131140000Y-44725000D03*
X129870000Y-42185000D03*
X137760000Y-54530000D03*
X137760000Y-51990000D03*
X137760000Y-43810000D03*
X137760000Y-41270000D03*
D24*
X130650000Y-55775000D03*
X130650000Y-40025000D03*
D20*
X73200000Y-51900000D03*
D21*
X70660000Y-51900000D03*
X68120000Y-51900000D03*
D20*
X142555200Y-46980000D03*
D21*
X140015200Y-46980000D03*
X142555200Y-44440000D03*
X140015200Y-44440000D03*
D20*
X72475000Y-95525000D03*
D21*
X69935000Y-95525000D03*
X72475000Y-92985000D03*
X69935000Y-92985000D03*
X72475000Y-90445000D03*
X69935000Y-90445000D03*
X72475000Y-87905000D03*
X69935000Y-87905000D03*
X72475000Y-85365000D03*
X69935000Y-85365000D03*
X72475000Y-82825000D03*
X69935000Y-82825000D03*
X72475000Y-80285000D03*
X69935000Y-80285000D03*
D19*
X70200000Y-101400000D03*
D25*
X87700000Y-92380000D03*
X87700000Y-93400000D03*
X88700000Y-92380000D03*
X88700000Y-93400000D03*
D20*
X86980000Y-87112000D03*
D21*
X86980000Y-89652000D03*
X89520000Y-87112000D03*
X89520000Y-89652000D03*
D26*
X87320000Y-49025000D03*
X88420000Y-49025000D03*
X89520000Y-49025000D03*
X90620000Y-49025000D03*
X91720000Y-49025000D03*
X92820000Y-49025000D03*
X93920000Y-49025000D03*
X95020000Y-49025000D03*
D27*
X85530000Y-36560000D03*
D28*
X89795000Y-36485000D03*
D29*
X96180000Y-37760000D03*
X83220000Y-37760000D03*
D30*
X83440000Y-49010000D03*
D31*
X96100000Y-48525000D03*
M02*
