G04 #@! TF.GenerationSoftware,KiCad,Pcbnew,5.99.0-unknown-2a2dc1c0ff~131~ubuntu21.04.1*
G04 #@! TF.CreationDate,2021-08-03T15:44:55+06:00*
G04 #@! TF.ProjectId,CM4IOv5,434d3449-4f76-4352-9e6b-696361645f70,rev?*
G04 #@! TF.SameCoordinates,Original*
G04 #@! TF.FileFunction,Legend,Top*
G04 #@! TF.FilePolarity,Positive*
%FSLAX46Y46*%
G04 Gerber Fmt 4.6, Leading zero omitted, Abs format (unit mm)*
G04 Created by KiCad (PCBNEW 5.99.0-unknown-2a2dc1c0ff~131~ubuntu21.04.1) date 2021-08-03 15:44:55*
%MOMM*%
%LPD*%
G01*
G04 APERTURE LIST*
%ADD10C,0.300000*%
G04 #@! TA.AperFunction,Profile*
%ADD11C,0.050000*%
G04 #@! TD*
%ADD12C,0.150000*%
%ADD13C,0.050000*%
%ADD14C,0.125000*%
%ADD15C,0.100000*%
%ADD16C,0.120000*%
%ADD17C,0.010000*%
%ADD18C,0.200000*%
%ADD19C,0.127000*%
G04 APERTURE END LIST*
D10*
X103630314Y-64236914D02*
X103701742Y-64308342D01*
X103844600Y-64379771D01*
X103987457Y-64379771D01*
X104130314Y-64308342D01*
X104201742Y-64236914D01*
X104273171Y-64094057D01*
X104273171Y-63951200D01*
X104201742Y-63808342D01*
X104130314Y-63736914D01*
X103987457Y-63665485D01*
X103844600Y-63665485D01*
X103701742Y-63736914D01*
X103630314Y-63808342D01*
X103630314Y-64379771D02*
X103630314Y-63808342D01*
X103558885Y-63736914D01*
X103487457Y-63736914D01*
X103344600Y-63808342D01*
X103273171Y-63951200D01*
X103273171Y-64308342D01*
X103416028Y-64522628D01*
X103630314Y-64665485D01*
X103916028Y-64736914D01*
X104201742Y-64665485D01*
X104416028Y-64522628D01*
X104558885Y-64308342D01*
X104630314Y-64022628D01*
X104558885Y-63736914D01*
X104416028Y-63522628D01*
X104201742Y-63379771D01*
X103916028Y-63308342D01*
X103630314Y-63379771D01*
X103416028Y-63522628D01*
X102773171Y-64522628D02*
X102416028Y-63522628D01*
X102058885Y-64522628D01*
X100916028Y-63594057D02*
X101058885Y-63522628D01*
X101344600Y-63522628D01*
X101487457Y-63594057D01*
X101558885Y-63736914D01*
X101558885Y-64308342D01*
X101487457Y-64451200D01*
X101344600Y-64522628D01*
X101058885Y-64522628D01*
X100916028Y-64451200D01*
X100844600Y-64308342D01*
X100844600Y-64165485D01*
X101558885Y-64022628D01*
X99558885Y-64522628D02*
X99558885Y-63308342D01*
X99630314Y-63165485D01*
X99701742Y-63094057D01*
X99844600Y-63022628D01*
X100058885Y-63022628D01*
X100201742Y-63094057D01*
X99558885Y-63594057D02*
X99701742Y-63522628D01*
X99987457Y-63522628D01*
X100130314Y-63594057D01*
X100201742Y-63665485D01*
X100273171Y-63808342D01*
X100273171Y-64236914D01*
X100201742Y-64379771D01*
X100130314Y-64451200D01*
X99987457Y-64522628D01*
X99701742Y-64522628D01*
X99558885Y-64451200D01*
X98201742Y-63522628D02*
X98201742Y-64308342D01*
X98273171Y-64451200D01*
X98416028Y-64522628D01*
X98701742Y-64522628D01*
X98844600Y-64451200D01*
X98201742Y-63594057D02*
X98344600Y-63522628D01*
X98701742Y-63522628D01*
X98844600Y-63594057D01*
X98916028Y-63736914D01*
X98916028Y-63879771D01*
X98844600Y-64022628D01*
X98701742Y-64094057D01*
X98344600Y-64094057D01*
X98201742Y-64165485D01*
X97844600Y-63379771D02*
X96701742Y-63379771D01*
X96344600Y-63522628D02*
X96344600Y-65022628D01*
X95987457Y-65022628D01*
X95773171Y-64951200D01*
X95630314Y-64808342D01*
X95558885Y-64665485D01*
X95487457Y-64379771D01*
X95487457Y-64165485D01*
X95558885Y-63879771D01*
X95630314Y-63736914D01*
X95773171Y-63594057D01*
X95987457Y-63522628D01*
X96344600Y-63522628D01*
X93058885Y-63522628D02*
X93058885Y-65022628D01*
X93058885Y-63594057D02*
X93201742Y-63522628D01*
X93487457Y-63522628D01*
X93630314Y-63594057D01*
X93701742Y-63665485D01*
X93773171Y-63808342D01*
X93773171Y-64236914D01*
X93701742Y-64379771D01*
X93630314Y-64451200D01*
X93487457Y-64522628D01*
X93201742Y-64522628D01*
X93058885Y-64451200D01*
X91773171Y-63594057D02*
X91916028Y-63522628D01*
X92201742Y-63522628D01*
X92344600Y-63594057D01*
X92416028Y-63736914D01*
X92416028Y-64308342D01*
X92344600Y-64451200D01*
X92201742Y-64522628D01*
X91916028Y-64522628D01*
X91773171Y-64451200D01*
X91701742Y-64308342D01*
X91701742Y-64165485D01*
X92416028Y-64022628D01*
X91130314Y-63594057D02*
X90987457Y-63522628D01*
X90701742Y-63522628D01*
X90558885Y-63594057D01*
X90487457Y-63736914D01*
X90487457Y-63808342D01*
X90558885Y-63951200D01*
X90701742Y-64022628D01*
X90916028Y-64022628D01*
X91058885Y-64094057D01*
X91130314Y-64236914D01*
X91130314Y-64308342D01*
X91058885Y-64451200D01*
X90916028Y-64522628D01*
X90701742Y-64522628D01*
X90558885Y-64451200D01*
X89844600Y-63522628D02*
X89844600Y-64522628D01*
X89844600Y-65022628D02*
X89916028Y-64951200D01*
X89844600Y-64879771D01*
X89773171Y-64951200D01*
X89844600Y-65022628D01*
X89844600Y-64879771D01*
X88487457Y-64522628D02*
X88487457Y-63308342D01*
X88558885Y-63165485D01*
X88630314Y-63094057D01*
X88773171Y-63022628D01*
X88987457Y-63022628D01*
X89130314Y-63094057D01*
X88487457Y-63594057D02*
X88630314Y-63522628D01*
X88916028Y-63522628D01*
X89058885Y-63594057D01*
X89130314Y-63665485D01*
X89201742Y-63808342D01*
X89201742Y-64236914D01*
X89130314Y-64379771D01*
X89058885Y-64451200D01*
X88916028Y-64522628D01*
X88630314Y-64522628D01*
X88487457Y-64451200D01*
X87773171Y-64522628D02*
X87773171Y-63522628D01*
X87773171Y-64379771D02*
X87701742Y-64451200D01*
X87558885Y-64522628D01*
X87344600Y-64522628D01*
X87201742Y-64451200D01*
X87130314Y-64308342D01*
X87130314Y-63522628D01*
X127897971Y-37217628D02*
X127897971Y-36217628D01*
X127897971Y-37074771D02*
X127826542Y-37146200D01*
X127683685Y-37217628D01*
X127469400Y-37217628D01*
X127326542Y-37146200D01*
X127255114Y-37003342D01*
X127255114Y-36217628D01*
X125897971Y-36217628D02*
X125897971Y-37003342D01*
X125969400Y-37146200D01*
X126112257Y-37217628D01*
X126397971Y-37217628D01*
X126540828Y-37146200D01*
X125897971Y-36289057D02*
X126040828Y-36217628D01*
X126397971Y-36217628D01*
X126540828Y-36289057D01*
X126612257Y-36431914D01*
X126612257Y-36574771D01*
X126540828Y-36717628D01*
X126397971Y-36789057D01*
X126040828Y-36789057D01*
X125897971Y-36860485D01*
X125183685Y-37217628D02*
X125183685Y-36217628D01*
X125183685Y-37074771D02*
X125112257Y-37146200D01*
X124969400Y-37217628D01*
X124755114Y-37217628D01*
X124612257Y-37146200D01*
X124540828Y-37003342D01*
X124540828Y-36217628D01*
X123612257Y-36217628D02*
X123755114Y-36289057D01*
X123826542Y-36360485D01*
X123897971Y-36503342D01*
X123897971Y-36931914D01*
X123826542Y-37074771D01*
X123755114Y-37146200D01*
X123612257Y-37217628D01*
X123397971Y-37217628D01*
X123255114Y-37146200D01*
X123183685Y-37074771D01*
X123112257Y-36931914D01*
X123112257Y-36503342D01*
X123183685Y-36360485D01*
X123255114Y-36289057D01*
X123397971Y-36217628D01*
X123612257Y-36217628D01*
X121826542Y-36289057D02*
X121969400Y-36217628D01*
X122255114Y-36217628D01*
X122397971Y-36289057D01*
X122469400Y-36360485D01*
X122540828Y-36503342D01*
X122540828Y-36931914D01*
X122469400Y-37074771D01*
X122397971Y-37146200D01*
X122255114Y-37217628D01*
X121969400Y-37217628D01*
X121826542Y-37146200D01*
X121183685Y-36217628D02*
X121183685Y-37217628D01*
X121183685Y-37074771D02*
X121112257Y-37146200D01*
X120969400Y-37217628D01*
X120755114Y-37217628D01*
X120612257Y-37146200D01*
X120540828Y-37003342D01*
X120540828Y-36217628D01*
X120540828Y-37003342D02*
X120469400Y-37146200D01*
X120326542Y-37217628D01*
X120112257Y-37217628D01*
X119969400Y-37146200D01*
X119897971Y-37003342D01*
X119897971Y-36217628D01*
X118540828Y-37217628D02*
X118540828Y-36217628D01*
X118897971Y-37789057D02*
X119255114Y-36717628D01*
X118326542Y-36717628D01*
X116612257Y-36217628D02*
X116612257Y-37717628D01*
X116612257Y-37146200D02*
X116469400Y-37217628D01*
X116183685Y-37217628D01*
X116040828Y-37146200D01*
X115969400Y-37074771D01*
X115897971Y-36931914D01*
X115897971Y-36503342D01*
X115969400Y-36360485D01*
X116040828Y-36289057D01*
X116183685Y-36217628D01*
X116469400Y-36217628D01*
X116612257Y-36289057D01*
X115040828Y-36217628D02*
X115183685Y-36289057D01*
X115255114Y-36360485D01*
X115326542Y-36503342D01*
X115326542Y-36931914D01*
X115255114Y-37074771D01*
X115183685Y-37146200D01*
X115040828Y-37217628D01*
X114826542Y-37217628D01*
X114683685Y-37146200D01*
X114612257Y-37074771D01*
X114540828Y-36931914D01*
X114540828Y-36503342D01*
X114612257Y-36360485D01*
X114683685Y-36289057D01*
X114826542Y-36217628D01*
X115040828Y-36217628D01*
X113255114Y-36217628D02*
X113255114Y-37003342D01*
X113326542Y-37146200D01*
X113469400Y-37217628D01*
X113755114Y-37217628D01*
X113897971Y-37146200D01*
X113255114Y-36289057D02*
X113397971Y-36217628D01*
X113755114Y-36217628D01*
X113897971Y-36289057D01*
X113969400Y-36431914D01*
X113969400Y-36574771D01*
X113897971Y-36717628D01*
X113755114Y-36789057D01*
X113397971Y-36789057D01*
X113255114Y-36860485D01*
X112540828Y-36217628D02*
X112540828Y-37217628D01*
X112540828Y-36931914D02*
X112469400Y-37074771D01*
X112397971Y-37146200D01*
X112255114Y-37217628D01*
X112112257Y-37217628D01*
X110969400Y-36217628D02*
X110969400Y-37717628D01*
X110969400Y-36289057D02*
X111112257Y-36217628D01*
X111397971Y-36217628D01*
X111540828Y-36289057D01*
X111612257Y-36360485D01*
X111683685Y-36503342D01*
X111683685Y-36931914D01*
X111612257Y-37074771D01*
X111540828Y-37146200D01*
X111397971Y-37217628D01*
X111112257Y-37217628D01*
X110969400Y-37146200D01*
X109112257Y-36217628D02*
X109112257Y-37217628D01*
X109112257Y-36931914D02*
X109040828Y-37074771D01*
X108969400Y-37146200D01*
X108826542Y-37217628D01*
X108683685Y-37217628D01*
X107612257Y-36289057D02*
X107755114Y-36217628D01*
X108040828Y-36217628D01*
X108183685Y-36289057D01*
X108255114Y-36431914D01*
X108255114Y-37003342D01*
X108183685Y-37146200D01*
X108040828Y-37217628D01*
X107755114Y-37217628D01*
X107612257Y-37146200D01*
X107540828Y-37003342D01*
X107540828Y-36860485D01*
X108255114Y-36717628D01*
X107040828Y-37217628D02*
X106683685Y-36217628D01*
X106326542Y-37217628D01*
X105469400Y-37717628D02*
X105326542Y-37717628D01*
X105183685Y-37646200D01*
X105112257Y-37574771D01*
X105040828Y-37431914D01*
X104969400Y-37146200D01*
X104969400Y-36789057D01*
X105040828Y-36503342D01*
X105112257Y-36360485D01*
X105183685Y-36289057D01*
X105326542Y-36217628D01*
X105469400Y-36217628D01*
X105612257Y-36289057D01*
X105683685Y-36360485D01*
X105755114Y-36503342D01*
X105826542Y-36789057D01*
X105826542Y-37146200D01*
X105755114Y-37431914D01*
X105683685Y-37574771D01*
X105612257Y-37646200D01*
X105469400Y-37717628D01*
D11*
X141200000Y-105400000D02*
G75*
G03*
X146200000Y-100400000I0J5000000D01*
G01*
X146200000Y-40400000D02*
G75*
G03*
X141200000Y-35400000I-5000000J0D01*
G01*
X146200000Y-40400000D02*
X146200000Y-100400000D01*
X66200000Y-100400000D02*
G75*
G03*
X71200000Y-105400000I5000000J0D01*
G01*
X141200000Y-105400000D02*
X71200000Y-105400000D01*
X66200000Y-100400000D02*
X66200000Y-40400000D01*
X71200000Y-35400000D02*
G75*
G03*
X66200000Y-40400000I0J-5000000D01*
G01*
X71200000Y-35400000D02*
X141200000Y-35400000D01*
D12*
X97032380Y-89677142D02*
X96032380Y-89677142D01*
X96746666Y-89343809D01*
X96032380Y-89010476D01*
X97032380Y-89010476D01*
X97032380Y-88391428D02*
X96984761Y-88486666D01*
X96937142Y-88534285D01*
X96841904Y-88581904D01*
X96556190Y-88581904D01*
X96460952Y-88534285D01*
X96413333Y-88486666D01*
X96365714Y-88391428D01*
X96365714Y-88248571D01*
X96413333Y-88153333D01*
X96460952Y-88105714D01*
X96556190Y-88058095D01*
X96841904Y-88058095D01*
X96937142Y-88105714D01*
X96984761Y-88153333D01*
X97032380Y-88248571D01*
X97032380Y-88391428D01*
X97032380Y-87200952D02*
X96032380Y-87200952D01*
X96984761Y-87200952D02*
X97032380Y-87296190D01*
X97032380Y-87486666D01*
X96984761Y-87581904D01*
X96937142Y-87629523D01*
X96841904Y-87677142D01*
X96556190Y-87677142D01*
X96460952Y-87629523D01*
X96413333Y-87581904D01*
X96365714Y-87486666D01*
X96365714Y-87296190D01*
X96413333Y-87200952D01*
X96365714Y-86296190D02*
X97032380Y-86296190D01*
X96365714Y-86724761D02*
X96889523Y-86724761D01*
X96984761Y-86677142D01*
X97032380Y-86581904D01*
X97032380Y-86439047D01*
X96984761Y-86343809D01*
X96937142Y-86296190D01*
X97032380Y-85677142D02*
X96984761Y-85772380D01*
X96889523Y-85820000D01*
X96032380Y-85820000D01*
X96984761Y-84915238D02*
X97032380Y-85010476D01*
X97032380Y-85200952D01*
X96984761Y-85296190D01*
X96889523Y-85343809D01*
X96508571Y-85343809D01*
X96413333Y-85296190D01*
X96365714Y-85200952D01*
X96365714Y-85010476D01*
X96413333Y-84915238D01*
X96508571Y-84867619D01*
X96603809Y-84867619D01*
X96699047Y-85343809D01*
X97032380Y-83915238D02*
X97032380Y-84486666D01*
X97032380Y-84200952D02*
X96032380Y-84200952D01*
X96175238Y-84296190D01*
X96270476Y-84391428D01*
X96318095Y-84486666D01*
X131366666Y-100852380D02*
X131366666Y-101566666D01*
X131319047Y-101709523D01*
X131223809Y-101804761D01*
X131080952Y-101852380D01*
X130985714Y-101852380D01*
X132319047Y-100852380D02*
X131842857Y-100852380D01*
X131795238Y-101328571D01*
X131842857Y-101280952D01*
X131938095Y-101233333D01*
X132176190Y-101233333D01*
X132271428Y-101280952D01*
X132319047Y-101328571D01*
X132366666Y-101423809D01*
X132366666Y-101661904D01*
X132319047Y-101757142D01*
X132271428Y-101804761D01*
X132176190Y-101852380D01*
X131938095Y-101852380D01*
X131842857Y-101804761D01*
X131795238Y-101757142D01*
X140482380Y-38066666D02*
X140006190Y-38400000D01*
X140482380Y-38638095D02*
X139482380Y-38638095D01*
X139482380Y-38257142D01*
X139530000Y-38161904D01*
X139577619Y-38114285D01*
X139672857Y-38066666D01*
X139815714Y-38066666D01*
X139910952Y-38114285D01*
X139958571Y-38161904D01*
X140006190Y-38257142D01*
X140006190Y-38638095D01*
X139577619Y-37685714D02*
X139530000Y-37638095D01*
X139482380Y-37542857D01*
X139482380Y-37304761D01*
X139530000Y-37209523D01*
X139577619Y-37161904D01*
X139672857Y-37114285D01*
X139768095Y-37114285D01*
X139910952Y-37161904D01*
X140482380Y-37733333D01*
X140482380Y-37114285D01*
X121057142Y-89257142D02*
X121009523Y-89304761D01*
X120866666Y-89352380D01*
X120771428Y-89352380D01*
X120628571Y-89304761D01*
X120533333Y-89209523D01*
X120485714Y-89114285D01*
X120438095Y-88923809D01*
X120438095Y-88780952D01*
X120485714Y-88590476D01*
X120533333Y-88495238D01*
X120628571Y-88400000D01*
X120771428Y-88352380D01*
X120866666Y-88352380D01*
X121009523Y-88400000D01*
X121057142Y-88447619D01*
X122009523Y-89352380D02*
X121438095Y-89352380D01*
X121723809Y-89352380D02*
X121723809Y-88352380D01*
X121628571Y-88495238D01*
X121533333Y-88590476D01*
X121438095Y-88638095D01*
X122961904Y-89352380D02*
X122390476Y-89352380D01*
X122676190Y-89352380D02*
X122676190Y-88352380D01*
X122580952Y-88495238D01*
X122485714Y-88590476D01*
X122390476Y-88638095D01*
X121438095Y-93452380D02*
X121438095Y-94261904D01*
X121485714Y-94357142D01*
X121533333Y-94404761D01*
X121628571Y-94452380D01*
X121819047Y-94452380D01*
X121914285Y-94404761D01*
X121961904Y-94357142D01*
X122009523Y-94261904D01*
X122009523Y-93452380D01*
X122390476Y-93452380D02*
X123057142Y-93452380D01*
X122628571Y-94452380D01*
X119057142Y-99566666D02*
X119104761Y-99614285D01*
X119152380Y-99757142D01*
X119152380Y-99852380D01*
X119104761Y-99995238D01*
X119009523Y-100090476D01*
X118914285Y-100138095D01*
X118723809Y-100185714D01*
X118580952Y-100185714D01*
X118390476Y-100138095D01*
X118295238Y-100090476D01*
X118200000Y-99995238D01*
X118152380Y-99852380D01*
X118152380Y-99757142D01*
X118200000Y-99614285D01*
X118247619Y-99566666D01*
X118247619Y-99185714D02*
X118200000Y-99138095D01*
X118152380Y-99042857D01*
X118152380Y-98804761D01*
X118200000Y-98709523D01*
X118247619Y-98661904D01*
X118342857Y-98614285D01*
X118438095Y-98614285D01*
X118580952Y-98661904D01*
X119152380Y-99233333D01*
X119152380Y-98614285D01*
X117533333Y-87757142D02*
X117485714Y-87804761D01*
X117342857Y-87852380D01*
X117247619Y-87852380D01*
X117104761Y-87804761D01*
X117009523Y-87709523D01*
X116961904Y-87614285D01*
X116914285Y-87423809D01*
X116914285Y-87280952D01*
X116961904Y-87090476D01*
X117009523Y-86995238D01*
X117104761Y-86900000D01*
X117247619Y-86852380D01*
X117342857Y-86852380D01*
X117485714Y-86900000D01*
X117533333Y-86947619D01*
X117866666Y-86852380D02*
X118533333Y-86852380D01*
X118104761Y-87852380D01*
D13*
X140208473Y-90950751D02*
X140208473Y-91666301D01*
X140160770Y-91809411D01*
X140065363Y-91904818D01*
X139922253Y-91952521D01*
X139826846Y-91952521D01*
X141210243Y-91952521D02*
X140637803Y-91952521D01*
X140924023Y-91952521D02*
X140924023Y-90950751D01*
X140828616Y-91093861D01*
X140733210Y-91189268D01*
X140637803Y-91236971D01*
X141544166Y-90950751D02*
X142164310Y-90950751D01*
X141830386Y-91332378D01*
X141973496Y-91332378D01*
X142068903Y-91380081D01*
X142116606Y-91427785D01*
X142164310Y-91523191D01*
X142164310Y-91761708D01*
X142116606Y-91857115D01*
X142068903Y-91904818D01*
X141973496Y-91952521D01*
X141687276Y-91952521D01*
X141591870Y-91904818D01*
X141544166Y-91857115D01*
X134118228Y-74626360D02*
X133927511Y-74626360D01*
X133832153Y-74674040D01*
X133784474Y-74721719D01*
X133689116Y-74864756D01*
X133641437Y-75055472D01*
X133641437Y-75436904D01*
X133689116Y-75532262D01*
X133736795Y-75579941D01*
X133832153Y-75627620D01*
X134022870Y-75627620D01*
X134118228Y-75579941D01*
X134165907Y-75532262D01*
X134213586Y-75436904D01*
X134213586Y-75198509D01*
X134165907Y-75103151D01*
X134118228Y-75055472D01*
X134022870Y-75007793D01*
X133832153Y-75007793D01*
X133736795Y-75055472D01*
X133689116Y-75103151D01*
X133641437Y-75198509D01*
X134690376Y-75627620D02*
X134881092Y-75627620D01*
X134976450Y-75579941D01*
X135024130Y-75532262D01*
X135119488Y-75389225D01*
X135167167Y-75198509D01*
X135167167Y-74817077D01*
X135119488Y-74721719D01*
X135071809Y-74674040D01*
X134976450Y-74626360D01*
X134785734Y-74626360D01*
X134690376Y-74674040D01*
X134642697Y-74721719D01*
X134595018Y-74817077D01*
X134595018Y-75055472D01*
X134642697Y-75150830D01*
X134690376Y-75198509D01*
X134785734Y-75246188D01*
X134976450Y-75246188D01*
X135071809Y-75198509D01*
X135119488Y-75150830D01*
X135167167Y-75055472D01*
X135786994Y-74626360D02*
X135882352Y-74626360D01*
X135977710Y-74674040D01*
X136025390Y-74721719D01*
X136073069Y-74817077D01*
X136120748Y-75007793D01*
X136120748Y-75246188D01*
X136073069Y-75436904D01*
X136025390Y-75532262D01*
X135977710Y-75579941D01*
X135882352Y-75627620D01*
X135786994Y-75627620D01*
X135691636Y-75579941D01*
X135643957Y-75532262D01*
X135596278Y-75436904D01*
X135548599Y-75246188D01*
X135548599Y-75007793D01*
X135596278Y-74817077D01*
X135643957Y-74721719D01*
X135691636Y-74674040D01*
X135786994Y-74626360D01*
X136549859Y-75246188D02*
X137312724Y-75246188D01*
X137980230Y-74626360D02*
X138075589Y-74626360D01*
X138170947Y-74674040D01*
X138218626Y-74721719D01*
X138266305Y-74817077D01*
X138313984Y-75007793D01*
X138313984Y-75246188D01*
X138266305Y-75436904D01*
X138218626Y-75532262D01*
X138170947Y-75579941D01*
X138075589Y-75627620D01*
X137980230Y-75627620D01*
X137884872Y-75579941D01*
X137837193Y-75532262D01*
X137789514Y-75436904D01*
X137741835Y-75246188D01*
X137741835Y-75007793D01*
X137789514Y-74817077D01*
X137837193Y-74721719D01*
X137884872Y-74674040D01*
X137980230Y-74626360D01*
X138933811Y-74626360D02*
X139029170Y-74626360D01*
X139124528Y-74674040D01*
X139172207Y-74721719D01*
X139219886Y-74817077D01*
X139267565Y-75007793D01*
X139267565Y-75246188D01*
X139219886Y-75436904D01*
X139172207Y-75532262D01*
X139124528Y-75579941D01*
X139029170Y-75627620D01*
X138933811Y-75627620D01*
X138838453Y-75579941D01*
X138790774Y-75532262D01*
X138743095Y-75436904D01*
X138695416Y-75246188D01*
X138695416Y-75007793D01*
X138743095Y-74817077D01*
X138790774Y-74721719D01*
X138838453Y-74674040D01*
X138933811Y-74626360D01*
X139839713Y-75055472D02*
X139744355Y-75007793D01*
X139696676Y-74960114D01*
X139648997Y-74864756D01*
X139648997Y-74817077D01*
X139696676Y-74721719D01*
X139744355Y-74674040D01*
X139839713Y-74626360D01*
X140030430Y-74626360D01*
X140125788Y-74674040D01*
X140173467Y-74721719D01*
X140221146Y-74817077D01*
X140221146Y-74864756D01*
X140173467Y-74960114D01*
X140125788Y-75007793D01*
X140030430Y-75055472D01*
X139839713Y-75055472D01*
X139744355Y-75103151D01*
X139696676Y-75150830D01*
X139648997Y-75246188D01*
X139648997Y-75436904D01*
X139696676Y-75532262D01*
X139744355Y-75579941D01*
X139839713Y-75627620D01*
X140030430Y-75627620D01*
X140125788Y-75579941D01*
X140173467Y-75532262D01*
X140221146Y-75436904D01*
X140221146Y-75246188D01*
X140173467Y-75150830D01*
X140125788Y-75103151D01*
X140030430Y-75055472D01*
X140650257Y-75246188D02*
X141413122Y-75246188D01*
X141842233Y-74721719D02*
X141889912Y-74674040D01*
X141985270Y-74626360D01*
X142223666Y-74626360D01*
X142319024Y-74674040D01*
X142366703Y-74721719D01*
X142414382Y-74817077D01*
X142414382Y-74912435D01*
X142366703Y-75055472D01*
X141794554Y-75627620D01*
X142414382Y-75627620D01*
X142795814Y-74721719D02*
X142843493Y-74674040D01*
X142938851Y-74626360D01*
X143177247Y-74626360D01*
X143272605Y-74674040D01*
X143320284Y-74721719D01*
X143367963Y-74817077D01*
X143367963Y-74912435D01*
X143320284Y-75055472D01*
X142748135Y-75627620D01*
X143367963Y-75627620D01*
X144321544Y-75627620D02*
X143749395Y-75627620D01*
X144035470Y-75627620D02*
X144035470Y-74626360D01*
X143940111Y-74769398D01*
X143844753Y-74864756D01*
X143749395Y-74912435D01*
X144750655Y-75246188D02*
X145513520Y-75246188D01*
X146037990Y-75627620D02*
X146228706Y-75627620D01*
X146324064Y-75579941D01*
X146371743Y-75532262D01*
X146467101Y-75389225D01*
X146514780Y-75198509D01*
X146514780Y-74817077D01*
X146467101Y-74721719D01*
X146419422Y-74674040D01*
X146324064Y-74626360D01*
X146133348Y-74626360D01*
X146037990Y-74674040D01*
X145990310Y-74721719D01*
X145942631Y-74817077D01*
X145942631Y-75055472D01*
X145990310Y-75150830D01*
X146037990Y-75198509D01*
X146133348Y-75246188D01*
X146324064Y-75246188D01*
X146419422Y-75198509D01*
X146467101Y-75150830D01*
X146514780Y-75055472D01*
X147134608Y-74626360D02*
X147229966Y-74626360D01*
X147325324Y-74674040D01*
X147373003Y-74721719D01*
X147420682Y-74817077D01*
X147468361Y-75007793D01*
X147468361Y-75246188D01*
X147420682Y-75436904D01*
X147373003Y-75532262D01*
X147325324Y-75579941D01*
X147229966Y-75627620D01*
X147134608Y-75627620D01*
X147039250Y-75579941D01*
X146991570Y-75532262D01*
X146943891Y-75436904D01*
X146896212Y-75246188D01*
X146896212Y-75007793D01*
X146943891Y-74817077D01*
X146991570Y-74721719D01*
X147039250Y-74674040D01*
X147134608Y-74626360D01*
X148326584Y-74960114D02*
X148326584Y-75627620D01*
X148088189Y-74578681D02*
X147849793Y-75293867D01*
X148469621Y-75293867D01*
D12*
X71482380Y-74542857D02*
X71006190Y-74876190D01*
X71482380Y-75114285D02*
X70482380Y-75114285D01*
X70482380Y-74733333D01*
X70530000Y-74638095D01*
X70577619Y-74590476D01*
X70672857Y-74542857D01*
X70815714Y-74542857D01*
X70910952Y-74590476D01*
X70958571Y-74638095D01*
X71006190Y-74733333D01*
X71006190Y-75114285D01*
X70577619Y-74161904D02*
X70530000Y-74114285D01*
X70482380Y-74019047D01*
X70482380Y-73780952D01*
X70530000Y-73685714D01*
X70577619Y-73638095D01*
X70672857Y-73590476D01*
X70768095Y-73590476D01*
X70910952Y-73638095D01*
X71482380Y-74209523D01*
X71482380Y-73590476D01*
X71482380Y-73114285D02*
X71482380Y-72923809D01*
X71434761Y-72828571D01*
X71387142Y-72780952D01*
X71244285Y-72685714D01*
X71053809Y-72638095D01*
X70672857Y-72638095D01*
X70577619Y-72685714D01*
X70530000Y-72733333D01*
X70482380Y-72828571D01*
X70482380Y-73019047D01*
X70530000Y-73114285D01*
X70577619Y-73161904D01*
X70672857Y-73209523D01*
X70910952Y-73209523D01*
X71006190Y-73161904D01*
X71053809Y-73114285D01*
X71101428Y-73019047D01*
X71101428Y-72828571D01*
X71053809Y-72733333D01*
X71006190Y-72685714D01*
X70910952Y-72638095D01*
X111722380Y-102138095D02*
X110722380Y-102138095D01*
X110722380Y-101900000D01*
X110770000Y-101757142D01*
X110865238Y-101661904D01*
X110960476Y-101614285D01*
X111150952Y-101566666D01*
X111293809Y-101566666D01*
X111484285Y-101614285D01*
X111579523Y-101661904D01*
X111674761Y-101757142D01*
X111722380Y-101900000D01*
X111722380Y-102138095D01*
X111722380Y-100614285D02*
X111722380Y-101185714D01*
X111722380Y-100900000D02*
X110722380Y-100900000D01*
X110865238Y-100995238D01*
X110960476Y-101090476D01*
X111008095Y-101185714D01*
D13*
X141552011Y-71961654D02*
X141552011Y-72533409D01*
X141513894Y-72647760D01*
X141437660Y-72723994D01*
X141323309Y-72762111D01*
X141247075Y-72762111D01*
X142352468Y-72762111D02*
X141895064Y-72762111D01*
X142123766Y-72762111D02*
X142123766Y-71961654D01*
X142047532Y-72076005D01*
X141971298Y-72152239D01*
X141895064Y-72190356D01*
X142847989Y-71961654D02*
X142924223Y-71961654D01*
X143000457Y-71999771D01*
X143038574Y-72037888D01*
X143076691Y-72114122D01*
X143114808Y-72266590D01*
X143114808Y-72457175D01*
X143076691Y-72609643D01*
X143038574Y-72685877D01*
X143000457Y-72723994D01*
X142924223Y-72762111D01*
X142847989Y-72762111D01*
X142771755Y-72723994D01*
X142733638Y-72685877D01*
X142695521Y-72609643D01*
X142657404Y-72457175D01*
X142657404Y-72266590D01*
X142695521Y-72114122D01*
X142733638Y-72037888D01*
X142771755Y-71999771D01*
X142847989Y-71961654D01*
X143800771Y-76457215D02*
X143800771Y-76609851D01*
X143838930Y-76686169D01*
X143877089Y-76724328D01*
X143991566Y-76800646D01*
X144144202Y-76838805D01*
X144449474Y-76838805D01*
X144525792Y-76800646D01*
X144563951Y-76762487D01*
X144602110Y-76686169D01*
X144602110Y-76533533D01*
X144563951Y-76457215D01*
X144525792Y-76419056D01*
X144449474Y-76380897D01*
X144258679Y-76380897D01*
X144182361Y-76419056D01*
X144144202Y-76457215D01*
X144106043Y-76533533D01*
X144106043Y-76686169D01*
X144144202Y-76762487D01*
X144182361Y-76800646D01*
X144258679Y-76838805D01*
X144602110Y-75999307D02*
X144602110Y-75846671D01*
X144563951Y-75770353D01*
X144525792Y-75732194D01*
X144411315Y-75655876D01*
X144258679Y-75617717D01*
X143953407Y-75617717D01*
X143877089Y-75655876D01*
X143838930Y-75694035D01*
X143800771Y-75770353D01*
X143800771Y-75922989D01*
X143838930Y-75999307D01*
X143877089Y-76037466D01*
X143953407Y-76075625D01*
X144144202Y-76075625D01*
X144220520Y-76037466D01*
X144258679Y-75999307D01*
X144296838Y-75922989D01*
X144296838Y-75770353D01*
X144258679Y-75694035D01*
X144220520Y-75655876D01*
X144144202Y-75617717D01*
X143800771Y-75121650D02*
X143800771Y-75045332D01*
X143838930Y-74969014D01*
X143877089Y-74930855D01*
X143953407Y-74892696D01*
X144106043Y-74854537D01*
X144296838Y-74854537D01*
X144449474Y-74892696D01*
X144525792Y-74930855D01*
X144563951Y-74969014D01*
X144602110Y-75045332D01*
X144602110Y-75121650D01*
X144563951Y-75197968D01*
X144525792Y-75236127D01*
X144449474Y-75274286D01*
X144296838Y-75312445D01*
X144106043Y-75312445D01*
X143953407Y-75274286D01*
X143877089Y-75236127D01*
X143838930Y-75197968D01*
X143800771Y-75121650D01*
X144296838Y-74511106D02*
X144296838Y-73900562D01*
X143800771Y-73366336D02*
X143800771Y-73290018D01*
X143838930Y-73213700D01*
X143877089Y-73175541D01*
X143953407Y-73137382D01*
X144106043Y-73099223D01*
X144296838Y-73099223D01*
X144449474Y-73137382D01*
X144525792Y-73175541D01*
X144563951Y-73213700D01*
X144602110Y-73290018D01*
X144602110Y-73366336D01*
X144563951Y-73442654D01*
X144525792Y-73480813D01*
X144449474Y-73518972D01*
X144296838Y-73557131D01*
X144106043Y-73557131D01*
X143953407Y-73518972D01*
X143877089Y-73480813D01*
X143838930Y-73442654D01*
X143800771Y-73366336D01*
X144602110Y-72336043D02*
X144602110Y-72793951D01*
X144602110Y-72564997D02*
X143800771Y-72564997D01*
X143915248Y-72641315D01*
X143991566Y-72717633D01*
X144029725Y-72793951D01*
X144602110Y-71954453D02*
X144602110Y-71801817D01*
X144563951Y-71725499D01*
X144525792Y-71687340D01*
X144411315Y-71611022D01*
X144258679Y-71572863D01*
X143953407Y-71572863D01*
X143877089Y-71611022D01*
X143838930Y-71649181D01*
X143800771Y-71725499D01*
X143800771Y-71878135D01*
X143838930Y-71954453D01*
X143877089Y-71992612D01*
X143953407Y-72030771D01*
X144144202Y-72030771D01*
X144220520Y-71992612D01*
X144258679Y-71954453D01*
X144296838Y-71878135D01*
X144296838Y-71725499D01*
X144258679Y-71649181D01*
X144220520Y-71611022D01*
X144144202Y-71572863D01*
X144296838Y-71229432D02*
X144296838Y-70618888D01*
X143877089Y-70275457D02*
X143838930Y-70237298D01*
X143800771Y-70160980D01*
X143800771Y-69970185D01*
X143838930Y-69893867D01*
X143877089Y-69855708D01*
X143953407Y-69817549D01*
X144029725Y-69817549D01*
X144144202Y-69855708D01*
X144602110Y-70313616D01*
X144602110Y-69817549D01*
X144602110Y-69435959D02*
X144602110Y-69283323D01*
X144563951Y-69207005D01*
X144525792Y-69168846D01*
X144411315Y-69092528D01*
X144258679Y-69054369D01*
X143953407Y-69054369D01*
X143877089Y-69092528D01*
X143838930Y-69130687D01*
X143800771Y-69207005D01*
X143800771Y-69359641D01*
X143838930Y-69435959D01*
X143877089Y-69474118D01*
X143953407Y-69512277D01*
X144144202Y-69512277D01*
X144220520Y-69474118D01*
X144258679Y-69435959D01*
X144296838Y-69359641D01*
X144296838Y-69207005D01*
X144258679Y-69130687D01*
X144220520Y-69092528D01*
X144144202Y-69054369D01*
X144144202Y-68596461D02*
X144106043Y-68672779D01*
X144067884Y-68710938D01*
X143991566Y-68749097D01*
X143953407Y-68749097D01*
X143877089Y-68710938D01*
X143838930Y-68672779D01*
X143800771Y-68596461D01*
X143800771Y-68443825D01*
X143838930Y-68367507D01*
X143877089Y-68329348D01*
X143953407Y-68291189D01*
X143991566Y-68291189D01*
X144067884Y-68329348D01*
X144106043Y-68367507D01*
X144144202Y-68443825D01*
X144144202Y-68596461D01*
X144182361Y-68672779D01*
X144220520Y-68710938D01*
X144296838Y-68749097D01*
X144449474Y-68749097D01*
X144525792Y-68710938D01*
X144563951Y-68672779D01*
X144602110Y-68596461D01*
X144602110Y-68443825D01*
X144563951Y-68367507D01*
X144525792Y-68329348D01*
X144449474Y-68291189D01*
X144296838Y-68291189D01*
X144220520Y-68329348D01*
X144182361Y-68367507D01*
X144144202Y-68443825D01*
X144296838Y-67947758D02*
X144296838Y-67337214D01*
X144067884Y-66612193D02*
X144602110Y-66612193D01*
X143762612Y-66802988D02*
X144334997Y-66993783D01*
X144334997Y-66497716D01*
X144602110Y-65772695D02*
X144602110Y-66230603D01*
X144602110Y-66001649D02*
X143800771Y-66001649D01*
X143915248Y-66077967D01*
X143991566Y-66154285D01*
X144029725Y-66230603D01*
X143877089Y-65467423D02*
X143838930Y-65429264D01*
X143800771Y-65352946D01*
X143800771Y-65162151D01*
X143838930Y-65085833D01*
X143877089Y-65047674D01*
X143953407Y-65009515D01*
X144029725Y-65009515D01*
X144144202Y-65047674D01*
X144602110Y-65505582D01*
X144602110Y-65009515D01*
D12*
X130557142Y-72542857D02*
X130604761Y-72590476D01*
X130652380Y-72733333D01*
X130652380Y-72828571D01*
X130604761Y-72971428D01*
X130509523Y-73066666D01*
X130414285Y-73114285D01*
X130223809Y-73161904D01*
X130080952Y-73161904D01*
X129890476Y-73114285D01*
X129795238Y-73066666D01*
X129700000Y-72971428D01*
X129652380Y-72828571D01*
X129652380Y-72733333D01*
X129700000Y-72590476D01*
X129747619Y-72542857D01*
X130652380Y-71590476D02*
X130652380Y-72161904D01*
X130652380Y-71876190D02*
X129652380Y-71876190D01*
X129795238Y-71971428D01*
X129890476Y-72066666D01*
X129938095Y-72161904D01*
X129652380Y-71257142D02*
X129652380Y-70638095D01*
X130033333Y-70971428D01*
X130033333Y-70828571D01*
X130080952Y-70733333D01*
X130128571Y-70685714D01*
X130223809Y-70638095D01*
X130461904Y-70638095D01*
X130557142Y-70685714D01*
X130604761Y-70733333D01*
X130652380Y-70828571D01*
X130652380Y-71114285D01*
X130604761Y-71209523D01*
X130557142Y-71257142D01*
X86438095Y-67152380D02*
X86438095Y-66152380D01*
X86438095Y-66628571D02*
X87009523Y-66628571D01*
X87009523Y-67152380D02*
X87009523Y-66152380D01*
X88009523Y-67152380D02*
X87438095Y-67152380D01*
X87723809Y-67152380D02*
X87723809Y-66152380D01*
X87628571Y-66295238D01*
X87533333Y-66390476D01*
X87438095Y-66438095D01*
X123557142Y-74682380D02*
X123223809Y-74206190D01*
X122985714Y-74682380D02*
X122985714Y-73682380D01*
X123366666Y-73682380D01*
X123461904Y-73730000D01*
X123509523Y-73777619D01*
X123557142Y-73872857D01*
X123557142Y-74015714D01*
X123509523Y-74110952D01*
X123461904Y-74158571D01*
X123366666Y-74206190D01*
X122985714Y-74206190D01*
X124509523Y-74682380D02*
X123938095Y-74682380D01*
X124223809Y-74682380D02*
X124223809Y-73682380D01*
X124128571Y-73825238D01*
X124033333Y-73920476D01*
X123938095Y-73968095D01*
X125366666Y-74015714D02*
X125366666Y-74682380D01*
X125128571Y-73634761D02*
X124890476Y-74349047D01*
X125509523Y-74349047D01*
X69438095Y-43852380D02*
X69438095Y-42852380D01*
X69438095Y-43328571D02*
X70009523Y-43328571D01*
X70009523Y-43852380D02*
X70009523Y-42852380D01*
X70438095Y-42947619D02*
X70485714Y-42900000D01*
X70580952Y-42852380D01*
X70819047Y-42852380D01*
X70914285Y-42900000D01*
X70961904Y-42947619D01*
X71009523Y-43042857D01*
X71009523Y-43138095D01*
X70961904Y-43280952D01*
X70390476Y-43852380D01*
X71009523Y-43852380D01*
X126652380Y-77542857D02*
X126176190Y-77876190D01*
X126652380Y-78114285D02*
X125652380Y-78114285D01*
X125652380Y-77733333D01*
X125700000Y-77638095D01*
X125747619Y-77590476D01*
X125842857Y-77542857D01*
X125985714Y-77542857D01*
X126080952Y-77590476D01*
X126128571Y-77638095D01*
X126176190Y-77733333D01*
X126176190Y-78114285D01*
X126652380Y-76590476D02*
X126652380Y-77161904D01*
X126652380Y-76876190D02*
X125652380Y-76876190D01*
X125795238Y-76971428D01*
X125890476Y-77066666D01*
X125938095Y-77161904D01*
X125747619Y-76209523D02*
X125700000Y-76161904D01*
X125652380Y-76066666D01*
X125652380Y-75828571D01*
X125700000Y-75733333D01*
X125747619Y-75685714D01*
X125842857Y-75638095D01*
X125938095Y-75638095D01*
X126080952Y-75685714D01*
X126652380Y-76257142D01*
X126652380Y-75638095D01*
X117507142Y-73257142D02*
X117459523Y-73304761D01*
X117316666Y-73352380D01*
X117221428Y-73352380D01*
X117078571Y-73304761D01*
X116983333Y-73209523D01*
X116935714Y-73114285D01*
X116888095Y-72923809D01*
X116888095Y-72780952D01*
X116935714Y-72590476D01*
X116983333Y-72495238D01*
X117078571Y-72400000D01*
X117221428Y-72352380D01*
X117316666Y-72352380D01*
X117459523Y-72400000D01*
X117507142Y-72447619D01*
X118459523Y-73352380D02*
X117888095Y-73352380D01*
X118173809Y-73352380D02*
X118173809Y-72352380D01*
X118078571Y-72495238D01*
X117983333Y-72590476D01*
X117888095Y-72638095D01*
X119078571Y-72352380D02*
X119173809Y-72352380D01*
X119269047Y-72400000D01*
X119316666Y-72447619D01*
X119364285Y-72542857D01*
X119411904Y-72733333D01*
X119411904Y-72971428D01*
X119364285Y-73161904D01*
X119316666Y-73257142D01*
X119269047Y-73304761D01*
X119173809Y-73352380D01*
X119078571Y-73352380D01*
X118983333Y-73304761D01*
X118935714Y-73257142D01*
X118888095Y-73161904D01*
X118840476Y-72971428D01*
X118840476Y-72733333D01*
X118888095Y-72542857D01*
X118935714Y-72447619D01*
X118983333Y-72400000D01*
X119078571Y-72352380D01*
X115438095Y-37152380D02*
X115438095Y-36152380D01*
X115438095Y-36628571D02*
X116009523Y-36628571D01*
X116009523Y-37152380D02*
X116009523Y-36152380D01*
X116914285Y-36485714D02*
X116914285Y-37152380D01*
X116676190Y-36104761D02*
X116438095Y-36819047D01*
X117057142Y-36819047D01*
X120314285Y-100614285D02*
X120285714Y-100642857D01*
X120200000Y-100671428D01*
X120142857Y-100671428D01*
X120057142Y-100642857D01*
X120000000Y-100585714D01*
X119971428Y-100528571D01*
X119942857Y-100414285D01*
X119942857Y-100328571D01*
X119971428Y-100214285D01*
X120000000Y-100157142D01*
X120057142Y-100100000D01*
X120142857Y-100071428D01*
X120200000Y-100071428D01*
X120285714Y-100100000D01*
X120314285Y-100128571D01*
X120542857Y-100128571D02*
X120571428Y-100100000D01*
X120628571Y-100071428D01*
X120771428Y-100071428D01*
X120828571Y-100100000D01*
X120857142Y-100128571D01*
X120885714Y-100185714D01*
X120885714Y-100242857D01*
X120857142Y-100328571D01*
X120514285Y-100671428D01*
X120885714Y-100671428D01*
X121257142Y-100071428D02*
X121314285Y-100071428D01*
X121371428Y-100100000D01*
X121400000Y-100128571D01*
X121428571Y-100185714D01*
X121457142Y-100300000D01*
X121457142Y-100442857D01*
X121428571Y-100557142D01*
X121400000Y-100614285D01*
X121371428Y-100642857D01*
X121314285Y-100671428D01*
X121257142Y-100671428D01*
X121200000Y-100642857D01*
X121171428Y-100614285D01*
X121142857Y-100557142D01*
X121114285Y-100442857D01*
X121114285Y-100300000D01*
X121142857Y-100185714D01*
X121171428Y-100128571D01*
X121200000Y-100100000D01*
X121257142Y-100071428D01*
X82741476Y-99772380D02*
X82741476Y-100486666D01*
X82693857Y-100629523D01*
X82598619Y-100724761D01*
X82455761Y-100772380D01*
X82360523Y-100772380D01*
X83741476Y-100772380D02*
X83170047Y-100772380D01*
X83455761Y-100772380D02*
X83455761Y-99772380D01*
X83360523Y-99915238D01*
X83265285Y-100010476D01*
X83170047Y-100058095D01*
X84646238Y-99772380D02*
X84170047Y-99772380D01*
X84122428Y-100248571D01*
X84170047Y-100200952D01*
X84265285Y-100153333D01*
X84503380Y-100153333D01*
X84598619Y-100200952D01*
X84646238Y-100248571D01*
X84693857Y-100343809D01*
X84693857Y-100581904D01*
X84646238Y-100677142D01*
X84598619Y-100724761D01*
X84503380Y-100772380D01*
X84265285Y-100772380D01*
X84170047Y-100724761D01*
X84122428Y-100677142D01*
X82152380Y-39285714D02*
X81676190Y-39485714D01*
X82152380Y-39628571D02*
X81152380Y-39628571D01*
X81152380Y-39400000D01*
X81200000Y-39342857D01*
X81247619Y-39314285D01*
X81342857Y-39285714D01*
X81485714Y-39285714D01*
X81580952Y-39314285D01*
X81628571Y-39342857D01*
X81676190Y-39400000D01*
X81676190Y-39628571D01*
X82152380Y-38714285D02*
X82152380Y-39057142D01*
X82152380Y-38885714D02*
X81152380Y-38885714D01*
X81295238Y-38942857D01*
X81390476Y-39000000D01*
X81438095Y-39057142D01*
X81580952Y-38371428D02*
X81533333Y-38428571D01*
X81485714Y-38457142D01*
X81390476Y-38485714D01*
X81342857Y-38485714D01*
X81247619Y-38457142D01*
X81200000Y-38428571D01*
X81152380Y-38371428D01*
X81152380Y-38257142D01*
X81200000Y-38200000D01*
X81247619Y-38171428D01*
X81342857Y-38142857D01*
X81390476Y-38142857D01*
X81485714Y-38171428D01*
X81533333Y-38200000D01*
X81580952Y-38257142D01*
X81580952Y-38371428D01*
X81628571Y-38428571D01*
X81676190Y-38457142D01*
X81771428Y-38485714D01*
X81961904Y-38485714D01*
X82057142Y-38457142D01*
X82104761Y-38428571D01*
X82152380Y-38371428D01*
X82152380Y-38257142D01*
X82104761Y-38200000D01*
X82057142Y-38171428D01*
X81961904Y-38142857D01*
X81771428Y-38142857D01*
X81676190Y-38171428D01*
X81628571Y-38200000D01*
X81580952Y-38257142D01*
X116652380Y-93661904D02*
X117461904Y-93661904D01*
X117557142Y-93614285D01*
X117604761Y-93566666D01*
X117652380Y-93471428D01*
X117652380Y-93280952D01*
X117604761Y-93185714D01*
X117557142Y-93138095D01*
X117461904Y-93090476D01*
X116652380Y-93090476D01*
X116652380Y-92138095D02*
X116652380Y-92614285D01*
X117128571Y-92661904D01*
X117080952Y-92614285D01*
X117033333Y-92519047D01*
X117033333Y-92280952D01*
X117080952Y-92185714D01*
X117128571Y-92138095D01*
X117223809Y-92090476D01*
X117461904Y-92090476D01*
X117557142Y-92138095D01*
X117604761Y-92185714D01*
X117652380Y-92280952D01*
X117652380Y-92519047D01*
X117604761Y-92614285D01*
X117557142Y-92661904D01*
X126676190Y-66126190D02*
X127152380Y-66126190D01*
X126152380Y-66459523D02*
X126676190Y-66126190D01*
X126152380Y-65792857D01*
X127152380Y-64935714D02*
X127152380Y-65507142D01*
X127152380Y-65221428D02*
X126152380Y-65221428D01*
X126295238Y-65316666D01*
X126390476Y-65411904D01*
X126438095Y-65507142D01*
X116057142Y-77852380D02*
X115723809Y-77376190D01*
X115485714Y-77852380D02*
X115485714Y-76852380D01*
X115866666Y-76852380D01*
X115961904Y-76900000D01*
X116009523Y-76947619D01*
X116057142Y-77042857D01*
X116057142Y-77185714D01*
X116009523Y-77280952D01*
X115961904Y-77328571D01*
X115866666Y-77376190D01*
X115485714Y-77376190D01*
X117009523Y-77852380D02*
X116438095Y-77852380D01*
X116723809Y-77852380D02*
X116723809Y-76852380D01*
X116628571Y-76995238D01*
X116533333Y-77090476D01*
X116438095Y-77138095D01*
X117914285Y-76852380D02*
X117438095Y-76852380D01*
X117390476Y-77328571D01*
X117438095Y-77280952D01*
X117533333Y-77233333D01*
X117771428Y-77233333D01*
X117866666Y-77280952D01*
X117914285Y-77328571D01*
X117961904Y-77423809D01*
X117961904Y-77661904D01*
X117914285Y-77757142D01*
X117866666Y-77804761D01*
X117771428Y-77852380D01*
X117533333Y-77852380D01*
X117438095Y-77804761D01*
X117390476Y-77757142D01*
X100769066Y-99852380D02*
X100769066Y-100566666D01*
X100721447Y-100709523D01*
X100626209Y-100804761D01*
X100483352Y-100852380D01*
X100388114Y-100852380D01*
X101673828Y-100185714D02*
X101673828Y-100852380D01*
X101435733Y-99804761D02*
X101197638Y-100519047D01*
X101816685Y-100519047D01*
X130057142Y-101542857D02*
X130104761Y-101590476D01*
X130152380Y-101733333D01*
X130152380Y-101828571D01*
X130104761Y-101971428D01*
X130009523Y-102066666D01*
X129914285Y-102114285D01*
X129723809Y-102161904D01*
X129580952Y-102161904D01*
X129390476Y-102114285D01*
X129295238Y-102066666D01*
X129200000Y-101971428D01*
X129152380Y-101828571D01*
X129152380Y-101733333D01*
X129200000Y-101590476D01*
X129247619Y-101542857D01*
X130152380Y-100590476D02*
X130152380Y-101161904D01*
X130152380Y-100876190D02*
X129152380Y-100876190D01*
X129295238Y-100971428D01*
X129390476Y-101066666D01*
X129438095Y-101161904D01*
X129152380Y-100257142D02*
X129152380Y-99590476D01*
X130152380Y-100019047D01*
X70866666Y-57481380D02*
X70866666Y-58195666D01*
X70819047Y-58338523D01*
X70723809Y-58433761D01*
X70580952Y-58481380D01*
X70485714Y-58481380D01*
X71247619Y-57481380D02*
X71866666Y-57481380D01*
X71533333Y-57862333D01*
X71676190Y-57862333D01*
X71771428Y-57909952D01*
X71819047Y-57957571D01*
X71866666Y-58052809D01*
X71866666Y-58290904D01*
X71819047Y-58386142D01*
X71771428Y-58433761D01*
X71676190Y-58481380D01*
X71390476Y-58481380D01*
X71295238Y-58433761D01*
X71247619Y-58386142D01*
X142438095Y-54352380D02*
X142438095Y-55161904D01*
X142485714Y-55257142D01*
X142533333Y-55304761D01*
X142628571Y-55352380D01*
X142819047Y-55352380D01*
X142914285Y-55304761D01*
X142961904Y-55257142D01*
X143009523Y-55161904D01*
X143009523Y-54352380D01*
X143390476Y-54352380D02*
X144009523Y-54352380D01*
X143676190Y-54733333D01*
X143819047Y-54733333D01*
X143914285Y-54780952D01*
X143961904Y-54828571D01*
X144009523Y-54923809D01*
X144009523Y-55161904D01*
X143961904Y-55257142D01*
X143914285Y-55304761D01*
X143819047Y-55352380D01*
X143533333Y-55352380D01*
X143438095Y-55304761D01*
X143390476Y-55257142D01*
X99652380Y-37696498D02*
X99176190Y-38029831D01*
X99652380Y-38267926D02*
X98652380Y-38267926D01*
X98652380Y-37886974D01*
X98700000Y-37791736D01*
X98747619Y-37744117D01*
X98842857Y-37696498D01*
X98985714Y-37696498D01*
X99080952Y-37744117D01*
X99128571Y-37791736D01*
X99176190Y-37886974D01*
X99176190Y-38267926D01*
X99652380Y-36744117D02*
X99652380Y-37315545D01*
X99652380Y-37029831D02*
X98652380Y-37029831D01*
X98795238Y-37125069D01*
X98890476Y-37220307D01*
X98938095Y-37315545D01*
X98652380Y-36410783D02*
X98652380Y-35744117D01*
X99652380Y-36172688D01*
X118541409Y-91257142D02*
X118493790Y-91304761D01*
X118350933Y-91352380D01*
X118255695Y-91352380D01*
X118112837Y-91304761D01*
X118017599Y-91209523D01*
X117969980Y-91114285D01*
X117922361Y-90923809D01*
X117922361Y-90780952D01*
X117969980Y-90590476D01*
X118017599Y-90495238D01*
X118112837Y-90400000D01*
X118255695Y-90352380D01*
X118350933Y-90352380D01*
X118493790Y-90400000D01*
X118541409Y-90447619D01*
X118874742Y-90352380D02*
X119493790Y-90352380D01*
X119160456Y-90733333D01*
X119303314Y-90733333D01*
X119398552Y-90780952D01*
X119446171Y-90828571D01*
X119493790Y-90923809D01*
X119493790Y-91161904D01*
X119446171Y-91257142D01*
X119398552Y-91304761D01*
X119303314Y-91352380D01*
X119017599Y-91352380D01*
X118922361Y-91304761D01*
X118874742Y-91257142D01*
X116533333Y-91257142D02*
X116485714Y-91304761D01*
X116342857Y-91352380D01*
X116247619Y-91352380D01*
X116104761Y-91304761D01*
X116009523Y-91209523D01*
X115961904Y-91114285D01*
X115914285Y-90923809D01*
X115914285Y-90780952D01*
X115961904Y-90590476D01*
X116009523Y-90495238D01*
X116104761Y-90400000D01*
X116247619Y-90352380D01*
X116342857Y-90352380D01*
X116485714Y-90400000D01*
X116533333Y-90447619D01*
X117390476Y-90685714D02*
X117390476Y-91352380D01*
X117152380Y-90304761D02*
X116914285Y-91019047D01*
X117533333Y-91019047D01*
X125152380Y-85161904D02*
X125961904Y-85161904D01*
X126057142Y-85114285D01*
X126104761Y-85066666D01*
X126152380Y-84971428D01*
X126152380Y-84780952D01*
X126104761Y-84685714D01*
X126057142Y-84638095D01*
X125961904Y-84590476D01*
X125152380Y-84590476D01*
X125152380Y-83685714D02*
X125152380Y-83876190D01*
X125200000Y-83971428D01*
X125247619Y-84019047D01*
X125390476Y-84114285D01*
X125580952Y-84161904D01*
X125961904Y-84161904D01*
X126057142Y-84114285D01*
X126104761Y-84066666D01*
X126152380Y-83971428D01*
X126152380Y-83780952D01*
X126104761Y-83685714D01*
X126057142Y-83638095D01*
X125961904Y-83590476D01*
X125723809Y-83590476D01*
X125628571Y-83638095D01*
X125580952Y-83685714D01*
X125533333Y-83780952D01*
X125533333Y-83971428D01*
X125580952Y-84066666D01*
X125628571Y-84114285D01*
X125723809Y-84161904D01*
X70866666Y-48743780D02*
X70866666Y-49458066D01*
X70819047Y-49600923D01*
X70723809Y-49696161D01*
X70580952Y-49743780D01*
X70485714Y-49743780D01*
X71866666Y-49743780D02*
X71295238Y-49743780D01*
X71580952Y-49743780D02*
X71580952Y-48743780D01*
X71485714Y-48886638D01*
X71390476Y-48981876D01*
X71295238Y-49029495D01*
X120456385Y-41852380D02*
X120456385Y-42661904D01*
X120504004Y-42757142D01*
X120551623Y-42804761D01*
X120646861Y-42852380D01*
X120837337Y-42852380D01*
X120932575Y-42804761D01*
X120980194Y-42757142D01*
X121027813Y-42661904D01*
X121027813Y-41852380D01*
X122027813Y-42852380D02*
X121456385Y-42852380D01*
X121742099Y-42852380D02*
X121742099Y-41852380D01*
X121646861Y-41995238D01*
X121551623Y-42090476D01*
X121456385Y-42138095D01*
X66566495Y-67954780D02*
X67137923Y-67954780D01*
X66852209Y-68954780D02*
X66852209Y-67954780D01*
X67471257Y-68954780D02*
X67471257Y-67954780D01*
X67852209Y-67954780D01*
X67947447Y-68002400D01*
X67995066Y-68050019D01*
X68042685Y-68145257D01*
X68042685Y-68288114D01*
X67995066Y-68383352D01*
X67947447Y-68430971D01*
X67852209Y-68478590D01*
X67471257Y-68478590D01*
X68376019Y-67954780D02*
X68995066Y-67954780D01*
X68661733Y-68335733D01*
X68804590Y-68335733D01*
X68899828Y-68383352D01*
X68947447Y-68430971D01*
X68995066Y-68526209D01*
X68995066Y-68764304D01*
X68947447Y-68859542D01*
X68899828Y-68907161D01*
X68804590Y-68954780D01*
X68518876Y-68954780D01*
X68423638Y-68907161D01*
X68376019Y-68859542D01*
X117438095Y-100854380D02*
X118009523Y-100854380D01*
X117723809Y-101854380D02*
X117723809Y-100854380D01*
X118342857Y-101854380D02*
X118342857Y-100854380D01*
X118723809Y-100854380D01*
X118819047Y-100902000D01*
X118866666Y-100949619D01*
X118914285Y-101044857D01*
X118914285Y-101187714D01*
X118866666Y-101282952D01*
X118819047Y-101330571D01*
X118723809Y-101378190D01*
X118342857Y-101378190D01*
X119819047Y-100854380D02*
X119342857Y-100854380D01*
X119295238Y-101330571D01*
X119342857Y-101282952D01*
X119438095Y-101235333D01*
X119676190Y-101235333D01*
X119771428Y-101282952D01*
X119819047Y-101330571D01*
X119866666Y-101425809D01*
X119866666Y-101663904D01*
X119819047Y-101759142D01*
X119771428Y-101806761D01*
X119676190Y-101854380D01*
X119438095Y-101854380D01*
X119342857Y-101806761D01*
X119295238Y-101759142D01*
D14*
X119878571Y-99126190D02*
X119711904Y-98888095D01*
X119592857Y-99126190D02*
X119592857Y-98626190D01*
X119783333Y-98626190D01*
X119830952Y-98650000D01*
X119854761Y-98673809D01*
X119878571Y-98721428D01*
X119878571Y-98792857D01*
X119854761Y-98840476D01*
X119830952Y-98864285D01*
X119783333Y-98888095D01*
X119592857Y-98888095D01*
X120045238Y-98626190D02*
X120354761Y-98626190D01*
X120188095Y-98816666D01*
X120259523Y-98816666D01*
X120307142Y-98840476D01*
X120330952Y-98864285D01*
X120354761Y-98911904D01*
X120354761Y-99030952D01*
X120330952Y-99078571D01*
X120307142Y-99102380D01*
X120259523Y-99126190D01*
X120116666Y-99126190D01*
X120069047Y-99102380D01*
X120045238Y-99078571D01*
X120783333Y-98626190D02*
X120688095Y-98626190D01*
X120640476Y-98650000D01*
X120616666Y-98673809D01*
X120569047Y-98745238D01*
X120545238Y-98840476D01*
X120545238Y-99030952D01*
X120569047Y-99078571D01*
X120592857Y-99102380D01*
X120640476Y-99126190D01*
X120735714Y-99126190D01*
X120783333Y-99102380D01*
X120807142Y-99078571D01*
X120830952Y-99030952D01*
X120830952Y-98911904D01*
X120807142Y-98864285D01*
X120783333Y-98840476D01*
X120735714Y-98816666D01*
X120640476Y-98816666D01*
X120592857Y-98840476D01*
X120569047Y-98864285D01*
X120545238Y-98911904D01*
D12*
X130010342Y-95693357D02*
X130057961Y-95740976D01*
X130105580Y-95883833D01*
X130105580Y-95979071D01*
X130057961Y-96121928D01*
X129962723Y-96217166D01*
X129867485Y-96264785D01*
X129677009Y-96312404D01*
X129534152Y-96312404D01*
X129343676Y-96264785D01*
X129248438Y-96217166D01*
X129153200Y-96121928D01*
X129105580Y-95979071D01*
X129105580Y-95883833D01*
X129153200Y-95740976D01*
X129200819Y-95693357D01*
X130105580Y-94740976D02*
X130105580Y-95312404D01*
X130105580Y-95026690D02*
X129105580Y-95026690D01*
X129248438Y-95121928D01*
X129343676Y-95217166D01*
X129391295Y-95312404D01*
X129105580Y-93883833D02*
X129105580Y-94074309D01*
X129153200Y-94169547D01*
X129200819Y-94217166D01*
X129343676Y-94312404D01*
X129534152Y-94360023D01*
X129915104Y-94360023D01*
X130010342Y-94312404D01*
X130057961Y-94264785D01*
X130105580Y-94169547D01*
X130105580Y-93979071D01*
X130057961Y-93883833D01*
X130010342Y-93836214D01*
X129915104Y-93788595D01*
X129677009Y-93788595D01*
X129581771Y-93836214D01*
X129534152Y-93883833D01*
X129486533Y-93979071D01*
X129486533Y-94169547D01*
X129534152Y-94264785D01*
X129581771Y-94312404D01*
X129677009Y-94360023D01*
X134482380Y-38066666D02*
X134006190Y-38400000D01*
X134482380Y-38638095D02*
X133482380Y-38638095D01*
X133482380Y-38257142D01*
X133530000Y-38161904D01*
X133577619Y-38114285D01*
X133672857Y-38066666D01*
X133815714Y-38066666D01*
X133910952Y-38114285D01*
X133958571Y-38161904D01*
X134006190Y-38257142D01*
X134006190Y-38638095D01*
X133482380Y-37733333D02*
X133482380Y-37114285D01*
X133863333Y-37447619D01*
X133863333Y-37304761D01*
X133910952Y-37209523D01*
X133958571Y-37161904D01*
X134053809Y-37114285D01*
X134291904Y-37114285D01*
X134387142Y-37161904D01*
X134434761Y-37209523D01*
X134482380Y-37304761D01*
X134482380Y-37590476D01*
X134434761Y-37685714D01*
X134387142Y-37733333D01*
X140951866Y-48762380D02*
X140951866Y-49476666D01*
X140904247Y-49619523D01*
X140809009Y-49714761D01*
X140666152Y-49762380D01*
X140570914Y-49762380D01*
X141475676Y-49762380D02*
X141666152Y-49762380D01*
X141761390Y-49714761D01*
X141809009Y-49667142D01*
X141904247Y-49524285D01*
X141951866Y-49333809D01*
X141951866Y-48952857D01*
X141904247Y-48857619D01*
X141856628Y-48810000D01*
X141761390Y-48762380D01*
X141570914Y-48762380D01*
X141475676Y-48810000D01*
X141428057Y-48857619D01*
X141380438Y-48952857D01*
X141380438Y-49190952D01*
X141428057Y-49286190D01*
X141475676Y-49333809D01*
X141570914Y-49381428D01*
X141761390Y-49381428D01*
X141856628Y-49333809D01*
X141904247Y-49286190D01*
X141951866Y-49190952D01*
X125822380Y-89542857D02*
X125346190Y-89876190D01*
X125822380Y-90114285D02*
X124822380Y-90114285D01*
X124822380Y-89733333D01*
X124870000Y-89638095D01*
X124917619Y-89590476D01*
X125012857Y-89542857D01*
X125155714Y-89542857D01*
X125250952Y-89590476D01*
X125298571Y-89638095D01*
X125346190Y-89733333D01*
X125346190Y-90114285D01*
X125822380Y-88590476D02*
X125822380Y-89161904D01*
X125822380Y-88876190D02*
X124822380Y-88876190D01*
X124965238Y-88971428D01*
X125060476Y-89066666D01*
X125108095Y-89161904D01*
X124822380Y-88257142D02*
X124822380Y-87638095D01*
X125203333Y-87971428D01*
X125203333Y-87828571D01*
X125250952Y-87733333D01*
X125298571Y-87685714D01*
X125393809Y-87638095D01*
X125631904Y-87638095D01*
X125727142Y-87685714D01*
X125774761Y-87733333D01*
X125822380Y-87828571D01*
X125822380Y-88114285D01*
X125774761Y-88209523D01*
X125727142Y-88257142D01*
X120438095Y-51852380D02*
X120438095Y-52661904D01*
X120485714Y-52757142D01*
X120533333Y-52804761D01*
X120628571Y-52852380D01*
X120819047Y-52852380D01*
X120914285Y-52804761D01*
X120961904Y-52757142D01*
X121009523Y-52661904D01*
X121009523Y-51852380D01*
X121438095Y-51947619D02*
X121485714Y-51900000D01*
X121580952Y-51852380D01*
X121819047Y-51852380D01*
X121914285Y-51900000D01*
X121961904Y-51947619D01*
X122009523Y-52042857D01*
X122009523Y-52138095D01*
X121961904Y-52280952D01*
X121390476Y-52852380D01*
X122009523Y-52852380D01*
X122889180Y-77647657D02*
X122412990Y-77980990D01*
X122889180Y-78219085D02*
X121889180Y-78219085D01*
X121889180Y-77838133D01*
X121936800Y-77742895D01*
X121984419Y-77695276D01*
X122079657Y-77647657D01*
X122222514Y-77647657D01*
X122317752Y-77695276D01*
X122365371Y-77742895D01*
X122412990Y-77838133D01*
X122412990Y-78219085D01*
X122889180Y-76695276D02*
X122889180Y-77266704D01*
X122889180Y-76980990D02*
X121889180Y-76980990D01*
X122032038Y-77076228D01*
X122127276Y-77171466D01*
X122174895Y-77266704D01*
X121889180Y-75838133D02*
X121889180Y-76028609D01*
X121936800Y-76123847D01*
X121984419Y-76171466D01*
X122127276Y-76266704D01*
X122317752Y-76314323D01*
X122698704Y-76314323D01*
X122793942Y-76266704D01*
X122841561Y-76219085D01*
X122889180Y-76123847D01*
X122889180Y-75933371D01*
X122841561Y-75838133D01*
X122793942Y-75790514D01*
X122698704Y-75742895D01*
X122460609Y-75742895D01*
X122365371Y-75790514D01*
X122317752Y-75838133D01*
X122270133Y-75933371D01*
X122270133Y-76123847D01*
X122317752Y-76219085D01*
X122365371Y-76266704D01*
X122460609Y-76314323D01*
X115557142Y-66597142D02*
X115509523Y-66644761D01*
X115366666Y-66692380D01*
X115271428Y-66692380D01*
X115128571Y-66644761D01*
X115033333Y-66549523D01*
X114985714Y-66454285D01*
X114938095Y-66263809D01*
X114938095Y-66120952D01*
X114985714Y-65930476D01*
X115033333Y-65835238D01*
X115128571Y-65740000D01*
X115271428Y-65692380D01*
X115366666Y-65692380D01*
X115509523Y-65740000D01*
X115557142Y-65787619D01*
X116509523Y-66692380D02*
X115938095Y-66692380D01*
X116223809Y-66692380D02*
X116223809Y-65692380D01*
X116128571Y-65835238D01*
X116033333Y-65930476D01*
X115938095Y-65978095D01*
X117414285Y-65692380D02*
X116938095Y-65692380D01*
X116890476Y-66168571D01*
X116938095Y-66120952D01*
X117033333Y-66073333D01*
X117271428Y-66073333D01*
X117366666Y-66120952D01*
X117414285Y-66168571D01*
X117461904Y-66263809D01*
X117461904Y-66501904D01*
X117414285Y-66597142D01*
X117366666Y-66644761D01*
X117271428Y-66692380D01*
X117033333Y-66692380D01*
X116938095Y-66644761D01*
X116890476Y-66597142D01*
X115982380Y-96532857D02*
X115506190Y-96866190D01*
X115982380Y-97104285D02*
X114982380Y-97104285D01*
X114982380Y-96723333D01*
X115030000Y-96628095D01*
X115077619Y-96580476D01*
X115172857Y-96532857D01*
X115315714Y-96532857D01*
X115410952Y-96580476D01*
X115458571Y-96628095D01*
X115506190Y-96723333D01*
X115506190Y-97104285D01*
X115982380Y-95580476D02*
X115982380Y-96151904D01*
X115982380Y-95866190D02*
X114982380Y-95866190D01*
X115125238Y-95961428D01*
X115220476Y-96056666D01*
X115268095Y-96151904D01*
X114982380Y-94961428D02*
X114982380Y-94866190D01*
X115030000Y-94770952D01*
X115077619Y-94723333D01*
X115172857Y-94675714D01*
X115363333Y-94628095D01*
X115601428Y-94628095D01*
X115791904Y-94675714D01*
X115887142Y-94723333D01*
X115934761Y-94770952D01*
X115982380Y-94866190D01*
X115982380Y-94961428D01*
X115934761Y-95056666D01*
X115887142Y-95104285D01*
X115791904Y-95151904D01*
X115601428Y-95199523D01*
X115363333Y-95199523D01*
X115172857Y-95151904D01*
X115077619Y-95104285D01*
X115030000Y-95056666D01*
X114982380Y-94961428D01*
X120152380Y-93661904D02*
X120961904Y-93661904D01*
X121057142Y-93614285D01*
X121104761Y-93566666D01*
X121152380Y-93471428D01*
X121152380Y-93280952D01*
X121104761Y-93185714D01*
X121057142Y-93138095D01*
X120961904Y-93090476D01*
X120152380Y-93090476D01*
X121152380Y-92566666D02*
X121152380Y-92376190D01*
X121104761Y-92280952D01*
X121057142Y-92233333D01*
X120914285Y-92138095D01*
X120723809Y-92090476D01*
X120342857Y-92090476D01*
X120247619Y-92138095D01*
X120200000Y-92185714D01*
X120152380Y-92280952D01*
X120152380Y-92471428D01*
X120200000Y-92566666D01*
X120247619Y-92614285D01*
X120342857Y-92661904D01*
X120580952Y-92661904D01*
X120676190Y-92614285D01*
X120723809Y-92566666D01*
X120771428Y-92471428D01*
X120771428Y-92280952D01*
X120723809Y-92185714D01*
X120676190Y-92138095D01*
X120580952Y-92090476D01*
X67620380Y-64228095D02*
X66620380Y-64228095D01*
X66620380Y-63990000D01*
X66668000Y-63847142D01*
X66763238Y-63751904D01*
X66858476Y-63704285D01*
X67048952Y-63656666D01*
X67191809Y-63656666D01*
X67382285Y-63704285D01*
X67477523Y-63751904D01*
X67572761Y-63847142D01*
X67620380Y-63990000D01*
X67620380Y-64228095D01*
X66715619Y-63275714D02*
X66668000Y-63228095D01*
X66620380Y-63132857D01*
X66620380Y-62894761D01*
X66668000Y-62799523D01*
X66715619Y-62751904D01*
X66810857Y-62704285D01*
X66906095Y-62704285D01*
X67048952Y-62751904D01*
X67620380Y-63323333D01*
X67620380Y-62704285D01*
X126557142Y-104757142D02*
X126509523Y-104804761D01*
X126366666Y-104852380D01*
X126271428Y-104852380D01*
X126128571Y-104804761D01*
X126033333Y-104709523D01*
X125985714Y-104614285D01*
X125938095Y-104423809D01*
X125938095Y-104280952D01*
X125985714Y-104090476D01*
X126033333Y-103995238D01*
X126128571Y-103900000D01*
X126271428Y-103852380D01*
X126366666Y-103852380D01*
X126509523Y-103900000D01*
X126557142Y-103947619D01*
X126938095Y-103947619D02*
X126985714Y-103900000D01*
X127080952Y-103852380D01*
X127319047Y-103852380D01*
X127414285Y-103900000D01*
X127461904Y-103947619D01*
X127509523Y-104042857D01*
X127509523Y-104138095D01*
X127461904Y-104280952D01*
X126890476Y-104852380D01*
X127509523Y-104852380D01*
X128461904Y-104852380D02*
X127890476Y-104852380D01*
X128176190Y-104852380D02*
X128176190Y-103852380D01*
X128080952Y-103995238D01*
X127985714Y-104090476D01*
X127890476Y-104138095D01*
X66848980Y-93233333D02*
X67563266Y-93233333D01*
X67706123Y-93280952D01*
X67801361Y-93376190D01*
X67848980Y-93519047D01*
X67848980Y-93614285D01*
X66944219Y-92804761D02*
X66896600Y-92757142D01*
X66848980Y-92661904D01*
X66848980Y-92423809D01*
X66896600Y-92328571D01*
X66944219Y-92280952D01*
X67039457Y-92233333D01*
X67134695Y-92233333D01*
X67277552Y-92280952D01*
X67848980Y-92852380D01*
X67848980Y-92233333D01*
X127533333Y-75257142D02*
X127485714Y-75304761D01*
X127342857Y-75352380D01*
X127247619Y-75352380D01*
X127104761Y-75304761D01*
X127009523Y-75209523D01*
X126961904Y-75114285D01*
X126914285Y-74923809D01*
X126914285Y-74780952D01*
X126961904Y-74590476D01*
X127009523Y-74495238D01*
X127104761Y-74400000D01*
X127247619Y-74352380D01*
X127342857Y-74352380D01*
X127485714Y-74400000D01*
X127533333Y-74447619D01*
X128009523Y-75352380D02*
X128200000Y-75352380D01*
X128295238Y-75304761D01*
X128342857Y-75257142D01*
X128438095Y-75114285D01*
X128485714Y-74923809D01*
X128485714Y-74542857D01*
X128438095Y-74447619D01*
X128390476Y-74400000D01*
X128295238Y-74352380D01*
X128104761Y-74352380D01*
X128009523Y-74400000D01*
X127961904Y-74447619D01*
X127914285Y-74542857D01*
X127914285Y-74780952D01*
X127961904Y-74876190D01*
X128009523Y-74923809D01*
X128104761Y-74971428D01*
X128295238Y-74971428D01*
X128390476Y-74923809D01*
X128438095Y-74876190D01*
X128485714Y-74780952D01*
X115557142Y-64257142D02*
X115509523Y-64304761D01*
X115366666Y-64352380D01*
X115271428Y-64352380D01*
X115128571Y-64304761D01*
X115033333Y-64209523D01*
X114985714Y-64114285D01*
X114938095Y-63923809D01*
X114938095Y-63780952D01*
X114985714Y-63590476D01*
X115033333Y-63495238D01*
X115128571Y-63400000D01*
X115271428Y-63352380D01*
X115366666Y-63352380D01*
X115509523Y-63400000D01*
X115557142Y-63447619D01*
X116509523Y-64352380D02*
X115938095Y-64352380D01*
X116223809Y-64352380D02*
X116223809Y-63352380D01*
X116128571Y-63495238D01*
X116033333Y-63590476D01*
X115938095Y-63638095D01*
X116890476Y-63447619D02*
X116938095Y-63400000D01*
X117033333Y-63352380D01*
X117271428Y-63352380D01*
X117366666Y-63400000D01*
X117414285Y-63447619D01*
X117461904Y-63542857D01*
X117461904Y-63638095D01*
X117414285Y-63780952D01*
X116842857Y-64352380D01*
X117461904Y-64352380D01*
X72273495Y-104785580D02*
X72273495Y-103785580D01*
X72273495Y-104261771D02*
X72844923Y-104261771D01*
X72844923Y-104785580D02*
X72844923Y-103785580D01*
X73225876Y-103785580D02*
X73844923Y-103785580D01*
X73511590Y-104166533D01*
X73654447Y-104166533D01*
X73749685Y-104214152D01*
X73797304Y-104261771D01*
X73844923Y-104357009D01*
X73844923Y-104595104D01*
X73797304Y-104690342D01*
X73749685Y-104737961D01*
X73654447Y-104785580D01*
X73368733Y-104785580D01*
X73273495Y-104737961D01*
X73225876Y-104690342D01*
X121033333Y-69257142D02*
X120985714Y-69304761D01*
X120842857Y-69352380D01*
X120747619Y-69352380D01*
X120604761Y-69304761D01*
X120509523Y-69209523D01*
X120461904Y-69114285D01*
X120414285Y-68923809D01*
X120414285Y-68780952D01*
X120461904Y-68590476D01*
X120509523Y-68495238D01*
X120604761Y-68400000D01*
X120747619Y-68352380D01*
X120842857Y-68352380D01*
X120985714Y-68400000D01*
X121033333Y-68447619D01*
X121890476Y-68352380D02*
X121700000Y-68352380D01*
X121604761Y-68400000D01*
X121557142Y-68447619D01*
X121461904Y-68590476D01*
X121414285Y-68780952D01*
X121414285Y-69161904D01*
X121461904Y-69257142D01*
X121509523Y-69304761D01*
X121604761Y-69352380D01*
X121795238Y-69352380D01*
X121890476Y-69304761D01*
X121938095Y-69257142D01*
X121985714Y-69161904D01*
X121985714Y-68923809D01*
X121938095Y-68828571D01*
X121890476Y-68780952D01*
X121795238Y-68733333D01*
X121604761Y-68733333D01*
X121509523Y-68780952D01*
X121461904Y-68828571D01*
X121414285Y-68923809D01*
D15*
X79533333Y-40042857D02*
X79485714Y-40061904D01*
X79342857Y-40080952D01*
X79247619Y-40080952D01*
X79104761Y-40061904D01*
X79009523Y-40023809D01*
X78961904Y-39985714D01*
X78914285Y-39909523D01*
X78914285Y-39852380D01*
X78961904Y-39776190D01*
X79009523Y-39738095D01*
X79104761Y-39700000D01*
X79247619Y-39680952D01*
X79342857Y-39680952D01*
X79485714Y-39700000D01*
X79533333Y-39719047D01*
X80438095Y-39680952D02*
X79961904Y-39680952D01*
X79914285Y-39871428D01*
X79961904Y-39852380D01*
X80057142Y-39833333D01*
X80295238Y-39833333D01*
X80390476Y-39852380D01*
X80438095Y-39871428D01*
X80485714Y-39909523D01*
X80485714Y-40004761D01*
X80438095Y-40042857D01*
X80390476Y-40061904D01*
X80295238Y-40080952D01*
X80057142Y-40080952D01*
X79961904Y-40061904D01*
X79914285Y-40042857D01*
D12*
X116057142Y-87042857D02*
X116104761Y-87090476D01*
X116152380Y-87233333D01*
X116152380Y-87328571D01*
X116104761Y-87471428D01*
X116009523Y-87566666D01*
X115914285Y-87614285D01*
X115723809Y-87661904D01*
X115580952Y-87661904D01*
X115390476Y-87614285D01*
X115295238Y-87566666D01*
X115200000Y-87471428D01*
X115152380Y-87328571D01*
X115152380Y-87233333D01*
X115200000Y-87090476D01*
X115247619Y-87042857D01*
X116152380Y-86090476D02*
X116152380Y-86661904D01*
X116152380Y-86376190D02*
X115152380Y-86376190D01*
X115295238Y-86471428D01*
X115390476Y-86566666D01*
X115438095Y-86661904D01*
X115485714Y-85233333D02*
X116152380Y-85233333D01*
X115104761Y-85471428D02*
X115819047Y-85709523D01*
X115819047Y-85090476D01*
X119033333Y-47757142D02*
X118985714Y-47804761D01*
X118842857Y-47852380D01*
X118747619Y-47852380D01*
X118604761Y-47804761D01*
X118509523Y-47709523D01*
X118461904Y-47614285D01*
X118414285Y-47423809D01*
X118414285Y-47280952D01*
X118461904Y-47090476D01*
X118509523Y-46995238D01*
X118604761Y-46900000D01*
X118747619Y-46852380D01*
X118842857Y-46852380D01*
X118985714Y-46900000D01*
X119033333Y-46947619D01*
X119985714Y-47852380D02*
X119414285Y-47852380D01*
X119700000Y-47852380D02*
X119700000Y-46852380D01*
X119604761Y-46995238D01*
X119509523Y-47090476D01*
X119414285Y-47138095D01*
X120461904Y-61952380D02*
X120461904Y-62761904D01*
X120509523Y-62857142D01*
X120557142Y-62904761D01*
X120652380Y-62952380D01*
X120842857Y-62952380D01*
X120938095Y-62904761D01*
X120985714Y-62857142D01*
X121033333Y-62761904D01*
X121033333Y-61952380D01*
X122033333Y-62952380D02*
X121461904Y-62952380D01*
X121747619Y-62952380D02*
X121747619Y-61952380D01*
X121652380Y-62095238D01*
X121557142Y-62190476D01*
X121461904Y-62238095D01*
X122414285Y-62047619D02*
X122461904Y-62000000D01*
X122557142Y-61952380D01*
X122795238Y-61952380D01*
X122890476Y-62000000D01*
X122938095Y-62047619D01*
X122985714Y-62142857D01*
X122985714Y-62238095D01*
X122938095Y-62380952D01*
X122366666Y-62952380D01*
X122985714Y-62952380D01*
X73652380Y-42638095D02*
X74461904Y-42638095D01*
X74557142Y-42590476D01*
X74604761Y-42542857D01*
X74652380Y-42447619D01*
X74652380Y-42257142D01*
X74604761Y-42161904D01*
X74557142Y-42114285D01*
X74461904Y-42066666D01*
X73652380Y-42066666D01*
X74652380Y-41066666D02*
X74652380Y-41638095D01*
X74652380Y-41352380D02*
X73652380Y-41352380D01*
X73795238Y-41447619D01*
X73890476Y-41542857D01*
X73938095Y-41638095D01*
X74080952Y-40495238D02*
X74033333Y-40590476D01*
X73985714Y-40638095D01*
X73890476Y-40685714D01*
X73842857Y-40685714D01*
X73747619Y-40638095D01*
X73700000Y-40590476D01*
X73652380Y-40495238D01*
X73652380Y-40304761D01*
X73700000Y-40209523D01*
X73747619Y-40161904D01*
X73842857Y-40114285D01*
X73890476Y-40114285D01*
X73985714Y-40161904D01*
X74033333Y-40209523D01*
X74080952Y-40304761D01*
X74080952Y-40495238D01*
X74128571Y-40590476D01*
X74176190Y-40638095D01*
X74271428Y-40685714D01*
X74461904Y-40685714D01*
X74557142Y-40638095D01*
X74604761Y-40590476D01*
X74652380Y-40495238D01*
X74652380Y-40304761D01*
X74604761Y-40209523D01*
X74557142Y-40161904D01*
X74461904Y-40114285D01*
X74271428Y-40114285D01*
X74176190Y-40161904D01*
X74128571Y-40209523D01*
X74080952Y-40304761D01*
X69245980Y-63000266D02*
X68769790Y-63333600D01*
X69245980Y-63571695D02*
X68245980Y-63571695D01*
X68245980Y-63190742D01*
X68293600Y-63095504D01*
X68341219Y-63047885D01*
X68436457Y-63000266D01*
X68579314Y-63000266D01*
X68674552Y-63047885D01*
X68722171Y-63095504D01*
X68769790Y-63190742D01*
X68769790Y-63571695D01*
X69245980Y-62047885D02*
X69245980Y-62619314D01*
X69245980Y-62333600D02*
X68245980Y-62333600D01*
X68388838Y-62428838D01*
X68484076Y-62524076D01*
X68531695Y-62619314D01*
X123057142Y-104757142D02*
X123009523Y-104804761D01*
X122866666Y-104852380D01*
X122771428Y-104852380D01*
X122628571Y-104804761D01*
X122533333Y-104709523D01*
X122485714Y-104614285D01*
X122438095Y-104423809D01*
X122438095Y-104280952D01*
X122485714Y-104090476D01*
X122533333Y-103995238D01*
X122628571Y-103900000D01*
X122771428Y-103852380D01*
X122866666Y-103852380D01*
X123009523Y-103900000D01*
X123057142Y-103947619D01*
X124009523Y-104852380D02*
X123438095Y-104852380D01*
X123723809Y-104852380D02*
X123723809Y-103852380D01*
X123628571Y-103995238D01*
X123533333Y-104090476D01*
X123438095Y-104138095D01*
X124485714Y-104852380D02*
X124676190Y-104852380D01*
X124771428Y-104804761D01*
X124819047Y-104757142D01*
X124914285Y-104614285D01*
X124961904Y-104423809D01*
X124961904Y-104042857D01*
X124914285Y-103947619D01*
X124866666Y-103900000D01*
X124771428Y-103852380D01*
X124580952Y-103852380D01*
X124485714Y-103900000D01*
X124438095Y-103947619D01*
X124390476Y-104042857D01*
X124390476Y-104280952D01*
X124438095Y-104376190D01*
X124485714Y-104423809D01*
X124580952Y-104471428D01*
X124771428Y-104471428D01*
X124866666Y-104423809D01*
X124914285Y-104376190D01*
X124961904Y-104280952D01*
X119855097Y-74757142D02*
X119807478Y-74804761D01*
X119664621Y-74852380D01*
X119569383Y-74852380D01*
X119426525Y-74804761D01*
X119331287Y-74709523D01*
X119283668Y-74614285D01*
X119236049Y-74423809D01*
X119236049Y-74280952D01*
X119283668Y-74090476D01*
X119331287Y-73995238D01*
X119426525Y-73900000D01*
X119569383Y-73852380D01*
X119664621Y-73852380D01*
X119807478Y-73900000D01*
X119855097Y-73947619D01*
X120426525Y-74280952D02*
X120331287Y-74233333D01*
X120283668Y-74185714D01*
X120236049Y-74090476D01*
X120236049Y-74042857D01*
X120283668Y-73947619D01*
X120331287Y-73900000D01*
X120426525Y-73852380D01*
X120617002Y-73852380D01*
X120712240Y-73900000D01*
X120759859Y-73947619D01*
X120807478Y-74042857D01*
X120807478Y-74090476D01*
X120759859Y-74185714D01*
X120712240Y-74233333D01*
X120617002Y-74280952D01*
X120426525Y-74280952D01*
X120331287Y-74328571D01*
X120283668Y-74376190D01*
X120236049Y-74471428D01*
X120236049Y-74661904D01*
X120283668Y-74757142D01*
X120331287Y-74804761D01*
X120426525Y-74852380D01*
X120617002Y-74852380D01*
X120712240Y-74804761D01*
X120759859Y-74757142D01*
X120807478Y-74661904D01*
X120807478Y-74471428D01*
X120759859Y-74376190D01*
X120712240Y-74328571D01*
X120617002Y-74280952D01*
D16*
X75850000Y-81800000D02*
X75850000Y-80800000D01*
X75850000Y-59000000D02*
X79630000Y-59000000D01*
X109770000Y-59000000D02*
X109770000Y-60000000D01*
X114700000Y-91900000D02*
X114700000Y-43900000D01*
X79630000Y-81800000D02*
X79630000Y-80800000D01*
X111200000Y-40400000D02*
X78200000Y-40400000D01*
X78200000Y-95400000D02*
X111200000Y-95400000D01*
X75850000Y-81800000D02*
X79630000Y-81800000D01*
X113550000Y-59000000D02*
X113550000Y-60000000D01*
X113550000Y-81800000D02*
X113550000Y-80800000D01*
X74700000Y-43900000D02*
X74700000Y-91900000D01*
X109770000Y-81800000D02*
X109770000Y-80800000D01*
X109770000Y-59000000D02*
X113550000Y-59000000D01*
X109770000Y-81800000D02*
X113550000Y-81800000D01*
X78200000Y-95400000D02*
G75*
G02*
X74700000Y-91900000I0J3500000D01*
G01*
X111200000Y-40400000D02*
G75*
G02*
X114700000Y-43900000I0J-3500000D01*
G01*
X74700000Y-43900000D02*
G75*
G02*
X78200000Y-40400000I3500000J0D01*
G01*
X114700000Y-91900000D02*
G75*
G02*
X111200000Y-95400000I-3500000J0D01*
G01*
D17*
X96822456Y-66446882D02*
X96766999Y-66419232D01*
X96766999Y-66419232D02*
X96718052Y-66368320D01*
X96718052Y-66368320D02*
X96704571Y-66349462D01*
X96704571Y-66349462D02*
X96689886Y-66324785D01*
X96689886Y-66324785D02*
X96680358Y-66297984D01*
X96680358Y-66297984D02*
X96674907Y-66262213D01*
X96674907Y-66262213D02*
X96672453Y-66210631D01*
X96672453Y-66210631D02*
X96671914Y-66142533D01*
X96671914Y-66142533D02*
X96674348Y-66049212D01*
X96674348Y-66049212D02*
X96682806Y-65979143D01*
X96682806Y-65979143D02*
X96699026Y-65926869D01*
X96699026Y-65926869D02*
X96724746Y-65886931D01*
X96724746Y-65886931D02*
X96761703Y-65853871D01*
X96761703Y-65853871D02*
X96764418Y-65851914D01*
X96764418Y-65851914D02*
X96800840Y-65831892D01*
X96800840Y-65831892D02*
X96844698Y-65821985D01*
X96844698Y-65821985D02*
X96900476Y-65819543D01*
X96900476Y-65819543D02*
X96991152Y-65819543D01*
X96991152Y-65819543D02*
X96991190Y-65731517D01*
X96991190Y-65731517D02*
X96992034Y-65682492D01*
X96992034Y-65682492D02*
X96997176Y-65653735D01*
X96997176Y-65653735D02*
X97010613Y-65636489D01*
X97010613Y-65636489D02*
X97036342Y-65621992D01*
X97036342Y-65621992D02*
X97042521Y-65619031D01*
X97042521Y-65619031D02*
X97071436Y-65605152D01*
X97071436Y-65605152D02*
X97093824Y-65596386D01*
X97093824Y-65596386D02*
X97110471Y-65595629D01*
X97110471Y-65595629D02*
X97122164Y-65605777D01*
X97122164Y-65605777D02*
X97129690Y-65629727D01*
X97129690Y-65629727D02*
X97133834Y-65670374D01*
X97133834Y-65670374D02*
X97135385Y-65730614D01*
X97135385Y-65730614D02*
X97135129Y-65813345D01*
X97135129Y-65813345D02*
X97133851Y-65921461D01*
X97133851Y-65921461D02*
X97133452Y-65953800D01*
X97133452Y-65953800D02*
X97132015Y-66065276D01*
X97132015Y-66065276D02*
X97130728Y-66138197D01*
X97130728Y-66138197D02*
X96991229Y-66138197D01*
X96991229Y-66138197D02*
X96990445Y-66076301D01*
X96990445Y-66076301D02*
X96986960Y-66035803D01*
X96986960Y-66035803D02*
X96979076Y-66009092D01*
X96979076Y-66009092D02*
X96965095Y-65988556D01*
X96965095Y-65988556D02*
X96955603Y-65978540D01*
X96955603Y-65978540D02*
X96916796Y-65949233D01*
X96916796Y-65949233D02*
X96882437Y-65946848D01*
X96882437Y-65946848D02*
X96846984Y-65971050D01*
X96846984Y-65971050D02*
X96846086Y-65971943D01*
X96846086Y-65971943D02*
X96831661Y-65990647D01*
X96831661Y-65990647D02*
X96822887Y-66016068D01*
X96822887Y-66016068D02*
X96818461Y-66055216D01*
X96818461Y-66055216D02*
X96817082Y-66115103D01*
X96817082Y-66115103D02*
X96817057Y-66128370D01*
X96817057Y-66128370D02*
X96820388Y-66210899D01*
X96820388Y-66210899D02*
X96831231Y-66268109D01*
X96831231Y-66268109D02*
X96850860Y-66303034D01*
X96850860Y-66303034D02*
X96880550Y-66318706D01*
X96880550Y-66318706D02*
X96897709Y-66320286D01*
X96897709Y-66320286D02*
X96938434Y-66312874D01*
X96938434Y-66312874D02*
X96966368Y-66288470D01*
X96966368Y-66288470D02*
X96983183Y-66243820D01*
X96983183Y-66243820D02*
X96990550Y-66175670D01*
X96990550Y-66175670D02*
X96991229Y-66138197D01*
X96991229Y-66138197D02*
X97130728Y-66138197D01*
X97130728Y-66138197D02*
X97130492Y-66151555D01*
X97130492Y-66151555D02*
X97128523Y-66216467D01*
X97128523Y-66216467D02*
X97125750Y-66263842D01*
X97125750Y-66263842D02*
X97121812Y-66297510D01*
X97121812Y-66297510D02*
X97116351Y-66321302D01*
X97116351Y-66321302D02*
X97109008Y-66339047D01*
X97109008Y-66339047D02*
X97099423Y-66354576D01*
X97099423Y-66354576D02*
X97095313Y-66360419D01*
X97095313Y-66360419D02*
X97040795Y-66415615D01*
X97040795Y-66415615D02*
X96971864Y-66446910D01*
X96971864Y-66446910D02*
X96892128Y-66455635D01*
X96892128Y-66455635D02*
X96822456Y-66446882D01*
X96822456Y-66446882D02*
X96822456Y-66446882D01*
G36*
X97128523Y-66216467D02*
G01*
X97125750Y-66263842D01*
X97121812Y-66297510D01*
X97116351Y-66321302D01*
X97109008Y-66339047D01*
X97099423Y-66354576D01*
X97095313Y-66360419D01*
X97040795Y-66415615D01*
X96971864Y-66446910D01*
X96892128Y-66455635D01*
X96822456Y-66446882D01*
X96766999Y-66419232D01*
X96718052Y-66368320D01*
X96704571Y-66349462D01*
X96689886Y-66324785D01*
X96680358Y-66297984D01*
X96674907Y-66262213D01*
X96672453Y-66210631D01*
X96671914Y-66142533D01*
X96672283Y-66128370D01*
X96817057Y-66128370D01*
X96820388Y-66210899D01*
X96831231Y-66268109D01*
X96850860Y-66303034D01*
X96880550Y-66318706D01*
X96897709Y-66320286D01*
X96938434Y-66312874D01*
X96966368Y-66288470D01*
X96983183Y-66243820D01*
X96990550Y-66175670D01*
X96991229Y-66138197D01*
X96990445Y-66076301D01*
X96986960Y-66035803D01*
X96979076Y-66009092D01*
X96965095Y-65988556D01*
X96955603Y-65978540D01*
X96916796Y-65949233D01*
X96882437Y-65946848D01*
X96846984Y-65971050D01*
X96846086Y-65971943D01*
X96831661Y-65990647D01*
X96822887Y-66016068D01*
X96818461Y-66055216D01*
X96817082Y-66115103D01*
X96817057Y-66128370D01*
X96672283Y-66128370D01*
X96674348Y-66049212D01*
X96682806Y-65979143D01*
X96699026Y-65926869D01*
X96724746Y-65886931D01*
X96761703Y-65853871D01*
X96764418Y-65851914D01*
X96800840Y-65831892D01*
X96844698Y-65821985D01*
X96900476Y-65819543D01*
X96991152Y-65819543D01*
X96991190Y-65731517D01*
X96992034Y-65682492D01*
X96997176Y-65653735D01*
X97010613Y-65636489D01*
X97036342Y-65621992D01*
X97042521Y-65619031D01*
X97071436Y-65605152D01*
X97093824Y-65596386D01*
X97110471Y-65595629D01*
X97122164Y-65605777D01*
X97129690Y-65629727D01*
X97133834Y-65670374D01*
X97135385Y-65730614D01*
X97135129Y-65813345D01*
X97133851Y-65921461D01*
X97133452Y-65953800D01*
X97132015Y-66065276D01*
X97130728Y-66138197D01*
X97130492Y-66151555D01*
X97128523Y-66216467D01*
G37*
X97128523Y-66216467D02*
X97125750Y-66263842D01*
X97121812Y-66297510D01*
X97116351Y-66321302D01*
X97109008Y-66339047D01*
X97099423Y-66354576D01*
X97095313Y-66360419D01*
X97040795Y-66415615D01*
X96971864Y-66446910D01*
X96892128Y-66455635D01*
X96822456Y-66446882D01*
X96766999Y-66419232D01*
X96718052Y-66368320D01*
X96704571Y-66349462D01*
X96689886Y-66324785D01*
X96680358Y-66297984D01*
X96674907Y-66262213D01*
X96672453Y-66210631D01*
X96671914Y-66142533D01*
X96672283Y-66128370D01*
X96817057Y-66128370D01*
X96820388Y-66210899D01*
X96831231Y-66268109D01*
X96850860Y-66303034D01*
X96880550Y-66318706D01*
X96897709Y-66320286D01*
X96938434Y-66312874D01*
X96966368Y-66288470D01*
X96983183Y-66243820D01*
X96990550Y-66175670D01*
X96991229Y-66138197D01*
X96990445Y-66076301D01*
X96986960Y-66035803D01*
X96979076Y-66009092D01*
X96965095Y-65988556D01*
X96955603Y-65978540D01*
X96916796Y-65949233D01*
X96882437Y-65946848D01*
X96846984Y-65971050D01*
X96846086Y-65971943D01*
X96831661Y-65990647D01*
X96822887Y-66016068D01*
X96818461Y-66055216D01*
X96817082Y-66115103D01*
X96817057Y-66128370D01*
X96672283Y-66128370D01*
X96674348Y-66049212D01*
X96682806Y-65979143D01*
X96699026Y-65926869D01*
X96724746Y-65886931D01*
X96761703Y-65853871D01*
X96764418Y-65851914D01*
X96800840Y-65831892D01*
X96844698Y-65821985D01*
X96900476Y-65819543D01*
X96991152Y-65819543D01*
X96991190Y-65731517D01*
X96992034Y-65682492D01*
X96997176Y-65653735D01*
X97010613Y-65636489D01*
X97036342Y-65621992D01*
X97042521Y-65619031D01*
X97071436Y-65605152D01*
X97093824Y-65596386D01*
X97110471Y-65595629D01*
X97122164Y-65605777D01*
X97129690Y-65629727D01*
X97133834Y-65670374D01*
X97135385Y-65730614D01*
X97135129Y-65813345D01*
X97133851Y-65921461D01*
X97133452Y-65953800D01*
X97132015Y-66065276D01*
X97130728Y-66138197D01*
X97130492Y-66151555D01*
X97128523Y-66216467D01*
X95706107Y-66439020D02*
X95659528Y-66412077D01*
X95659528Y-66412077D02*
X95627143Y-66385334D01*
X95627143Y-66385334D02*
X95603458Y-66357316D01*
X95603458Y-66357316D02*
X95587141Y-66323052D01*
X95587141Y-66323052D02*
X95576861Y-66277573D01*
X95576861Y-66277573D02*
X95571286Y-66215908D01*
X95571286Y-66215908D02*
X95569084Y-66133089D01*
X95569084Y-66133089D02*
X95568829Y-66073554D01*
X95568829Y-66073554D02*
X95568829Y-65854409D01*
X95568829Y-65854409D02*
X95630514Y-65826756D01*
X95630514Y-65826756D02*
X95692200Y-65799103D01*
X95692200Y-65799103D02*
X95699457Y-66039130D01*
X95699457Y-66039130D02*
X95702456Y-66128772D01*
X95702456Y-66128772D02*
X95705602Y-66193838D01*
X95705602Y-66193838D02*
X95709499Y-66238774D01*
X95709499Y-66238774D02*
X95714753Y-66268030D01*
X95714753Y-66268030D02*
X95721969Y-66286052D01*
X95721969Y-66286052D02*
X95731750Y-66297289D01*
X95731750Y-66297289D02*
X95734888Y-66299721D01*
X95734888Y-66299721D02*
X95782439Y-66318717D01*
X95782439Y-66318717D02*
X95830503Y-66311200D01*
X95830503Y-66311200D02*
X95859114Y-66291257D01*
X95859114Y-66291257D02*
X95870753Y-66277125D01*
X95870753Y-66277125D02*
X95878809Y-66258580D01*
X95878809Y-66258580D02*
X95883929Y-66230466D01*
X95883929Y-66230466D02*
X95886759Y-66187627D01*
X95886759Y-66187627D02*
X95887944Y-66124905D01*
X95887944Y-66124905D02*
X95888143Y-66059539D01*
X95888143Y-66059539D02*
X95888182Y-65977532D01*
X95888182Y-65977532D02*
X95889586Y-65919484D01*
X95889586Y-65919484D02*
X95894286Y-65880335D01*
X95894286Y-65880335D02*
X95904213Y-65855020D01*
X95904213Y-65855020D02*
X95921297Y-65838477D01*
X95921297Y-65838477D02*
X95947468Y-65825644D01*
X95947468Y-65825644D02*
X95982425Y-65812309D01*
X95982425Y-65812309D02*
X96020604Y-65797793D01*
X96020604Y-65797793D02*
X96016059Y-66055411D01*
X96016059Y-66055411D02*
X96014229Y-66148281D01*
X96014229Y-66148281D02*
X96012088Y-66216911D01*
X96012088Y-66216911D02*
X96009019Y-66266089D01*
X96009019Y-66266089D02*
X96004406Y-66300602D01*
X96004406Y-66300602D02*
X95997632Y-66325238D01*
X95997632Y-66325238D02*
X95988081Y-66344784D01*
X95988081Y-66344784D02*
X95976566Y-66362030D01*
X95976566Y-66362030D02*
X95921010Y-66417120D01*
X95921010Y-66417120D02*
X95853220Y-66448978D01*
X95853220Y-66448978D02*
X95779487Y-66456609D01*
X95779487Y-66456609D02*
X95706107Y-66439020D01*
X95706107Y-66439020D02*
X95706107Y-66439020D01*
G36*
X96016059Y-66055411D02*
G01*
X96014229Y-66148281D01*
X96012088Y-66216911D01*
X96009019Y-66266089D01*
X96004406Y-66300602D01*
X95997632Y-66325238D01*
X95988081Y-66344784D01*
X95976566Y-66362030D01*
X95921010Y-66417120D01*
X95853220Y-66448978D01*
X95779487Y-66456609D01*
X95706107Y-66439020D01*
X95659528Y-66412077D01*
X95627143Y-66385334D01*
X95603458Y-66357316D01*
X95587141Y-66323052D01*
X95576861Y-66277573D01*
X95571286Y-66215908D01*
X95569084Y-66133089D01*
X95568829Y-66073554D01*
X95568829Y-65854409D01*
X95630514Y-65826756D01*
X95692200Y-65799103D01*
X95699457Y-66039130D01*
X95702456Y-66128772D01*
X95705602Y-66193838D01*
X95709499Y-66238774D01*
X95714753Y-66268030D01*
X95721969Y-66286052D01*
X95731750Y-66297289D01*
X95734888Y-66299721D01*
X95782439Y-66318717D01*
X95830503Y-66311200D01*
X95859114Y-66291257D01*
X95870753Y-66277125D01*
X95878809Y-66258580D01*
X95883929Y-66230466D01*
X95886759Y-66187627D01*
X95887944Y-66124905D01*
X95888143Y-66059539D01*
X95888182Y-65977532D01*
X95889586Y-65919484D01*
X95894286Y-65880335D01*
X95904213Y-65855020D01*
X95921297Y-65838477D01*
X95947468Y-65825644D01*
X95982425Y-65812309D01*
X96020604Y-65797793D01*
X96016059Y-66055411D01*
G37*
X96016059Y-66055411D02*
X96014229Y-66148281D01*
X96012088Y-66216911D01*
X96009019Y-66266089D01*
X96004406Y-66300602D01*
X95997632Y-66325238D01*
X95988081Y-66344784D01*
X95976566Y-66362030D01*
X95921010Y-66417120D01*
X95853220Y-66448978D01*
X95779487Y-66456609D01*
X95706107Y-66439020D01*
X95659528Y-66412077D01*
X95627143Y-66385334D01*
X95603458Y-66357316D01*
X95587141Y-66323052D01*
X95576861Y-66277573D01*
X95571286Y-66215908D01*
X95569084Y-66133089D01*
X95568829Y-66073554D01*
X95568829Y-65854409D01*
X95630514Y-65826756D01*
X95692200Y-65799103D01*
X95699457Y-66039130D01*
X95702456Y-66128772D01*
X95705602Y-66193838D01*
X95709499Y-66238774D01*
X95714753Y-66268030D01*
X95721969Y-66286052D01*
X95731750Y-66297289D01*
X95734888Y-66299721D01*
X95782439Y-66318717D01*
X95830503Y-66311200D01*
X95859114Y-66291257D01*
X95870753Y-66277125D01*
X95878809Y-66258580D01*
X95883929Y-66230466D01*
X95886759Y-66187627D01*
X95887944Y-66124905D01*
X95888143Y-66059539D01*
X95888182Y-65977532D01*
X95889586Y-65919484D01*
X95894286Y-65880335D01*
X95904213Y-65855020D01*
X95921297Y-65838477D01*
X95947468Y-65825644D01*
X95982425Y-65812309D01*
X96020604Y-65797793D01*
X96016059Y-66055411D01*
X97381085Y-66444838D02*
X97313055Y-66409067D01*
X97313055Y-66409067D02*
X97262849Y-66351499D01*
X97262849Y-66351499D02*
X97245015Y-66314488D01*
X97245015Y-66314488D02*
X97231137Y-66258918D01*
X97231137Y-66258918D02*
X97224033Y-66188704D01*
X97224033Y-66188704D02*
X97223360Y-66112073D01*
X97223360Y-66112073D02*
X97228773Y-66037248D01*
X97228773Y-66037248D02*
X97239930Y-65972458D01*
X97239930Y-65972458D02*
X97256486Y-65925927D01*
X97256486Y-65925927D02*
X97261574Y-65917913D01*
X97261574Y-65917913D02*
X97321845Y-65858093D01*
X97321845Y-65858093D02*
X97393431Y-65822265D01*
X97393431Y-65822265D02*
X97471108Y-65811780D01*
X97471108Y-65811780D02*
X97549652Y-65827990D01*
X97549652Y-65827990D02*
X97571511Y-65837708D01*
X97571511Y-65837708D02*
X97614078Y-65867657D01*
X97614078Y-65867657D02*
X97651437Y-65907367D01*
X97651437Y-65907367D02*
X97654968Y-65912403D01*
X97654968Y-65912403D02*
X97669319Y-65936676D01*
X97669319Y-65936676D02*
X97678806Y-65962622D01*
X97678806Y-65962622D02*
X97684410Y-65996778D01*
X97684410Y-65996778D02*
X97687114Y-66045681D01*
X97687114Y-66045681D02*
X97687901Y-66115865D01*
X97687901Y-66115865D02*
X97687914Y-66131600D01*
X97687914Y-66131600D02*
X97687878Y-66136608D01*
X97687878Y-66136608D02*
X97542771Y-66136608D01*
X97542771Y-66136608D02*
X97541927Y-66070370D01*
X97541927Y-66070370D02*
X97538604Y-66026414D01*
X97538604Y-66026414D02*
X97531617Y-65998021D01*
X97531617Y-65998021D02*
X97519784Y-65978475D01*
X97519784Y-65978475D02*
X97513743Y-65971943D01*
X97513743Y-65971943D02*
X97479014Y-65947120D01*
X97479014Y-65947120D02*
X97445297Y-65948252D01*
X97445297Y-65948252D02*
X97411205Y-65969784D01*
X97411205Y-65969784D02*
X97390871Y-65992771D01*
X97390871Y-65992771D02*
X97378829Y-66026322D01*
X97378829Y-66026322D02*
X97372066Y-66079231D01*
X97372066Y-66079231D02*
X97371602Y-66085401D01*
X97371602Y-66085401D02*
X97370448Y-66181287D01*
X97370448Y-66181287D02*
X97382512Y-66252501D01*
X97382512Y-66252501D02*
X97407630Y-66298606D01*
X97407630Y-66298606D02*
X97445640Y-66319165D01*
X97445640Y-66319165D02*
X97459208Y-66320286D01*
X97459208Y-66320286D02*
X97494836Y-66314648D01*
X97494836Y-66314648D02*
X97519206Y-66295114D01*
X97519206Y-66295114D02*
X97534107Y-66257758D01*
X97534107Y-66257758D02*
X97541325Y-66198650D01*
X97541325Y-66198650D02*
X97542771Y-66136608D01*
X97542771Y-66136608D02*
X97687878Y-66136608D01*
X97687878Y-66136608D02*
X97687374Y-66206387D01*
X97687374Y-66206387D02*
X97685104Y-66258641D01*
X97685104Y-66258641D02*
X97680132Y-66294851D01*
X97680132Y-66294851D02*
X97671487Y-66321501D01*
X97671487Y-66321501D02*
X97658195Y-66345078D01*
X97658195Y-66345078D02*
X97655257Y-66349462D01*
X97655257Y-66349462D02*
X97605887Y-66408551D01*
X97605887Y-66408551D02*
X97552091Y-66442853D01*
X97552091Y-66442853D02*
X97486598Y-66456469D01*
X97486598Y-66456469D02*
X97464358Y-66457135D01*
X97464358Y-66457135D02*
X97381085Y-66444838D01*
X97381085Y-66444838D02*
X97381085Y-66444838D01*
G36*
X97685104Y-66258641D02*
G01*
X97680132Y-66294851D01*
X97671487Y-66321501D01*
X97658195Y-66345078D01*
X97655257Y-66349462D01*
X97605887Y-66408551D01*
X97552091Y-66442853D01*
X97486598Y-66456469D01*
X97464358Y-66457135D01*
X97381085Y-66444838D01*
X97313055Y-66409067D01*
X97262849Y-66351499D01*
X97245015Y-66314488D01*
X97231137Y-66258918D01*
X97224033Y-66188704D01*
X97223968Y-66181287D01*
X97370448Y-66181287D01*
X97382512Y-66252501D01*
X97407630Y-66298606D01*
X97445640Y-66319165D01*
X97459208Y-66320286D01*
X97494836Y-66314648D01*
X97519206Y-66295114D01*
X97534107Y-66257758D01*
X97541325Y-66198650D01*
X97542771Y-66136608D01*
X97541927Y-66070370D01*
X97538604Y-66026414D01*
X97531617Y-65998021D01*
X97519784Y-65978475D01*
X97513743Y-65971943D01*
X97479014Y-65947120D01*
X97445297Y-65948252D01*
X97411205Y-65969784D01*
X97390871Y-65992771D01*
X97378829Y-66026322D01*
X97372066Y-66079231D01*
X97371602Y-66085401D01*
X97370448Y-66181287D01*
X97223968Y-66181287D01*
X97223360Y-66112073D01*
X97228773Y-66037248D01*
X97239930Y-65972458D01*
X97256486Y-65925927D01*
X97261574Y-65917913D01*
X97321845Y-65858093D01*
X97393431Y-65822265D01*
X97471108Y-65811780D01*
X97549652Y-65827990D01*
X97571511Y-65837708D01*
X97614078Y-65867657D01*
X97651437Y-65907367D01*
X97654968Y-65912403D01*
X97669319Y-65936676D01*
X97678806Y-65962622D01*
X97684410Y-65996778D01*
X97687114Y-66045681D01*
X97687901Y-66115865D01*
X97687914Y-66131600D01*
X97687878Y-66136608D01*
X97687374Y-66206387D01*
X97685104Y-66258641D01*
G37*
X97685104Y-66258641D02*
X97680132Y-66294851D01*
X97671487Y-66321501D01*
X97658195Y-66345078D01*
X97655257Y-66349462D01*
X97605887Y-66408551D01*
X97552091Y-66442853D01*
X97486598Y-66456469D01*
X97464358Y-66457135D01*
X97381085Y-66444838D01*
X97313055Y-66409067D01*
X97262849Y-66351499D01*
X97245015Y-66314488D01*
X97231137Y-66258918D01*
X97224033Y-66188704D01*
X97223968Y-66181287D01*
X97370448Y-66181287D01*
X97382512Y-66252501D01*
X97407630Y-66298606D01*
X97445640Y-66319165D01*
X97459208Y-66320286D01*
X97494836Y-66314648D01*
X97519206Y-66295114D01*
X97534107Y-66257758D01*
X97541325Y-66198650D01*
X97542771Y-66136608D01*
X97541927Y-66070370D01*
X97538604Y-66026414D01*
X97531617Y-65998021D01*
X97519784Y-65978475D01*
X97513743Y-65971943D01*
X97479014Y-65947120D01*
X97445297Y-65948252D01*
X97411205Y-65969784D01*
X97390871Y-65992771D01*
X97378829Y-66026322D01*
X97372066Y-66079231D01*
X97371602Y-66085401D01*
X97370448Y-66181287D01*
X97223968Y-66181287D01*
X97223360Y-66112073D01*
X97228773Y-66037248D01*
X97239930Y-65972458D01*
X97256486Y-65925927D01*
X97261574Y-65917913D01*
X97321845Y-65858093D01*
X97393431Y-65822265D01*
X97471108Y-65811780D01*
X97549652Y-65827990D01*
X97571511Y-65837708D01*
X97614078Y-65867657D01*
X97651437Y-65907367D01*
X97654968Y-65912403D01*
X97669319Y-65936676D01*
X97678806Y-65962622D01*
X97684410Y-65996778D01*
X97687114Y-66045681D01*
X97687901Y-66115865D01*
X97687914Y-66131600D01*
X97687878Y-66136608D01*
X97687374Y-66206387D01*
X97685104Y-66258641D01*
X96253897Y-66435561D02*
X96196673Y-66397065D01*
X96196673Y-66397065D02*
X96152451Y-66341465D01*
X96152451Y-66341465D02*
X96126033Y-66270714D01*
X96126033Y-66270714D02*
X96120690Y-66218638D01*
X96120690Y-66218638D02*
X96121297Y-66196907D01*
X96121297Y-66196907D02*
X96126378Y-66180269D01*
X96126378Y-66180269D02*
X96140345Y-66165363D01*
X96140345Y-66165363D02*
X96167611Y-66148827D01*
X96167611Y-66148827D02*
X96212588Y-66127302D01*
X96212588Y-66127302D02*
X96279689Y-66097426D01*
X96279689Y-66097426D02*
X96280029Y-66097276D01*
X96280029Y-66097276D02*
X96341793Y-66068987D01*
X96341793Y-66068987D02*
X96392441Y-66043867D01*
X96392441Y-66043867D02*
X96426796Y-66024621D01*
X96426796Y-66024621D02*
X96439682Y-66013952D01*
X96439682Y-66013952D02*
X96439686Y-66013866D01*
X96439686Y-66013866D02*
X96428328Y-65990634D01*
X96428328Y-65990634D02*
X96401769Y-65965026D01*
X96401769Y-65965026D02*
X96371277Y-65946579D01*
X96371277Y-65946579D02*
X96355830Y-65942914D01*
X96355830Y-65942914D02*
X96313685Y-65955588D01*
X96313685Y-65955588D02*
X96277392Y-65987329D01*
X96277392Y-65987329D02*
X96259683Y-66022228D01*
X96259683Y-66022228D02*
X96242648Y-66047955D01*
X96242648Y-66047955D02*
X96209278Y-66077254D01*
X96209278Y-66077254D02*
X96170051Y-66102565D01*
X96170051Y-66102565D02*
X96135444Y-66116329D01*
X96135444Y-66116329D02*
X96128207Y-66117086D01*
X96128207Y-66117086D02*
X96120061Y-66104640D01*
X96120061Y-66104640D02*
X96119570Y-66072828D01*
X96119570Y-66072828D02*
X96125557Y-66029934D01*
X96125557Y-66029934D02*
X96136843Y-65984242D01*
X96136843Y-65984242D02*
X96152250Y-65944039D01*
X96152250Y-65944039D02*
X96153029Y-65942478D01*
X96153029Y-65942478D02*
X96199396Y-65877738D01*
X96199396Y-65877738D02*
X96259489Y-65833703D01*
X96259489Y-65833703D02*
X96327735Y-65812089D01*
X96327735Y-65812089D02*
X96398562Y-65814615D01*
X96398562Y-65814615D02*
X96466396Y-65842996D01*
X96466396Y-65842996D02*
X96469412Y-65844992D01*
X96469412Y-65844992D02*
X96522773Y-65893352D01*
X96522773Y-65893352D02*
X96557860Y-65956448D01*
X96557860Y-65956448D02*
X96577278Y-66039413D01*
X96577278Y-66039413D02*
X96579884Y-66062722D01*
X96579884Y-66062722D02*
X96584499Y-66172745D01*
X96584499Y-66172745D02*
X96578967Y-66224052D01*
X96578967Y-66224052D02*
X96439686Y-66224052D01*
X96439686Y-66224052D02*
X96437876Y-66192047D01*
X96437876Y-66192047D02*
X96427978Y-66182707D01*
X96427978Y-66182707D02*
X96403302Y-66189695D01*
X96403302Y-66189695D02*
X96364405Y-66206213D01*
X96364405Y-66206213D02*
X96320925Y-66226919D01*
X96320925Y-66226919D02*
X96319844Y-66227467D01*
X96319844Y-66227467D02*
X96282991Y-66246851D01*
X96282991Y-66246851D02*
X96268200Y-66259787D01*
X96268200Y-66259787D02*
X96271847Y-66273349D01*
X96271847Y-66273349D02*
X96287205Y-66291168D01*
X96287205Y-66291168D02*
X96326277Y-66316955D01*
X96326277Y-66316955D02*
X96368354Y-66318850D01*
X96368354Y-66318850D02*
X96406097Y-66300083D01*
X96406097Y-66300083D02*
X96432166Y-66263885D01*
X96432166Y-66263885D02*
X96439686Y-66224052D01*
X96439686Y-66224052D02*
X96578967Y-66224052D01*
X96578967Y-66224052D02*
X96575006Y-66260773D01*
X96575006Y-66260773D02*
X96550650Y-66330588D01*
X96550650Y-66330588D02*
X96516744Y-66379498D01*
X96516744Y-66379498D02*
X96455547Y-66428922D01*
X96455547Y-66428922D02*
X96388137Y-66453441D01*
X96388137Y-66453441D02*
X96319320Y-66455003D01*
X96319320Y-66455003D02*
X96253897Y-66435561D01*
X96253897Y-66435561D02*
X96253897Y-66435561D01*
G36*
X96550650Y-66330588D02*
G01*
X96516744Y-66379498D01*
X96455547Y-66428922D01*
X96388137Y-66453441D01*
X96319320Y-66455003D01*
X96253897Y-66435561D01*
X96196673Y-66397065D01*
X96152451Y-66341465D01*
X96126033Y-66270714D01*
X96124912Y-66259787D01*
X96268200Y-66259787D01*
X96271847Y-66273349D01*
X96287205Y-66291168D01*
X96326277Y-66316955D01*
X96368354Y-66318850D01*
X96406097Y-66300083D01*
X96432166Y-66263885D01*
X96439686Y-66224052D01*
X96437876Y-66192047D01*
X96427978Y-66182707D01*
X96403302Y-66189695D01*
X96364405Y-66206213D01*
X96320925Y-66226919D01*
X96319844Y-66227467D01*
X96282991Y-66246851D01*
X96268200Y-66259787D01*
X96124912Y-66259787D01*
X96120690Y-66218638D01*
X96121297Y-66196907D01*
X96126378Y-66180269D01*
X96140345Y-66165363D01*
X96167611Y-66148827D01*
X96212588Y-66127302D01*
X96279689Y-66097426D01*
X96280029Y-66097276D01*
X96341793Y-66068987D01*
X96392441Y-66043867D01*
X96426796Y-66024621D01*
X96439682Y-66013952D01*
X96439686Y-66013866D01*
X96428328Y-65990634D01*
X96401769Y-65965026D01*
X96371277Y-65946579D01*
X96355830Y-65942914D01*
X96313685Y-65955588D01*
X96277392Y-65987329D01*
X96259683Y-66022228D01*
X96242648Y-66047955D01*
X96209278Y-66077254D01*
X96170051Y-66102565D01*
X96135444Y-66116329D01*
X96128207Y-66117086D01*
X96120061Y-66104640D01*
X96119570Y-66072828D01*
X96125557Y-66029934D01*
X96136843Y-65984242D01*
X96152250Y-65944039D01*
X96153029Y-65942478D01*
X96199396Y-65877738D01*
X96259489Y-65833703D01*
X96327735Y-65812089D01*
X96398562Y-65814615D01*
X96466396Y-65842996D01*
X96469412Y-65844992D01*
X96522773Y-65893352D01*
X96557860Y-65956448D01*
X96577278Y-66039413D01*
X96579884Y-66062722D01*
X96584499Y-66172745D01*
X96578967Y-66224052D01*
X96575006Y-66260773D01*
X96550650Y-66330588D01*
G37*
X96550650Y-66330588D02*
X96516744Y-66379498D01*
X96455547Y-66428922D01*
X96388137Y-66453441D01*
X96319320Y-66455003D01*
X96253897Y-66435561D01*
X96196673Y-66397065D01*
X96152451Y-66341465D01*
X96126033Y-66270714D01*
X96124912Y-66259787D01*
X96268200Y-66259787D01*
X96271847Y-66273349D01*
X96287205Y-66291168D01*
X96326277Y-66316955D01*
X96368354Y-66318850D01*
X96406097Y-66300083D01*
X96432166Y-66263885D01*
X96439686Y-66224052D01*
X96437876Y-66192047D01*
X96427978Y-66182707D01*
X96403302Y-66189695D01*
X96364405Y-66206213D01*
X96320925Y-66226919D01*
X96319844Y-66227467D01*
X96282991Y-66246851D01*
X96268200Y-66259787D01*
X96124912Y-66259787D01*
X96120690Y-66218638D01*
X96121297Y-66196907D01*
X96126378Y-66180269D01*
X96140345Y-66165363D01*
X96167611Y-66148827D01*
X96212588Y-66127302D01*
X96279689Y-66097426D01*
X96280029Y-66097276D01*
X96341793Y-66068987D01*
X96392441Y-66043867D01*
X96426796Y-66024621D01*
X96439682Y-66013952D01*
X96439686Y-66013866D01*
X96428328Y-65990634D01*
X96401769Y-65965026D01*
X96371277Y-65946579D01*
X96355830Y-65942914D01*
X96313685Y-65955588D01*
X96277392Y-65987329D01*
X96259683Y-66022228D01*
X96242648Y-66047955D01*
X96209278Y-66077254D01*
X96170051Y-66102565D01*
X96135444Y-66116329D01*
X96128207Y-66117086D01*
X96120061Y-66104640D01*
X96119570Y-66072828D01*
X96125557Y-66029934D01*
X96136843Y-65984242D01*
X96152250Y-65944039D01*
X96153029Y-65942478D01*
X96199396Y-65877738D01*
X96259489Y-65833703D01*
X96327735Y-65812089D01*
X96398562Y-65814615D01*
X96466396Y-65842996D01*
X96469412Y-65844992D01*
X96522773Y-65893352D01*
X96557860Y-65956448D01*
X96577278Y-66039413D01*
X96579884Y-66062722D01*
X96584499Y-66172745D01*
X96578967Y-66224052D01*
X96575006Y-66260773D01*
X96550650Y-66330588D01*
X95046314Y-66515511D02*
X95042061Y-66456187D01*
X95042061Y-66456187D02*
X95037175Y-66421228D01*
X95037175Y-66421228D02*
X95030405Y-66405980D01*
X95030405Y-66405980D02*
X95020498Y-66405785D01*
X95020498Y-66405785D02*
X95017286Y-66407605D01*
X95017286Y-66407605D02*
X94974556Y-66420785D01*
X94974556Y-66420785D02*
X94918973Y-66420015D01*
X94918973Y-66420015D02*
X94862463Y-66406467D01*
X94862463Y-66406467D02*
X94827118Y-66388939D01*
X94827118Y-66388939D02*
X94790879Y-66360939D01*
X94790879Y-66360939D02*
X94764387Y-66329251D01*
X94764387Y-66329251D02*
X94746201Y-66288987D01*
X94746201Y-66288987D02*
X94734878Y-66235257D01*
X94734878Y-66235257D02*
X94728978Y-66163174D01*
X94728978Y-66163174D02*
X94727057Y-66067849D01*
X94727057Y-66067849D02*
X94727023Y-66049563D01*
X94727023Y-66049563D02*
X94727000Y-65844154D01*
X94727000Y-65844154D02*
X94772709Y-65828220D01*
X94772709Y-65828220D02*
X94805173Y-65817380D01*
X94805173Y-65817380D02*
X94822985Y-65812332D01*
X94822985Y-65812332D02*
X94823509Y-65812286D01*
X94823509Y-65812286D02*
X94825263Y-65825972D01*
X94825263Y-65825972D02*
X94826756Y-65863724D01*
X94826756Y-65863724D02*
X94827874Y-65920576D01*
X94827874Y-65920576D02*
X94828503Y-65991566D01*
X94828503Y-65991566D02*
X94828600Y-66034727D01*
X94828600Y-66034727D02*
X94828802Y-66119827D01*
X94828802Y-66119827D02*
X94829842Y-66180819D01*
X94829842Y-66180819D02*
X94832369Y-66222623D01*
X94832369Y-66222623D02*
X94837036Y-66250158D01*
X94837036Y-66250158D02*
X94844493Y-66268344D01*
X94844493Y-66268344D02*
X94855389Y-66282102D01*
X94855389Y-66282102D02*
X94862193Y-66288727D01*
X94862193Y-66288727D02*
X94908928Y-66315425D01*
X94908928Y-66315425D02*
X94959928Y-66317425D01*
X94959928Y-66317425D02*
X95006199Y-66294845D01*
X95006199Y-66294845D02*
X95014756Y-66286693D01*
X95014756Y-66286693D02*
X95027307Y-66271364D01*
X95027307Y-66271364D02*
X95036012Y-66253182D01*
X95036012Y-66253182D02*
X95041569Y-66226891D01*
X95041569Y-66226891D02*
X95044674Y-66187238D01*
X95044674Y-66187238D02*
X95046024Y-66128968D01*
X95046024Y-66128968D02*
X95046314Y-66048627D01*
X95046314Y-66048627D02*
X95046314Y-65844154D01*
X95046314Y-65844154D02*
X95092023Y-65828220D01*
X95092023Y-65828220D02*
X95124487Y-65817380D01*
X95124487Y-65817380D02*
X95142299Y-65812332D01*
X95142299Y-65812332D02*
X95142823Y-65812286D01*
X95142823Y-65812286D02*
X95144163Y-65826177D01*
X95144163Y-65826177D02*
X95145372Y-65865361D01*
X95145372Y-65865361D02*
X95146399Y-65926100D01*
X95146399Y-65926100D02*
X95147198Y-66004659D01*
X95147198Y-66004659D02*
X95147719Y-66097302D01*
X95147719Y-66097302D02*
X95147914Y-66200291D01*
X95147914Y-66200291D02*
X95147914Y-66597458D01*
X95147914Y-66597458D02*
X95100743Y-66617356D01*
X95100743Y-66617356D02*
X95053571Y-66637253D01*
X95053571Y-66637253D02*
X95046314Y-66515511D01*
X95046314Y-66515511D02*
X95046314Y-66515511D01*
G36*
X95144163Y-65826177D02*
G01*
X95145372Y-65865361D01*
X95146399Y-65926100D01*
X95147198Y-66004659D01*
X95147719Y-66097302D01*
X95147914Y-66200291D01*
X95147914Y-66597458D01*
X95100743Y-66617356D01*
X95053571Y-66637253D01*
X95046314Y-66515511D01*
X95042061Y-66456187D01*
X95037175Y-66421228D01*
X95030405Y-66405980D01*
X95020498Y-66405785D01*
X95017286Y-66407605D01*
X94974556Y-66420785D01*
X94918973Y-66420015D01*
X94862463Y-66406467D01*
X94827118Y-66388939D01*
X94790879Y-66360939D01*
X94764387Y-66329251D01*
X94746201Y-66288987D01*
X94734878Y-66235257D01*
X94728978Y-66163174D01*
X94727057Y-66067849D01*
X94727023Y-66049563D01*
X94727000Y-65844154D01*
X94772709Y-65828220D01*
X94805173Y-65817380D01*
X94822985Y-65812332D01*
X94823509Y-65812286D01*
X94825263Y-65825972D01*
X94826756Y-65863724D01*
X94827874Y-65920576D01*
X94828503Y-65991566D01*
X94828600Y-66034727D01*
X94828802Y-66119827D01*
X94829842Y-66180819D01*
X94832369Y-66222623D01*
X94837036Y-66250158D01*
X94844493Y-66268344D01*
X94855389Y-66282102D01*
X94862193Y-66288727D01*
X94908928Y-66315425D01*
X94959928Y-66317425D01*
X95006199Y-66294845D01*
X95014756Y-66286693D01*
X95027307Y-66271364D01*
X95036012Y-66253182D01*
X95041569Y-66226891D01*
X95044674Y-66187238D01*
X95046024Y-66128968D01*
X95046314Y-66048627D01*
X95046314Y-65844154D01*
X95092023Y-65828220D01*
X95124487Y-65817380D01*
X95142299Y-65812332D01*
X95142823Y-65812286D01*
X95144163Y-65826177D01*
G37*
X95144163Y-65826177D02*
X95145372Y-65865361D01*
X95146399Y-65926100D01*
X95147198Y-66004659D01*
X95147719Y-66097302D01*
X95147914Y-66200291D01*
X95147914Y-66597458D01*
X95100743Y-66617356D01*
X95053571Y-66637253D01*
X95046314Y-66515511D01*
X95042061Y-66456187D01*
X95037175Y-66421228D01*
X95030405Y-66405980D01*
X95020498Y-66405785D01*
X95017286Y-66407605D01*
X94974556Y-66420785D01*
X94918973Y-66420015D01*
X94862463Y-66406467D01*
X94827118Y-66388939D01*
X94790879Y-66360939D01*
X94764387Y-66329251D01*
X94746201Y-66288987D01*
X94734878Y-66235257D01*
X94728978Y-66163174D01*
X94727057Y-66067849D01*
X94727023Y-66049563D01*
X94727000Y-65844154D01*
X94772709Y-65828220D01*
X94805173Y-65817380D01*
X94822985Y-65812332D01*
X94823509Y-65812286D01*
X94825263Y-65825972D01*
X94826756Y-65863724D01*
X94827874Y-65920576D01*
X94828503Y-65991566D01*
X94828600Y-66034727D01*
X94828802Y-66119827D01*
X94829842Y-66180819D01*
X94832369Y-66222623D01*
X94837036Y-66250158D01*
X94844493Y-66268344D01*
X94855389Y-66282102D01*
X94862193Y-66288727D01*
X94908928Y-66315425D01*
X94959928Y-66317425D01*
X95006199Y-66294845D01*
X95014756Y-66286693D01*
X95027307Y-66271364D01*
X95036012Y-66253182D01*
X95041569Y-66226891D01*
X95044674Y-66187238D01*
X95046024Y-66128968D01*
X95046314Y-66048627D01*
X95046314Y-65844154D01*
X95092023Y-65828220D01*
X95124487Y-65817380D01*
X95142299Y-65812332D01*
X95142823Y-65812286D01*
X95144163Y-65826177D01*
X94382456Y-66415832D02*
X94325584Y-66394713D01*
X94325584Y-66394713D02*
X94324933Y-66394307D01*
X94324933Y-66394307D02*
X94289760Y-66368420D01*
X94289760Y-66368420D02*
X94263793Y-66338167D01*
X94263793Y-66338167D02*
X94245530Y-66298742D01*
X94245530Y-66298742D02*
X94233468Y-66245338D01*
X94233468Y-66245338D02*
X94226104Y-66173149D01*
X94226104Y-66173149D02*
X94221936Y-66077368D01*
X94221936Y-66077368D02*
X94221571Y-66063722D01*
X94221571Y-66063722D02*
X94216324Y-65857958D01*
X94216324Y-65857958D02*
X94260484Y-65835122D01*
X94260484Y-65835122D02*
X94292437Y-65819690D01*
X94292437Y-65819690D02*
X94311730Y-65812377D01*
X94311730Y-65812377D02*
X94312622Y-65812286D01*
X94312622Y-65812286D02*
X94315961Y-65825778D01*
X94315961Y-65825778D02*
X94318613Y-65862174D01*
X94318613Y-65862174D02*
X94320244Y-65915348D01*
X94320244Y-65915348D02*
X94320600Y-65958407D01*
X94320600Y-65958407D02*
X94320608Y-66028159D01*
X94320608Y-66028159D02*
X94323797Y-66071963D01*
X94323797Y-66071963D02*
X94334912Y-66092856D01*
X94334912Y-66092856D02*
X94358699Y-66093875D01*
X94358699Y-66093875D02*
X94399904Y-66078059D01*
X94399904Y-66078059D02*
X94462114Y-66048985D01*
X94462114Y-66048985D02*
X94507859Y-66024837D01*
X94507859Y-66024837D02*
X94531387Y-66003887D01*
X94531387Y-66003887D02*
X94538304Y-65981053D01*
X94538304Y-65981053D02*
X94538314Y-65979923D01*
X94538314Y-65979923D02*
X94526901Y-65940588D01*
X94526901Y-65940588D02*
X94493108Y-65919338D01*
X94493108Y-65919338D02*
X94441391Y-65916261D01*
X94441391Y-65916261D02*
X94404139Y-65916794D01*
X94404139Y-65916794D02*
X94384497Y-65906065D01*
X94384497Y-65906065D02*
X94372248Y-65880295D01*
X94372248Y-65880295D02*
X94365198Y-65847463D01*
X94365198Y-65847463D02*
X94375358Y-65828834D01*
X94375358Y-65828834D02*
X94379183Y-65826168D01*
X94379183Y-65826168D02*
X94415199Y-65815460D01*
X94415199Y-65815460D02*
X94465634Y-65813944D01*
X94465634Y-65813944D02*
X94517574Y-65821041D01*
X94517574Y-65821041D02*
X94554378Y-65834012D01*
X94554378Y-65834012D02*
X94605262Y-65877215D01*
X94605262Y-65877215D02*
X94634186Y-65937354D01*
X94634186Y-65937354D02*
X94639914Y-65984338D01*
X94639914Y-65984338D02*
X94635543Y-66026718D01*
X94635543Y-66026718D02*
X94619725Y-66061312D01*
X94619725Y-66061312D02*
X94588403Y-66092037D01*
X94588403Y-66092037D02*
X94537522Y-66122810D01*
X94537522Y-66122810D02*
X94463024Y-66157548D01*
X94463024Y-66157548D02*
X94458486Y-66159512D01*
X94458486Y-66159512D02*
X94391379Y-66190513D01*
X94391379Y-66190513D02*
X94349968Y-66215938D01*
X94349968Y-66215938D02*
X94332219Y-66238786D01*
X94332219Y-66238786D02*
X94336093Y-66262055D01*
X94336093Y-66262055D02*
X94359557Y-66288744D01*
X94359557Y-66288744D02*
X94366573Y-66294886D01*
X94366573Y-66294886D02*
X94413570Y-66318700D01*
X94413570Y-66318700D02*
X94462267Y-66317697D01*
X94462267Y-66317697D02*
X94504678Y-66294349D01*
X94504678Y-66294349D02*
X94532816Y-66251125D01*
X94532816Y-66251125D02*
X94535431Y-66242640D01*
X94535431Y-66242640D02*
X94560892Y-66201492D01*
X94560892Y-66201492D02*
X94593199Y-66181672D01*
X94593199Y-66181672D02*
X94639914Y-66162030D01*
X94639914Y-66162030D02*
X94639914Y-66212850D01*
X94639914Y-66212850D02*
X94625704Y-66286718D01*
X94625704Y-66286718D02*
X94583525Y-66354473D01*
X94583525Y-66354473D02*
X94561576Y-66377139D01*
X94561576Y-66377139D02*
X94511683Y-66406231D01*
X94511683Y-66406231D02*
X94448233Y-66419400D01*
X94448233Y-66419400D02*
X94382456Y-66415832D01*
X94382456Y-66415832D02*
X94382456Y-66415832D01*
G36*
X94315961Y-65825778D02*
G01*
X94318613Y-65862174D01*
X94320244Y-65915348D01*
X94320600Y-65958407D01*
X94320608Y-66028159D01*
X94323797Y-66071963D01*
X94334912Y-66092856D01*
X94358699Y-66093875D01*
X94399904Y-66078059D01*
X94462114Y-66048985D01*
X94507859Y-66024837D01*
X94531387Y-66003887D01*
X94538304Y-65981053D01*
X94538314Y-65979923D01*
X94526901Y-65940588D01*
X94493108Y-65919338D01*
X94441391Y-65916261D01*
X94404139Y-65916794D01*
X94384497Y-65906065D01*
X94372248Y-65880295D01*
X94365198Y-65847463D01*
X94375358Y-65828834D01*
X94379183Y-65826168D01*
X94415199Y-65815460D01*
X94465634Y-65813944D01*
X94517574Y-65821041D01*
X94554378Y-65834012D01*
X94605262Y-65877215D01*
X94634186Y-65937354D01*
X94639914Y-65984338D01*
X94635543Y-66026718D01*
X94619725Y-66061312D01*
X94588403Y-66092037D01*
X94537522Y-66122810D01*
X94463024Y-66157548D01*
X94458486Y-66159512D01*
X94391379Y-66190513D01*
X94349968Y-66215938D01*
X94332219Y-66238786D01*
X94336093Y-66262055D01*
X94359557Y-66288744D01*
X94366573Y-66294886D01*
X94413570Y-66318700D01*
X94462267Y-66317697D01*
X94504678Y-66294349D01*
X94532816Y-66251125D01*
X94535431Y-66242640D01*
X94560892Y-66201492D01*
X94593199Y-66181672D01*
X94639914Y-66162030D01*
X94639914Y-66212850D01*
X94625704Y-66286718D01*
X94583525Y-66354473D01*
X94561576Y-66377139D01*
X94511683Y-66406231D01*
X94448233Y-66419400D01*
X94382456Y-66415832D01*
X94325584Y-66394713D01*
X94324933Y-66394307D01*
X94289760Y-66368420D01*
X94263793Y-66338167D01*
X94245530Y-66298742D01*
X94233468Y-66245338D01*
X94226104Y-66173149D01*
X94221936Y-66077368D01*
X94221571Y-66063722D01*
X94216324Y-65857958D01*
X94260484Y-65835122D01*
X94292437Y-65819690D01*
X94311730Y-65812377D01*
X94312622Y-65812286D01*
X94315961Y-65825778D01*
G37*
X94315961Y-65825778D02*
X94318613Y-65862174D01*
X94320244Y-65915348D01*
X94320600Y-65958407D01*
X94320608Y-66028159D01*
X94323797Y-66071963D01*
X94334912Y-66092856D01*
X94358699Y-66093875D01*
X94399904Y-66078059D01*
X94462114Y-66048985D01*
X94507859Y-66024837D01*
X94531387Y-66003887D01*
X94538304Y-65981053D01*
X94538314Y-65979923D01*
X94526901Y-65940588D01*
X94493108Y-65919338D01*
X94441391Y-65916261D01*
X94404139Y-65916794D01*
X94384497Y-65906065D01*
X94372248Y-65880295D01*
X94365198Y-65847463D01*
X94375358Y-65828834D01*
X94379183Y-65826168D01*
X94415199Y-65815460D01*
X94465634Y-65813944D01*
X94517574Y-65821041D01*
X94554378Y-65834012D01*
X94605262Y-65877215D01*
X94634186Y-65937354D01*
X94639914Y-65984338D01*
X94635543Y-66026718D01*
X94619725Y-66061312D01*
X94588403Y-66092037D01*
X94537522Y-66122810D01*
X94463024Y-66157548D01*
X94458486Y-66159512D01*
X94391379Y-66190513D01*
X94349968Y-66215938D01*
X94332219Y-66238786D01*
X94336093Y-66262055D01*
X94359557Y-66288744D01*
X94366573Y-66294886D01*
X94413570Y-66318700D01*
X94462267Y-66317697D01*
X94504678Y-66294349D01*
X94532816Y-66251125D01*
X94535431Y-66242640D01*
X94560892Y-66201492D01*
X94593199Y-66181672D01*
X94639914Y-66162030D01*
X94639914Y-66212850D01*
X94625704Y-66286718D01*
X94583525Y-66354473D01*
X94561576Y-66377139D01*
X94511683Y-66406231D01*
X94448233Y-66419400D01*
X94382456Y-66415832D01*
X94325584Y-66394713D01*
X94324933Y-66394307D01*
X94289760Y-66368420D01*
X94263793Y-66338167D01*
X94245530Y-66298742D01*
X94233468Y-66245338D01*
X94226104Y-66173149D01*
X94221936Y-66077368D01*
X94221571Y-66063722D01*
X94216324Y-65857958D01*
X94260484Y-65835122D01*
X94292437Y-65819690D01*
X94311730Y-65812377D01*
X94312622Y-65812286D01*
X94315961Y-65825778D01*
X93892274Y-66417045D02*
X93826342Y-66392716D01*
X93826342Y-66392716D02*
X93772927Y-66349683D01*
X93772927Y-66349683D02*
X93752036Y-66319391D01*
X93752036Y-66319391D02*
X93729261Y-66263806D01*
X93729261Y-66263806D02*
X93729734Y-66223614D01*
X93729734Y-66223614D02*
X93753638Y-66196583D01*
X93753638Y-66196583D02*
X93762483Y-66191987D01*
X93762483Y-66191987D02*
X93800670Y-66177656D01*
X93800670Y-66177656D02*
X93820172Y-66181328D01*
X93820172Y-66181328D02*
X93826778Y-66205393D01*
X93826778Y-66205393D02*
X93827114Y-66218686D01*
X93827114Y-66218686D02*
X93839208Y-66267590D01*
X93839208Y-66267590D02*
X93870729Y-66301801D01*
X93870729Y-66301801D02*
X93914541Y-66318324D01*
X93914541Y-66318324D02*
X93963505Y-66314166D01*
X93963505Y-66314166D02*
X94003306Y-66292573D01*
X94003306Y-66292573D02*
X94016750Y-66280256D01*
X94016750Y-66280256D02*
X94026279Y-66265313D01*
X94026279Y-66265313D02*
X94032715Y-66242725D01*
X94032715Y-66242725D02*
X94036883Y-66207472D01*
X94036883Y-66207472D02*
X94039603Y-66154534D01*
X94039603Y-66154534D02*
X94041698Y-66078893D01*
X94041698Y-66078893D02*
X94042240Y-66054943D01*
X94042240Y-66054943D02*
X94044219Y-65973010D01*
X94044219Y-65973010D02*
X94046469Y-65915345D01*
X94046469Y-65915345D02*
X94049843Y-65877192D01*
X94049843Y-65877192D02*
X94055194Y-65853796D01*
X94055194Y-65853796D02*
X94063376Y-65840402D01*
X94063376Y-65840402D02*
X94075241Y-65832255D01*
X94075241Y-65832255D02*
X94082838Y-65828656D01*
X94082838Y-65828656D02*
X94115098Y-65816348D01*
X94115098Y-65816348D02*
X94134089Y-65812286D01*
X94134089Y-65812286D02*
X94140364Y-65825852D01*
X94140364Y-65825852D02*
X94144194Y-65866866D01*
X94144194Y-65866866D02*
X94145600Y-65935801D01*
X94145600Y-65935801D02*
X94144602Y-66033131D01*
X94144602Y-66033131D02*
X94144292Y-66048143D01*
X94144292Y-66048143D02*
X94142099Y-66136941D01*
X94142099Y-66136941D02*
X94139507Y-66201781D01*
X94139507Y-66201781D02*
X94135818Y-66247733D01*
X94135818Y-66247733D02*
X94130336Y-66279865D01*
X94130336Y-66279865D02*
X94122365Y-66303247D01*
X94122365Y-66303247D02*
X94111207Y-66322948D01*
X94111207Y-66322948D02*
X94105370Y-66331390D01*
X94105370Y-66331390D02*
X94071904Y-66368743D01*
X94071904Y-66368743D02*
X94034473Y-66397797D01*
X94034473Y-66397797D02*
X94029891Y-66400333D01*
X94029891Y-66400333D02*
X93962774Y-66420357D01*
X93962774Y-66420357D02*
X93892274Y-66417045D01*
X93892274Y-66417045D02*
X93892274Y-66417045D01*
G36*
X94140364Y-65825852D02*
G01*
X94144194Y-65866866D01*
X94145600Y-65935801D01*
X94144602Y-66033131D01*
X94144292Y-66048143D01*
X94142099Y-66136941D01*
X94139507Y-66201781D01*
X94135818Y-66247733D01*
X94130336Y-66279865D01*
X94122365Y-66303247D01*
X94111207Y-66322948D01*
X94105370Y-66331390D01*
X94071904Y-66368743D01*
X94034473Y-66397797D01*
X94029891Y-66400333D01*
X93962774Y-66420357D01*
X93892274Y-66417045D01*
X93826342Y-66392716D01*
X93772927Y-66349683D01*
X93752036Y-66319391D01*
X93729261Y-66263806D01*
X93729734Y-66223614D01*
X93753638Y-66196583D01*
X93762483Y-66191987D01*
X93800670Y-66177656D01*
X93820172Y-66181328D01*
X93826778Y-66205393D01*
X93827114Y-66218686D01*
X93839208Y-66267590D01*
X93870729Y-66301801D01*
X93914541Y-66318324D01*
X93963505Y-66314166D01*
X94003306Y-66292573D01*
X94016750Y-66280256D01*
X94026279Y-66265313D01*
X94032715Y-66242725D01*
X94036883Y-66207472D01*
X94039603Y-66154534D01*
X94041698Y-66078893D01*
X94042240Y-66054943D01*
X94044219Y-65973010D01*
X94046469Y-65915345D01*
X94049843Y-65877192D01*
X94055194Y-65853796D01*
X94063376Y-65840402D01*
X94075241Y-65832255D01*
X94082838Y-65828656D01*
X94115098Y-65816348D01*
X94134089Y-65812286D01*
X94140364Y-65825852D01*
G37*
X94140364Y-65825852D02*
X94144194Y-65866866D01*
X94145600Y-65935801D01*
X94144602Y-66033131D01*
X94144292Y-66048143D01*
X94142099Y-66136941D01*
X94139507Y-66201781D01*
X94135818Y-66247733D01*
X94130336Y-66279865D01*
X94122365Y-66303247D01*
X94111207Y-66322948D01*
X94105370Y-66331390D01*
X94071904Y-66368743D01*
X94034473Y-66397797D01*
X94029891Y-66400333D01*
X93962774Y-66420357D01*
X93892274Y-66417045D01*
X93826342Y-66392716D01*
X93772927Y-66349683D01*
X93752036Y-66319391D01*
X93729261Y-66263806D01*
X93729734Y-66223614D01*
X93753638Y-66196583D01*
X93762483Y-66191987D01*
X93800670Y-66177656D01*
X93820172Y-66181328D01*
X93826778Y-66205393D01*
X93827114Y-66218686D01*
X93839208Y-66267590D01*
X93870729Y-66301801D01*
X93914541Y-66318324D01*
X93963505Y-66314166D01*
X94003306Y-66292573D01*
X94016750Y-66280256D01*
X94026279Y-66265313D01*
X94032715Y-66242725D01*
X94036883Y-66207472D01*
X94039603Y-66154534D01*
X94041698Y-66078893D01*
X94042240Y-66054943D01*
X94044219Y-65973010D01*
X94046469Y-65915345D01*
X94049843Y-65877192D01*
X94055194Y-65853796D01*
X94063376Y-65840402D01*
X94075241Y-65832255D01*
X94082838Y-65828656D01*
X94115098Y-65816348D01*
X94134089Y-65812286D01*
X94140364Y-65825852D01*
X93232083Y-66301442D02*
X93232267Y-66192963D01*
X93232267Y-66192963D02*
X93232981Y-66109513D01*
X93232981Y-66109513D02*
X93234525Y-66047096D01*
X93234525Y-66047096D02*
X93237199Y-66001715D01*
X93237199Y-66001715D02*
X93241306Y-65969371D01*
X93241306Y-65969371D02*
X93247145Y-65946067D01*
X93247145Y-65946067D02*
X93255018Y-65927805D01*
X93255018Y-65927805D02*
X93260979Y-65917382D01*
X93260979Y-65917382D02*
X93310345Y-65860855D01*
X93310345Y-65860855D02*
X93372936Y-65825423D01*
X93372936Y-65825423D02*
X93442187Y-65812710D01*
X93442187Y-65812710D02*
X93511532Y-65824337D01*
X93511532Y-65824337D02*
X93552825Y-65845232D01*
X93552825Y-65845232D02*
X93596175Y-65881378D01*
X93596175Y-65881378D02*
X93625719Y-65925524D01*
X93625719Y-65925524D02*
X93643545Y-65983338D01*
X93643545Y-65983338D02*
X93651737Y-66060487D01*
X93651737Y-66060487D02*
X93652898Y-66117086D01*
X93652898Y-66117086D02*
X93652742Y-66121153D01*
X93652742Y-66121153D02*
X93551343Y-66121153D01*
X93551343Y-66121153D02*
X93550724Y-66056250D01*
X93550724Y-66056250D02*
X93547886Y-66013286D01*
X93547886Y-66013286D02*
X93541360Y-65985178D01*
X93541360Y-65985178D02*
X93529677Y-65964847D01*
X93529677Y-65964847D02*
X93515717Y-65949512D01*
X93515717Y-65949512D02*
X93468835Y-65919910D01*
X93468835Y-65919910D02*
X93418499Y-65917381D01*
X93418499Y-65917381D02*
X93370924Y-65942095D01*
X93370924Y-65942095D02*
X93367221Y-65945444D01*
X93367221Y-65945444D02*
X93351417Y-65962865D01*
X93351417Y-65962865D02*
X93341507Y-65983591D01*
X93341507Y-65983591D02*
X93336142Y-66014438D01*
X93336142Y-66014438D02*
X93333972Y-66062223D01*
X93333972Y-66062223D02*
X93333629Y-66115052D01*
X93333629Y-66115052D02*
X93334373Y-66181419D01*
X93334373Y-66181419D02*
X93337452Y-66225694D01*
X93337452Y-66225694D02*
X93344139Y-66254791D01*
X93344139Y-66254791D02*
X93355704Y-66275627D01*
X93355704Y-66275627D02*
X93365187Y-66286693D01*
X93365187Y-66286693D02*
X93409240Y-66314602D01*
X93409240Y-66314602D02*
X93459976Y-66317957D01*
X93459976Y-66317957D02*
X93508404Y-66296641D01*
X93508404Y-66296641D02*
X93517750Y-66288727D01*
X93517750Y-66288727D02*
X93533660Y-66271153D01*
X93533660Y-66271153D02*
X93543590Y-66250213D01*
X93543590Y-66250213D02*
X93548922Y-66219018D01*
X93548922Y-66219018D02*
X93551037Y-66170678D01*
X93551037Y-66170678D02*
X93551343Y-66121153D01*
X93551343Y-66121153D02*
X93652742Y-66121153D01*
X93652742Y-66121153D02*
X93649390Y-66208232D01*
X93649390Y-66208232D02*
X93637474Y-66276714D01*
X93637474Y-66276714D02*
X93615065Y-66328200D01*
X93615065Y-66328200D02*
X93580076Y-66368357D01*
X93580076Y-66368357D02*
X93552825Y-66388939D01*
X93552825Y-66388939D02*
X93503293Y-66411175D01*
X93503293Y-66411175D02*
X93445884Y-66421496D01*
X93445884Y-66421496D02*
X93392518Y-66418733D01*
X93392518Y-66418733D02*
X93362657Y-66407588D01*
X93362657Y-66407588D02*
X93350939Y-66404417D01*
X93350939Y-66404417D02*
X93343163Y-66416243D01*
X93343163Y-66416243D02*
X93337735Y-66447934D01*
X93337735Y-66447934D02*
X93333629Y-66496207D01*
X93333629Y-66496207D02*
X93329133Y-66549971D01*
X93329133Y-66549971D02*
X93322887Y-66582318D01*
X93322887Y-66582318D02*
X93311524Y-66600815D01*
X93311524Y-66600815D02*
X93291672Y-66613030D01*
X93291672Y-66613030D02*
X93279200Y-66618438D01*
X93279200Y-66618438D02*
X93232029Y-66638199D01*
X93232029Y-66638199D02*
X93232083Y-66301442D01*
X93232083Y-66301442D02*
X93232083Y-66301442D01*
G36*
X93637474Y-66276714D02*
G01*
X93615065Y-66328200D01*
X93580076Y-66368357D01*
X93552825Y-66388939D01*
X93503293Y-66411175D01*
X93445884Y-66421496D01*
X93392518Y-66418733D01*
X93362657Y-66407588D01*
X93350939Y-66404417D01*
X93343163Y-66416243D01*
X93337735Y-66447934D01*
X93333629Y-66496207D01*
X93329133Y-66549971D01*
X93322887Y-66582318D01*
X93311524Y-66600815D01*
X93291672Y-66613030D01*
X93279200Y-66618438D01*
X93232029Y-66638199D01*
X93232083Y-66301442D01*
X93232267Y-66192963D01*
X93232934Y-66115052D01*
X93333629Y-66115052D01*
X93334373Y-66181419D01*
X93337452Y-66225694D01*
X93344139Y-66254791D01*
X93355704Y-66275627D01*
X93365187Y-66286693D01*
X93409240Y-66314602D01*
X93459976Y-66317957D01*
X93508404Y-66296641D01*
X93517750Y-66288727D01*
X93533660Y-66271153D01*
X93543590Y-66250213D01*
X93548922Y-66219018D01*
X93551037Y-66170678D01*
X93551343Y-66121153D01*
X93550724Y-66056250D01*
X93547886Y-66013286D01*
X93541360Y-65985178D01*
X93529677Y-65964847D01*
X93515717Y-65949512D01*
X93468835Y-65919910D01*
X93418499Y-65917381D01*
X93370924Y-65942095D01*
X93367221Y-65945444D01*
X93351417Y-65962865D01*
X93341507Y-65983591D01*
X93336142Y-66014438D01*
X93333972Y-66062223D01*
X93333629Y-66115052D01*
X93232934Y-66115052D01*
X93232981Y-66109513D01*
X93234525Y-66047096D01*
X93237199Y-66001715D01*
X93241306Y-65969371D01*
X93247145Y-65946067D01*
X93255018Y-65927805D01*
X93260979Y-65917382D01*
X93310345Y-65860855D01*
X93372936Y-65825423D01*
X93442187Y-65812710D01*
X93511532Y-65824337D01*
X93552825Y-65845232D01*
X93596175Y-65881378D01*
X93625719Y-65925524D01*
X93643545Y-65983338D01*
X93651737Y-66060487D01*
X93652898Y-66117086D01*
X93652742Y-66121153D01*
X93649390Y-66208232D01*
X93637474Y-66276714D01*
G37*
X93637474Y-66276714D02*
X93615065Y-66328200D01*
X93580076Y-66368357D01*
X93552825Y-66388939D01*
X93503293Y-66411175D01*
X93445884Y-66421496D01*
X93392518Y-66418733D01*
X93362657Y-66407588D01*
X93350939Y-66404417D01*
X93343163Y-66416243D01*
X93337735Y-66447934D01*
X93333629Y-66496207D01*
X93329133Y-66549971D01*
X93322887Y-66582318D01*
X93311524Y-66600815D01*
X93291672Y-66613030D01*
X93279200Y-66618438D01*
X93232029Y-66638199D01*
X93232083Y-66301442D01*
X93232267Y-66192963D01*
X93232934Y-66115052D01*
X93333629Y-66115052D01*
X93334373Y-66181419D01*
X93337452Y-66225694D01*
X93344139Y-66254791D01*
X93355704Y-66275627D01*
X93365187Y-66286693D01*
X93409240Y-66314602D01*
X93459976Y-66317957D01*
X93508404Y-66296641D01*
X93517750Y-66288727D01*
X93533660Y-66271153D01*
X93543590Y-66250213D01*
X93548922Y-66219018D01*
X93551037Y-66170678D01*
X93551343Y-66121153D01*
X93550724Y-66056250D01*
X93547886Y-66013286D01*
X93541360Y-65985178D01*
X93529677Y-65964847D01*
X93515717Y-65949512D01*
X93468835Y-65919910D01*
X93418499Y-65917381D01*
X93370924Y-65942095D01*
X93367221Y-65945444D01*
X93351417Y-65962865D01*
X93341507Y-65983591D01*
X93336142Y-66014438D01*
X93333972Y-66062223D01*
X93333629Y-66115052D01*
X93232934Y-66115052D01*
X93232981Y-66109513D01*
X93234525Y-66047096D01*
X93237199Y-66001715D01*
X93241306Y-65969371D01*
X93247145Y-65946067D01*
X93255018Y-65927805D01*
X93260979Y-65917382D01*
X93310345Y-65860855D01*
X93372936Y-65825423D01*
X93442187Y-65812710D01*
X93511532Y-65824337D01*
X93552825Y-65845232D01*
X93596175Y-65881378D01*
X93625719Y-65925524D01*
X93643545Y-65983338D01*
X93651737Y-66060487D01*
X93652898Y-66117086D01*
X93652742Y-66121153D01*
X93649390Y-66208232D01*
X93637474Y-66276714D01*
X92642367Y-66408137D02*
X92640152Y-66369950D01*
X92640152Y-66369950D02*
X92638416Y-66311914D01*
X92638416Y-66311914D02*
X92637301Y-66238620D01*
X92637301Y-66238620D02*
X92636943Y-66161745D01*
X92636943Y-66161745D02*
X92636943Y-65901604D01*
X92636943Y-65901604D02*
X92682874Y-65855673D01*
X92682874Y-65855673D02*
X92714525Y-65827371D01*
X92714525Y-65827371D02*
X92742310Y-65815907D01*
X92742310Y-65815907D02*
X92780285Y-65816632D01*
X92780285Y-65816632D02*
X92795360Y-65818479D01*
X92795360Y-65818479D02*
X92842474Y-65823852D01*
X92842474Y-65823852D02*
X92881444Y-65826931D01*
X92881444Y-65826931D02*
X92890943Y-65827215D01*
X92890943Y-65827215D02*
X92922967Y-65825355D01*
X92922967Y-65825355D02*
X92968768Y-65820686D01*
X92968768Y-65820686D02*
X92986526Y-65818479D01*
X92986526Y-65818479D02*
X93030143Y-65815065D01*
X93030143Y-65815065D02*
X93059455Y-65822480D01*
X93059455Y-65822480D02*
X93088520Y-65845373D01*
X93088520Y-65845373D02*
X93099012Y-65855673D01*
X93099012Y-65855673D02*
X93144943Y-65901604D01*
X93144943Y-65901604D02*
X93144943Y-66388198D01*
X93144943Y-66388198D02*
X93107974Y-66405042D01*
X93107974Y-66405042D02*
X93076141Y-66417518D01*
X93076141Y-66417518D02*
X93057517Y-66421886D01*
X93057517Y-66421886D02*
X93052742Y-66408082D01*
X93052742Y-66408082D02*
X93048279Y-66369514D01*
X93048279Y-66369514D02*
X93044425Y-66310444D01*
X93044425Y-66310444D02*
X93041478Y-66235137D01*
X93041478Y-66235137D02*
X93040057Y-66171514D01*
X93040057Y-66171514D02*
X93036086Y-65921143D01*
X93036086Y-65921143D02*
X93001441Y-65916244D01*
X93001441Y-65916244D02*
X92969932Y-65919669D01*
X92969932Y-65919669D02*
X92954492Y-65930759D01*
X92954492Y-65930759D02*
X92950177Y-65951492D01*
X92950177Y-65951492D02*
X92946492Y-65995655D01*
X92946492Y-65995655D02*
X92943731Y-66057654D01*
X92943731Y-66057654D02*
X92942188Y-66131891D01*
X92942188Y-66131891D02*
X92941965Y-66170094D01*
X92941965Y-66170094D02*
X92941743Y-66390017D01*
X92941743Y-66390017D02*
X92896034Y-66405951D01*
X92896034Y-66405951D02*
X92863682Y-66416785D01*
X92863682Y-66416785D02*
X92846085Y-66421838D01*
X92846085Y-66421838D02*
X92845577Y-66421886D01*
X92845577Y-66421886D02*
X92843812Y-66408152D01*
X92843812Y-66408152D02*
X92841871Y-66370070D01*
X92841871Y-66370070D02*
X92839918Y-66312318D01*
X92839918Y-66312318D02*
X92838116Y-66239573D01*
X92838116Y-66239573D02*
X92836857Y-66171514D01*
X92836857Y-66171514D02*
X92832886Y-65921143D01*
X92832886Y-65921143D02*
X92745800Y-65921143D01*
X92745800Y-65921143D02*
X92741804Y-66149560D01*
X92741804Y-66149560D02*
X92737808Y-66377978D01*
X92737808Y-66377978D02*
X92695353Y-66399932D01*
X92695353Y-66399932D02*
X92664008Y-66415007D01*
X92664008Y-66415007D02*
X92645456Y-66421849D01*
X92645456Y-66421849D02*
X92644921Y-66421886D01*
X92644921Y-66421886D02*
X92642367Y-66408137D01*
X92642367Y-66408137D02*
X92642367Y-66408137D01*
G36*
X93059455Y-65822480D02*
G01*
X93088520Y-65845373D01*
X93099012Y-65855673D01*
X93144943Y-65901604D01*
X93144943Y-66388198D01*
X93107974Y-66405042D01*
X93076141Y-66417518D01*
X93057517Y-66421886D01*
X93052742Y-66408082D01*
X93048279Y-66369514D01*
X93044425Y-66310444D01*
X93041478Y-66235137D01*
X93040057Y-66171514D01*
X93036086Y-65921143D01*
X93001441Y-65916244D01*
X92969932Y-65919669D01*
X92954492Y-65930759D01*
X92950177Y-65951492D01*
X92946492Y-65995655D01*
X92943731Y-66057654D01*
X92942188Y-66131891D01*
X92941965Y-66170094D01*
X92941743Y-66390017D01*
X92896034Y-66405951D01*
X92863682Y-66416785D01*
X92846085Y-66421838D01*
X92845577Y-66421886D01*
X92843812Y-66408152D01*
X92841871Y-66370070D01*
X92839918Y-66312318D01*
X92838116Y-66239573D01*
X92836857Y-66171514D01*
X92832886Y-65921143D01*
X92745800Y-65921143D01*
X92741804Y-66149560D01*
X92737808Y-66377978D01*
X92695353Y-66399932D01*
X92664008Y-66415007D01*
X92645456Y-66421849D01*
X92644921Y-66421886D01*
X92642367Y-66408137D01*
X92640152Y-66369950D01*
X92638416Y-66311914D01*
X92637301Y-66238620D01*
X92636943Y-66161745D01*
X92636943Y-65901604D01*
X92682874Y-65855673D01*
X92714525Y-65827371D01*
X92742310Y-65815907D01*
X92780285Y-65816632D01*
X92795360Y-65818479D01*
X92842474Y-65823852D01*
X92881444Y-65826931D01*
X92890943Y-65827215D01*
X92922967Y-65825355D01*
X92968768Y-65820686D01*
X92986526Y-65818479D01*
X93030143Y-65815065D01*
X93059455Y-65822480D01*
G37*
X93059455Y-65822480D02*
X93088520Y-65845373D01*
X93099012Y-65855673D01*
X93144943Y-65901604D01*
X93144943Y-66388198D01*
X93107974Y-66405042D01*
X93076141Y-66417518D01*
X93057517Y-66421886D01*
X93052742Y-66408082D01*
X93048279Y-66369514D01*
X93044425Y-66310444D01*
X93041478Y-66235137D01*
X93040057Y-66171514D01*
X93036086Y-65921143D01*
X93001441Y-65916244D01*
X92969932Y-65919669D01*
X92954492Y-65930759D01*
X92950177Y-65951492D01*
X92946492Y-65995655D01*
X92943731Y-66057654D01*
X92942188Y-66131891D01*
X92941965Y-66170094D01*
X92941743Y-66390017D01*
X92896034Y-66405951D01*
X92863682Y-66416785D01*
X92846085Y-66421838D01*
X92845577Y-66421886D01*
X92843812Y-66408152D01*
X92841871Y-66370070D01*
X92839918Y-66312318D01*
X92838116Y-66239573D01*
X92836857Y-66171514D01*
X92832886Y-65921143D01*
X92745800Y-65921143D01*
X92741804Y-66149560D01*
X92737808Y-66377978D01*
X92695353Y-66399932D01*
X92664008Y-66415007D01*
X92645456Y-66421849D01*
X92644921Y-66421886D01*
X92642367Y-66408137D01*
X92640152Y-66369950D01*
X92638416Y-66311914D01*
X92637301Y-66238620D01*
X92636943Y-66161745D01*
X92636943Y-65901604D01*
X92682874Y-65855673D01*
X92714525Y-65827371D01*
X92742310Y-65815907D01*
X92780285Y-65816632D01*
X92795360Y-65818479D01*
X92842474Y-65823852D01*
X92881444Y-65826931D01*
X92890943Y-65827215D01*
X92922967Y-65825355D01*
X92968768Y-65820686D01*
X92986526Y-65818479D01*
X93030143Y-65815065D01*
X93059455Y-65822480D01*
X92277324Y-66410465D02*
X92235533Y-66391456D01*
X92235533Y-66391456D02*
X92202731Y-66368422D01*
X92202731Y-66368422D02*
X92178697Y-66342667D01*
X92178697Y-66342667D02*
X92162103Y-66309442D01*
X92162103Y-66309442D02*
X92151623Y-66264000D01*
X92151623Y-66264000D02*
X92145929Y-66201593D01*
X92145929Y-66201593D02*
X92143693Y-66117473D01*
X92143693Y-66117473D02*
X92143457Y-66062079D01*
X92143457Y-66062079D02*
X92143457Y-65845974D01*
X92143457Y-65845974D02*
X92180426Y-65829130D01*
X92180426Y-65829130D02*
X92209544Y-65816819D01*
X92209544Y-65816819D02*
X92223969Y-65812286D01*
X92223969Y-65812286D02*
X92226728Y-65825775D01*
X92226728Y-65825775D02*
X92228918Y-65862147D01*
X92228918Y-65862147D02*
X92230258Y-65915258D01*
X92230258Y-65915258D02*
X92230543Y-65957428D01*
X92230543Y-65957428D02*
X92231766Y-66018353D01*
X92231766Y-66018353D02*
X92235064Y-66066685D01*
X92235064Y-66066685D02*
X92239879Y-66096282D01*
X92239879Y-66096282D02*
X92243704Y-66102571D01*
X92243704Y-66102571D02*
X92269417Y-66096148D01*
X92269417Y-66096148D02*
X92309782Y-66079675D01*
X92309782Y-66079675D02*
X92356521Y-66057342D01*
X92356521Y-66057342D02*
X92401355Y-66033343D01*
X92401355Y-66033343D02*
X92436007Y-66011870D01*
X92436007Y-66011870D02*
X92452198Y-65997115D01*
X92452198Y-65997115D02*
X92452262Y-65996955D01*
X92452262Y-65996955D02*
X92450870Y-65969648D01*
X92450870Y-65969648D02*
X92438382Y-65943581D01*
X92438382Y-65943581D02*
X92416457Y-65922408D01*
X92416457Y-65922408D02*
X92384457Y-65915326D01*
X92384457Y-65915326D02*
X92357108Y-65916151D01*
X92357108Y-65916151D02*
X92318374Y-65916758D01*
X92318374Y-65916758D02*
X92298042Y-65907684D01*
X92298042Y-65907684D02*
X92285831Y-65883708D01*
X92285831Y-65883708D02*
X92284291Y-65879187D01*
X92284291Y-65879187D02*
X92278997Y-65844994D01*
X92278997Y-65844994D02*
X92293153Y-65824232D01*
X92293153Y-65824232D02*
X92330052Y-65814338D01*
X92330052Y-65814338D02*
X92369911Y-65812508D01*
X92369911Y-65812508D02*
X92441638Y-65826073D01*
X92441638Y-65826073D02*
X92478768Y-65845445D01*
X92478768Y-65845445D02*
X92524624Y-65890955D01*
X92524624Y-65890955D02*
X92548944Y-65946817D01*
X92548944Y-65946817D02*
X92551127Y-66005843D01*
X92551127Y-66005843D02*
X92530571Y-66060847D01*
X92530571Y-66060847D02*
X92499651Y-66095314D01*
X92499651Y-66095314D02*
X92468780Y-66114611D01*
X92468780Y-66114611D02*
X92420258Y-66139041D01*
X92420258Y-66139041D02*
X92363715Y-66163815D01*
X92363715Y-66163815D02*
X92354290Y-66167601D01*
X92354290Y-66167601D02*
X92292181Y-66195009D01*
X92292181Y-66195009D02*
X92256378Y-66219166D01*
X92256378Y-66219166D02*
X92244863Y-66243181D01*
X92244863Y-66243181D02*
X92255620Y-66270165D01*
X92255620Y-66270165D02*
X92274086Y-66291257D01*
X92274086Y-66291257D02*
X92317731Y-66317228D01*
X92317731Y-66317228D02*
X92365754Y-66319176D01*
X92365754Y-66319176D02*
X92409794Y-66299163D01*
X92409794Y-66299163D02*
X92441491Y-66259249D01*
X92441491Y-66259249D02*
X92445651Y-66248952D01*
X92445651Y-66248952D02*
X92469873Y-66211076D01*
X92469873Y-66211076D02*
X92505235Y-66182958D01*
X92505235Y-66182958D02*
X92549857Y-66159883D01*
X92549857Y-66159883D02*
X92549857Y-66225315D01*
X92549857Y-66225315D02*
X92547231Y-66265294D01*
X92547231Y-66265294D02*
X92535970Y-66296803D01*
X92535970Y-66296803D02*
X92511001Y-66330422D01*
X92511001Y-66330422D02*
X92487031Y-66356316D01*
X92487031Y-66356316D02*
X92449759Y-66392983D01*
X92449759Y-66392983D02*
X92420799Y-66412679D01*
X92420799Y-66412679D02*
X92389695Y-66420580D01*
X92389695Y-66420580D02*
X92354487Y-66421886D01*
X92354487Y-66421886D02*
X92277324Y-66410465D01*
X92277324Y-66410465D02*
X92277324Y-66410465D01*
G36*
X92226728Y-65825775D02*
G01*
X92228918Y-65862147D01*
X92230258Y-65915258D01*
X92230543Y-65957428D01*
X92231766Y-66018353D01*
X92235064Y-66066685D01*
X92239879Y-66096282D01*
X92243704Y-66102571D01*
X92269417Y-66096148D01*
X92309782Y-66079675D01*
X92356521Y-66057342D01*
X92401355Y-66033343D01*
X92436007Y-66011870D01*
X92452198Y-65997115D01*
X92452262Y-65996955D01*
X92450870Y-65969648D01*
X92438382Y-65943581D01*
X92416457Y-65922408D01*
X92384457Y-65915326D01*
X92357108Y-65916151D01*
X92318374Y-65916758D01*
X92298042Y-65907684D01*
X92285831Y-65883708D01*
X92284291Y-65879187D01*
X92278997Y-65844994D01*
X92293153Y-65824232D01*
X92330052Y-65814338D01*
X92369911Y-65812508D01*
X92441638Y-65826073D01*
X92478768Y-65845445D01*
X92524624Y-65890955D01*
X92548944Y-65946817D01*
X92551127Y-66005843D01*
X92530571Y-66060847D01*
X92499651Y-66095314D01*
X92468780Y-66114611D01*
X92420258Y-66139041D01*
X92363715Y-66163815D01*
X92354290Y-66167601D01*
X92292181Y-66195009D01*
X92256378Y-66219166D01*
X92244863Y-66243181D01*
X92255620Y-66270165D01*
X92274086Y-66291257D01*
X92317731Y-66317228D01*
X92365754Y-66319176D01*
X92409794Y-66299163D01*
X92441491Y-66259249D01*
X92445651Y-66248952D01*
X92469873Y-66211076D01*
X92505235Y-66182958D01*
X92549857Y-66159883D01*
X92549857Y-66225315D01*
X92547231Y-66265294D01*
X92535970Y-66296803D01*
X92511001Y-66330422D01*
X92487031Y-66356316D01*
X92449759Y-66392983D01*
X92420799Y-66412679D01*
X92389695Y-66420580D01*
X92354487Y-66421886D01*
X92277324Y-66410465D01*
X92235533Y-66391456D01*
X92202731Y-66368422D01*
X92178697Y-66342667D01*
X92162103Y-66309442D01*
X92151623Y-66264000D01*
X92145929Y-66201593D01*
X92143693Y-66117473D01*
X92143457Y-66062079D01*
X92143457Y-65845974D01*
X92180426Y-65829130D01*
X92209544Y-65816819D01*
X92223969Y-65812286D01*
X92226728Y-65825775D01*
G37*
X92226728Y-65825775D02*
X92228918Y-65862147D01*
X92230258Y-65915258D01*
X92230543Y-65957428D01*
X92231766Y-66018353D01*
X92235064Y-66066685D01*
X92239879Y-66096282D01*
X92243704Y-66102571D01*
X92269417Y-66096148D01*
X92309782Y-66079675D01*
X92356521Y-66057342D01*
X92401355Y-66033343D01*
X92436007Y-66011870D01*
X92452198Y-65997115D01*
X92452262Y-65996955D01*
X92450870Y-65969648D01*
X92438382Y-65943581D01*
X92416457Y-65922408D01*
X92384457Y-65915326D01*
X92357108Y-65916151D01*
X92318374Y-65916758D01*
X92298042Y-65907684D01*
X92285831Y-65883708D01*
X92284291Y-65879187D01*
X92278997Y-65844994D01*
X92293153Y-65824232D01*
X92330052Y-65814338D01*
X92369911Y-65812508D01*
X92441638Y-65826073D01*
X92478768Y-65845445D01*
X92524624Y-65890955D01*
X92548944Y-65946817D01*
X92551127Y-66005843D01*
X92530571Y-66060847D01*
X92499651Y-66095314D01*
X92468780Y-66114611D01*
X92420258Y-66139041D01*
X92363715Y-66163815D01*
X92354290Y-66167601D01*
X92292181Y-66195009D01*
X92256378Y-66219166D01*
X92244863Y-66243181D01*
X92255620Y-66270165D01*
X92274086Y-66291257D01*
X92317731Y-66317228D01*
X92365754Y-66319176D01*
X92409794Y-66299163D01*
X92441491Y-66259249D01*
X92445651Y-66248952D01*
X92469873Y-66211076D01*
X92505235Y-66182958D01*
X92549857Y-66159883D01*
X92549857Y-66225315D01*
X92547231Y-66265294D01*
X92535970Y-66296803D01*
X92511001Y-66330422D01*
X92487031Y-66356316D01*
X92449759Y-66392983D01*
X92420799Y-66412679D01*
X92389695Y-66420580D01*
X92354487Y-66421886D01*
X92277324Y-66410465D01*
X92235533Y-66391456D01*
X92202731Y-66368422D01*
X92178697Y-66342667D01*
X92162103Y-66309442D01*
X92151623Y-66264000D01*
X92145929Y-66201593D01*
X92143693Y-66117473D01*
X92143457Y-66062079D01*
X92143457Y-65845974D01*
X92180426Y-65829130D01*
X92209544Y-65816819D01*
X92223969Y-65812286D01*
X92226728Y-65825775D01*
X91769600Y-66408048D02*
X91752252Y-66400466D01*
X91752252Y-66400466D02*
X91710844Y-66367672D01*
X91710844Y-66367672D02*
X91675435Y-66320253D01*
X91675435Y-66320253D02*
X91653536Y-66269649D01*
X91653536Y-66269649D02*
X91649971Y-66244702D01*
X91649971Y-66244702D02*
X91661921Y-66209873D01*
X91661921Y-66209873D02*
X91688133Y-66191443D01*
X91688133Y-66191443D02*
X91716236Y-66180284D01*
X91716236Y-66180284D02*
X91729105Y-66178228D01*
X91729105Y-66178228D02*
X91735371Y-66193151D01*
X91735371Y-66193151D02*
X91747744Y-66225625D01*
X91747744Y-66225625D02*
X91753172Y-66240298D01*
X91753172Y-66240298D02*
X91783610Y-66291056D01*
X91783610Y-66291056D02*
X91827680Y-66316373D01*
X91827680Y-66316373D02*
X91884190Y-66315594D01*
X91884190Y-66315594D02*
X91888375Y-66314597D01*
X91888375Y-66314597D02*
X91918545Y-66300293D01*
X91918545Y-66300293D02*
X91940724Y-66272407D01*
X91940724Y-66272407D02*
X91955873Y-66227513D01*
X91955873Y-66227513D02*
X91964950Y-66162185D01*
X91964950Y-66162185D02*
X91968914Y-66072996D01*
X91968914Y-66072996D02*
X91969286Y-66025539D01*
X91969286Y-66025539D02*
X91969470Y-65950729D01*
X91969470Y-65950729D02*
X91970678Y-65899731D01*
X91970678Y-65899731D02*
X91973891Y-65867329D01*
X91973891Y-65867329D02*
X91980091Y-65848305D01*
X91980091Y-65848305D02*
X91990260Y-65837444D01*
X91990260Y-65837444D02*
X92005381Y-65829528D01*
X92005381Y-65829528D02*
X92006254Y-65829130D01*
X92006254Y-65829130D02*
X92035372Y-65816819D01*
X92035372Y-65816819D02*
X92049797Y-65812286D01*
X92049797Y-65812286D02*
X92052014Y-65825991D01*
X92052014Y-65825991D02*
X92053911Y-65863875D01*
X92053911Y-65863875D02*
X92055353Y-65921085D01*
X92055353Y-65921085D02*
X92056202Y-65992773D01*
X92056202Y-65992773D02*
X92056371Y-66045235D01*
X92056371Y-66045235D02*
X92055508Y-66146753D01*
X92055508Y-66146753D02*
X92052130Y-66223768D01*
X92052130Y-66223768D02*
X92045058Y-66280777D01*
X92045058Y-66280777D02*
X92033112Y-66322274D01*
X92033112Y-66322274D02*
X92015110Y-66352757D01*
X92015110Y-66352757D02*
X91989873Y-66376720D01*
X91989873Y-66376720D02*
X91964953Y-66393445D01*
X91964953Y-66393445D02*
X91905029Y-66415703D01*
X91905029Y-66415703D02*
X91835289Y-66420724D01*
X91835289Y-66420724D02*
X91769600Y-66408048D01*
X91769600Y-66408048D02*
X91769600Y-66408048D01*
G36*
X92052014Y-65825991D02*
G01*
X92053911Y-65863875D01*
X92055353Y-65921085D01*
X92056202Y-65992773D01*
X92056371Y-66045235D01*
X92055508Y-66146753D01*
X92052130Y-66223768D01*
X92045058Y-66280777D01*
X92033112Y-66322274D01*
X92015110Y-66352757D01*
X91989873Y-66376720D01*
X91964953Y-66393445D01*
X91905029Y-66415703D01*
X91835289Y-66420724D01*
X91769600Y-66408048D01*
X91752252Y-66400466D01*
X91710844Y-66367672D01*
X91675435Y-66320253D01*
X91653536Y-66269649D01*
X91649971Y-66244702D01*
X91661921Y-66209873D01*
X91688133Y-66191443D01*
X91716236Y-66180284D01*
X91729105Y-66178228D01*
X91735371Y-66193151D01*
X91747744Y-66225625D01*
X91753172Y-66240298D01*
X91783610Y-66291056D01*
X91827680Y-66316373D01*
X91884190Y-66315594D01*
X91888375Y-66314597D01*
X91918545Y-66300293D01*
X91940724Y-66272407D01*
X91955873Y-66227513D01*
X91964950Y-66162185D01*
X91968914Y-66072996D01*
X91969286Y-66025539D01*
X91969470Y-65950729D01*
X91970678Y-65899731D01*
X91973891Y-65867329D01*
X91980091Y-65848305D01*
X91990260Y-65837444D01*
X92005381Y-65829528D01*
X92006254Y-65829130D01*
X92035372Y-65816819D01*
X92049797Y-65812286D01*
X92052014Y-65825991D01*
G37*
X92052014Y-65825991D02*
X92053911Y-65863875D01*
X92055353Y-65921085D01*
X92056202Y-65992773D01*
X92056371Y-66045235D01*
X92055508Y-66146753D01*
X92052130Y-66223768D01*
X92045058Y-66280777D01*
X92033112Y-66322274D01*
X92015110Y-66352757D01*
X91989873Y-66376720D01*
X91964953Y-66393445D01*
X91905029Y-66415703D01*
X91835289Y-66420724D01*
X91769600Y-66408048D01*
X91752252Y-66400466D01*
X91710844Y-66367672D01*
X91675435Y-66320253D01*
X91653536Y-66269649D01*
X91649971Y-66244702D01*
X91661921Y-66209873D01*
X91688133Y-66191443D01*
X91716236Y-66180284D01*
X91729105Y-66178228D01*
X91735371Y-66193151D01*
X91747744Y-66225625D01*
X91753172Y-66240298D01*
X91783610Y-66291056D01*
X91827680Y-66316373D01*
X91884190Y-66315594D01*
X91888375Y-66314597D01*
X91918545Y-66300293D01*
X91940724Y-66272407D01*
X91955873Y-66227513D01*
X91964950Y-66162185D01*
X91968914Y-66072996D01*
X91969286Y-66025539D01*
X91969470Y-65950729D01*
X91970678Y-65899731D01*
X91973891Y-65867329D01*
X91980091Y-65848305D01*
X91990260Y-65837444D01*
X92005381Y-65829528D01*
X92006254Y-65829130D01*
X92035372Y-65816819D01*
X92049797Y-65812286D01*
X92052014Y-65825991D01*
X91268605Y-66399834D02*
X91211179Y-66362303D01*
X91211179Y-66362303D02*
X91183481Y-66328704D01*
X91183481Y-66328704D02*
X91161538Y-66267736D01*
X91161538Y-66267736D02*
X91159795Y-66219492D01*
X91159795Y-66219492D02*
X91163743Y-66154984D01*
X91163743Y-66154984D02*
X91312514Y-66089866D01*
X91312514Y-66089866D02*
X91384851Y-66056598D01*
X91384851Y-66056598D02*
X91432116Y-66029836D01*
X91432116Y-66029836D02*
X91456693Y-66006656D01*
X91456693Y-66006656D02*
X91460963Y-65984133D01*
X91460963Y-65984133D02*
X91447311Y-65959345D01*
X91447311Y-65959345D02*
X91432257Y-65942914D01*
X91432257Y-65942914D02*
X91388454Y-65916565D01*
X91388454Y-65916565D02*
X91340811Y-65914719D01*
X91340811Y-65914719D02*
X91297055Y-65935254D01*
X91297055Y-65935254D02*
X91264911Y-65976048D01*
X91264911Y-65976048D02*
X91259162Y-65990453D01*
X91259162Y-65990453D02*
X91231624Y-66035444D01*
X91231624Y-66035444D02*
X91199942Y-66054618D01*
X91199942Y-66054618D02*
X91156486Y-66071021D01*
X91156486Y-66071021D02*
X91156486Y-66008834D01*
X91156486Y-66008834D02*
X91160328Y-65966517D01*
X91160328Y-65966517D02*
X91175377Y-65930831D01*
X91175377Y-65930831D02*
X91206920Y-65889857D01*
X91206920Y-65889857D02*
X91211608Y-65884533D01*
X91211608Y-65884533D02*
X91246694Y-65848080D01*
X91246694Y-65848080D02*
X91276853Y-65828517D01*
X91276853Y-65828517D02*
X91314585Y-65819517D01*
X91314585Y-65819517D02*
X91345865Y-65816570D01*
X91345865Y-65816570D02*
X91401815Y-65815835D01*
X91401815Y-65815835D02*
X91441645Y-65825140D01*
X91441645Y-65825140D02*
X91466492Y-65838954D01*
X91466492Y-65838954D02*
X91505544Y-65869333D01*
X91505544Y-65869333D02*
X91532575Y-65902187D01*
X91532575Y-65902187D02*
X91549683Y-65943506D01*
X91549683Y-65943506D02*
X91558962Y-65999279D01*
X91558962Y-65999279D02*
X91562507Y-66075495D01*
X91562507Y-66075495D02*
X91562790Y-66114178D01*
X91562790Y-66114178D02*
X91561828Y-66160553D01*
X91561828Y-66160553D02*
X91474193Y-66160553D01*
X91474193Y-66160553D02*
X91473177Y-66135674D01*
X91473177Y-66135674D02*
X91470644Y-66131600D01*
X91470644Y-66131600D02*
X91453926Y-66137135D01*
X91453926Y-66137135D02*
X91417951Y-66151783D01*
X91417951Y-66151783D02*
X91369869Y-66172610D01*
X91369869Y-66172610D02*
X91359814Y-66177086D01*
X91359814Y-66177086D02*
X91299048Y-66207986D01*
X91299048Y-66207986D02*
X91265568Y-66235143D01*
X91265568Y-66235143D02*
X91258210Y-66260580D01*
X91258210Y-66260580D02*
X91275809Y-66286319D01*
X91275809Y-66286319D02*
X91290344Y-66297691D01*
X91290344Y-66297691D02*
X91342790Y-66320436D01*
X91342790Y-66320436D02*
X91391878Y-66316678D01*
X91391878Y-66316678D02*
X91432973Y-66288916D01*
X91432973Y-66288916D02*
X91461442Y-66239648D01*
X91461442Y-66239648D02*
X91470569Y-66200543D01*
X91470569Y-66200543D02*
X91474193Y-66160553D01*
X91474193Y-66160553D02*
X91561828Y-66160553D01*
X91561828Y-66160553D02*
X91560915Y-66204551D01*
X91560915Y-66204551D02*
X91554004Y-66271416D01*
X91554004Y-66271416D02*
X91540316Y-66320105D01*
X91540316Y-66320105D02*
X91518104Y-66355951D01*
X91518104Y-66355951D02*
X91485626Y-66384287D01*
X91485626Y-66384287D02*
X91471467Y-66393445D01*
X91471467Y-66393445D02*
X91407147Y-66417293D01*
X91407147Y-66417293D02*
X91336727Y-66418794D01*
X91336727Y-66418794D02*
X91268605Y-66399834D01*
X91268605Y-66399834D02*
X91268605Y-66399834D01*
G36*
X91554004Y-66271416D02*
G01*
X91540316Y-66320105D01*
X91518104Y-66355951D01*
X91485626Y-66384287D01*
X91471467Y-66393445D01*
X91407147Y-66417293D01*
X91336727Y-66418794D01*
X91268605Y-66399834D01*
X91211179Y-66362303D01*
X91183481Y-66328704D01*
X91161538Y-66267736D01*
X91161279Y-66260580D01*
X91258210Y-66260580D01*
X91275809Y-66286319D01*
X91290344Y-66297691D01*
X91342790Y-66320436D01*
X91391878Y-66316678D01*
X91432973Y-66288916D01*
X91461442Y-66239648D01*
X91470569Y-66200543D01*
X91474193Y-66160553D01*
X91473177Y-66135674D01*
X91470644Y-66131600D01*
X91453926Y-66137135D01*
X91417951Y-66151783D01*
X91369869Y-66172610D01*
X91359814Y-66177086D01*
X91299048Y-66207986D01*
X91265568Y-66235143D01*
X91258210Y-66260580D01*
X91161279Y-66260580D01*
X91159795Y-66219492D01*
X91163743Y-66154984D01*
X91312514Y-66089866D01*
X91384851Y-66056598D01*
X91432116Y-66029836D01*
X91456693Y-66006656D01*
X91460963Y-65984133D01*
X91447311Y-65959345D01*
X91432257Y-65942914D01*
X91388454Y-65916565D01*
X91340811Y-65914719D01*
X91297055Y-65935254D01*
X91264911Y-65976048D01*
X91259162Y-65990453D01*
X91231624Y-66035444D01*
X91199942Y-66054618D01*
X91156486Y-66071021D01*
X91156486Y-66008834D01*
X91160328Y-65966517D01*
X91175377Y-65930831D01*
X91206920Y-65889857D01*
X91211608Y-65884533D01*
X91246694Y-65848080D01*
X91276853Y-65828517D01*
X91314585Y-65819517D01*
X91345865Y-65816570D01*
X91401815Y-65815835D01*
X91441645Y-65825140D01*
X91466492Y-65838954D01*
X91505544Y-65869333D01*
X91532575Y-65902187D01*
X91549683Y-65943506D01*
X91558962Y-65999279D01*
X91562507Y-66075495D01*
X91562790Y-66114178D01*
X91561828Y-66160553D01*
X91560915Y-66204551D01*
X91554004Y-66271416D01*
G37*
X91554004Y-66271416D02*
X91540316Y-66320105D01*
X91518104Y-66355951D01*
X91485626Y-66384287D01*
X91471467Y-66393445D01*
X91407147Y-66417293D01*
X91336727Y-66418794D01*
X91268605Y-66399834D01*
X91211179Y-66362303D01*
X91183481Y-66328704D01*
X91161538Y-66267736D01*
X91161279Y-66260580D01*
X91258210Y-66260580D01*
X91275809Y-66286319D01*
X91290344Y-66297691D01*
X91342790Y-66320436D01*
X91391878Y-66316678D01*
X91432973Y-66288916D01*
X91461442Y-66239648D01*
X91470569Y-66200543D01*
X91474193Y-66160553D01*
X91473177Y-66135674D01*
X91470644Y-66131600D01*
X91453926Y-66137135D01*
X91417951Y-66151783D01*
X91369869Y-66172610D01*
X91359814Y-66177086D01*
X91299048Y-66207986D01*
X91265568Y-66235143D01*
X91258210Y-66260580D01*
X91161279Y-66260580D01*
X91159795Y-66219492D01*
X91163743Y-66154984D01*
X91312514Y-66089866D01*
X91384851Y-66056598D01*
X91432116Y-66029836D01*
X91456693Y-66006656D01*
X91460963Y-65984133D01*
X91447311Y-65959345D01*
X91432257Y-65942914D01*
X91388454Y-65916565D01*
X91340811Y-65914719D01*
X91297055Y-65935254D01*
X91264911Y-65976048D01*
X91259162Y-65990453D01*
X91231624Y-66035444D01*
X91199942Y-66054618D01*
X91156486Y-66071021D01*
X91156486Y-66008834D01*
X91160328Y-65966517D01*
X91175377Y-65930831D01*
X91206920Y-65889857D01*
X91211608Y-65884533D01*
X91246694Y-65848080D01*
X91276853Y-65828517D01*
X91314585Y-65819517D01*
X91345865Y-65816570D01*
X91401815Y-65815835D01*
X91441645Y-65825140D01*
X91466492Y-65838954D01*
X91505544Y-65869333D01*
X91532575Y-65902187D01*
X91549683Y-65943506D01*
X91558962Y-65999279D01*
X91562507Y-66075495D01*
X91562790Y-66114178D01*
X91561828Y-66160553D01*
X91560915Y-66204551D01*
X91554004Y-66271416D01*
X94318290Y-71124452D02*
X94239746Y-71124022D01*
X94239746Y-71124022D02*
X94182902Y-71122858D01*
X94182902Y-71122858D02*
X94144095Y-71120593D01*
X94144095Y-71120593D02*
X94119662Y-71116860D01*
X94119662Y-71116860D02*
X94105938Y-71111294D01*
X94105938Y-71111294D02*
X94099260Y-71103527D01*
X94099260Y-71103527D02*
X94095964Y-71093195D01*
X94095964Y-71093195D02*
X94095644Y-71091857D01*
X94095644Y-71091857D02*
X94090638Y-71067721D01*
X94090638Y-71067721D02*
X94081371Y-71020099D01*
X94081371Y-71020099D02*
X94068808Y-70954059D01*
X94068808Y-70954059D02*
X94053913Y-70874672D01*
X94053913Y-70874672D02*
X94037649Y-70787004D01*
X94037649Y-70787004D02*
X94037081Y-70783925D01*
X94037081Y-70783925D02*
X94020790Y-70698011D01*
X94020790Y-70698011D02*
X94005548Y-70622104D01*
X94005548Y-70622104D02*
X93992339Y-70560755D01*
X93992339Y-70560755D02*
X93982146Y-70518518D01*
X93982146Y-70518518D02*
X93975952Y-70499945D01*
X93975952Y-70499945D02*
X93975657Y-70499616D01*
X93975657Y-70499616D02*
X93957412Y-70490547D01*
X93957412Y-70490547D02*
X93919795Y-70475433D01*
X93919795Y-70475433D02*
X93870929Y-70457538D01*
X93870929Y-70457538D02*
X93870657Y-70457442D01*
X93870657Y-70457442D02*
X93809107Y-70434307D01*
X93809107Y-70434307D02*
X93736543Y-70404835D01*
X93736543Y-70404835D02*
X93668143Y-70375203D01*
X93668143Y-70375203D02*
X93664906Y-70373738D01*
X93664906Y-70373738D02*
X93553498Y-70323174D01*
X93553498Y-70323174D02*
X93306801Y-70491640D01*
X93306801Y-70491640D02*
X93231123Y-70542997D01*
X93231123Y-70542997D02*
X93162569Y-70588911D01*
X93162569Y-70588911D02*
X93105112Y-70626770D01*
X93105112Y-70626770D02*
X93062724Y-70653963D01*
X93062724Y-70653963D02*
X93039375Y-70667879D01*
X93039375Y-70667879D02*
X93037158Y-70668911D01*
X93037158Y-70668911D02*
X93020190Y-70664316D01*
X93020190Y-70664316D02*
X92988499Y-70642145D01*
X92988499Y-70642145D02*
X92940848Y-70601353D01*
X92940848Y-70601353D02*
X92876002Y-70540895D01*
X92876002Y-70540895D02*
X92809803Y-70476573D01*
X92809803Y-70476573D02*
X92745986Y-70413188D01*
X92745986Y-70413188D02*
X92688871Y-70355349D01*
X92688871Y-70355349D02*
X92641895Y-70306625D01*
X92641895Y-70306625D02*
X92608497Y-70270590D01*
X92608497Y-70270590D02*
X92592115Y-70250816D01*
X92592115Y-70250816D02*
X92591506Y-70249798D01*
X92591506Y-70249798D02*
X92589695Y-70236228D01*
X92589695Y-70236228D02*
X92596517Y-70214067D01*
X92596517Y-70214067D02*
X92613660Y-70180322D01*
X92613660Y-70180322D02*
X92642807Y-70132000D01*
X92642807Y-70132000D02*
X92685645Y-70066108D01*
X92685645Y-70066108D02*
X92742752Y-69981283D01*
X92742752Y-69981283D02*
X92793434Y-69906623D01*
X92793434Y-69906623D02*
X92838739Y-69839660D01*
X92838739Y-69839660D02*
X92876050Y-69784284D01*
X92876050Y-69784284D02*
X92902748Y-69744380D01*
X92902748Y-69744380D02*
X92916215Y-69723838D01*
X92916215Y-69723838D02*
X92917063Y-69722444D01*
X92917063Y-69722444D02*
X92915419Y-69702762D01*
X92915419Y-69702762D02*
X92902955Y-69664507D01*
X92902955Y-69664507D02*
X92882152Y-69614911D01*
X92882152Y-69614911D02*
X92874738Y-69599072D01*
X92874738Y-69599072D02*
X92842386Y-69528510D01*
X92842386Y-69528510D02*
X92807872Y-69448447D01*
X92807872Y-69448447D02*
X92779835Y-69379171D01*
X92779835Y-69379171D02*
X92759632Y-69327755D01*
X92759632Y-69327755D02*
X92743585Y-69288681D01*
X92743585Y-69288681D02*
X92734312Y-69268259D01*
X92734312Y-69268259D02*
X92733159Y-69266686D01*
X92733159Y-69266686D02*
X92716104Y-69264079D01*
X92716104Y-69264079D02*
X92675902Y-69256937D01*
X92675902Y-69256937D02*
X92617898Y-69246277D01*
X92617898Y-69246277D02*
X92547437Y-69233115D01*
X92547437Y-69233115D02*
X92469865Y-69218467D01*
X92469865Y-69218467D02*
X92390528Y-69203351D01*
X92390528Y-69203351D02*
X92314769Y-69188782D01*
X92314769Y-69188782D02*
X92247936Y-69175778D01*
X92247936Y-69175778D02*
X92195372Y-69165355D01*
X92195372Y-69165355D02*
X92162424Y-69158530D01*
X92162424Y-69158530D02*
X92154343Y-69156601D01*
X92154343Y-69156601D02*
X92145995Y-69151838D01*
X92145995Y-69151838D02*
X92139694Y-69141082D01*
X92139694Y-69141082D02*
X92135155Y-69120702D01*
X92135155Y-69120702D02*
X92132096Y-69087066D01*
X92132096Y-69087066D02*
X92130233Y-69036545D01*
X92130233Y-69036545D02*
X92129282Y-68965508D01*
X92129282Y-68965508D02*
X92128960Y-68870324D01*
X92128960Y-68870324D02*
X92128943Y-68831308D01*
X92128943Y-68831308D02*
X92128943Y-68514001D01*
X92128943Y-68514001D02*
X92205143Y-68498961D01*
X92205143Y-68498961D02*
X92247537Y-68490805D01*
X92247537Y-68490805D02*
X92310800Y-68478901D01*
X92310800Y-68478901D02*
X92387238Y-68464684D01*
X92387238Y-68464684D02*
X92469157Y-68449590D01*
X92469157Y-68449590D02*
X92491800Y-68445445D01*
X92491800Y-68445445D02*
X92567394Y-68430747D01*
X92567394Y-68430747D02*
X92633247Y-68416295D01*
X92633247Y-68416295D02*
X92683834Y-68403425D01*
X92683834Y-68403425D02*
X92713626Y-68393478D01*
X92713626Y-68393478D02*
X92718588Y-68390513D01*
X92718588Y-68390513D02*
X92730774Y-68369517D01*
X92730774Y-68369517D02*
X92748247Y-68328833D01*
X92748247Y-68328833D02*
X92767623Y-68276478D01*
X92767623Y-68276478D02*
X92771466Y-68265200D01*
X92771466Y-68265200D02*
X92796861Y-68195277D01*
X92796861Y-68195277D02*
X92828383Y-68116382D01*
X92828383Y-68116382D02*
X92859231Y-68045534D01*
X92859231Y-68045534D02*
X92859383Y-68045205D01*
X92859383Y-68045205D02*
X92910753Y-67934067D01*
X92910753Y-67934067D02*
X92741801Y-67685547D01*
X92741801Y-67685547D02*
X92572848Y-67437028D01*
X92572848Y-67437028D02*
X92789771Y-67219742D01*
X92789771Y-67219742D02*
X92855381Y-67155074D01*
X92855381Y-67155074D02*
X92915221Y-67098067D01*
X92915221Y-67098067D02*
X92965933Y-67051767D01*
X92965933Y-67051767D02*
X93004154Y-67019216D01*
X93004154Y-67019216D02*
X93026525Y-67003457D01*
X93026525Y-67003457D02*
X93029734Y-67002457D01*
X93029734Y-67002457D02*
X93048574Y-67010331D01*
X93048574Y-67010331D02*
X93087020Y-67032222D01*
X93087020Y-67032222D02*
X93140870Y-67065533D01*
X93140870Y-67065533D02*
X93205924Y-67107669D01*
X93205924Y-67107669D02*
X93276260Y-67154857D01*
X93276260Y-67154857D02*
X93347645Y-67202990D01*
X93347645Y-67202990D02*
X93411292Y-67244872D01*
X93411292Y-67244872D02*
X93463159Y-67277929D01*
X93463159Y-67277929D02*
X93499205Y-67299582D01*
X93499205Y-67299582D02*
X93515333Y-67307257D01*
X93515333Y-67307257D02*
X93535011Y-67300763D01*
X93535011Y-67300763D02*
X93572325Y-67283650D01*
X93572325Y-67283650D02*
X93619579Y-67259474D01*
X93619579Y-67259474D02*
X93624588Y-67256787D01*
X93624588Y-67256787D02*
X93688223Y-67224873D01*
X93688223Y-67224873D02*
X93731859Y-67209221D01*
X93731859Y-67209221D02*
X93758998Y-67209055D01*
X93758998Y-67209055D02*
X93773143Y-67223596D01*
X93773143Y-67223596D02*
X93773225Y-67223800D01*
X93773225Y-67223800D02*
X93780295Y-67241021D01*
X93780295Y-67241021D02*
X93797158Y-67281901D01*
X93797158Y-67281901D02*
X93822505Y-67343275D01*
X93822505Y-67343275D02*
X93855029Y-67421981D01*
X93855029Y-67421981D02*
X93893422Y-67514853D01*
X93893422Y-67514853D02*
X93936378Y-67618728D01*
X93936378Y-67618728D02*
X93977978Y-67719298D01*
X93977978Y-67719298D02*
X94023696Y-67830284D01*
X94023696Y-67830284D02*
X94065674Y-67933097D01*
X94065674Y-67933097D02*
X94102652Y-68024585D01*
X94102652Y-68024585D02*
X94133373Y-68101599D01*
X94133373Y-68101599D02*
X94156578Y-68160985D01*
X94156578Y-68160985D02*
X94171010Y-68199591D01*
X94171010Y-68199591D02*
X94175457Y-68214000D01*
X94175457Y-68214000D02*
X94164304Y-68230528D01*
X94164304Y-68230528D02*
X94135131Y-68256870D01*
X94135131Y-68256870D02*
X94096229Y-68285913D01*
X94096229Y-68285913D02*
X93985443Y-68377761D01*
X93985443Y-68377761D02*
X93898849Y-68483041D01*
X93898849Y-68483041D02*
X93837484Y-68599534D01*
X93837484Y-68599534D02*
X93802385Y-68725024D01*
X93802385Y-68725024D02*
X93794592Y-68857293D01*
X93794592Y-68857293D02*
X93800257Y-68918343D01*
X93800257Y-68918343D02*
X93831122Y-69045005D01*
X93831122Y-69045005D02*
X93884280Y-69156859D01*
X93884280Y-69156859D02*
X93956433Y-69252799D01*
X93956433Y-69252799D02*
X94044283Y-69331724D01*
X94044283Y-69331724D02*
X94144535Y-69392530D01*
X94144535Y-69392530D02*
X94253890Y-69434113D01*
X94253890Y-69434113D02*
X94369053Y-69455372D01*
X94369053Y-69455372D02*
X94486725Y-69455201D01*
X94486725Y-69455201D02*
X94603610Y-69432499D01*
X94603610Y-69432499D02*
X94716411Y-69386162D01*
X94716411Y-69386162D02*
X94821831Y-69315087D01*
X94821831Y-69315087D02*
X94865832Y-69274889D01*
X94865832Y-69274889D02*
X94950221Y-69171671D01*
X94950221Y-69171671D02*
X95008978Y-69058875D01*
X95008978Y-69058875D02*
X95042496Y-68939790D01*
X95042496Y-68939790D02*
X95051165Y-68817705D01*
X95051165Y-68817705D02*
X95035377Y-68695907D01*
X95035377Y-68695907D02*
X94995522Y-68577684D01*
X94995522Y-68577684D02*
X94931993Y-68466325D01*
X94931993Y-68466325D02*
X94845179Y-68365116D01*
X94845179Y-68365116D02*
X94748171Y-68285913D01*
X94748171Y-68285913D02*
X94707763Y-68255638D01*
X94707763Y-68255638D02*
X94679218Y-68229581D01*
X94679218Y-68229581D02*
X94668943Y-68213975D01*
X94668943Y-68213975D02*
X94674323Y-68196957D01*
X94674323Y-68196957D02*
X94689625Y-68156300D01*
X94689625Y-68156300D02*
X94713588Y-68095158D01*
X94713588Y-68095158D02*
X94744956Y-68016681D01*
X94744956Y-68016681D02*
X94782468Y-67924020D01*
X94782468Y-67924020D02*
X94824867Y-67820328D01*
X94824867Y-67820328D02*
X94866537Y-67719274D01*
X94866537Y-67719274D02*
X94912510Y-67608193D01*
X94912510Y-67608193D02*
X94955093Y-67505259D01*
X94955093Y-67505259D02*
X94992979Y-67413635D01*
X94992979Y-67413635D02*
X95024860Y-67336484D01*
X95024860Y-67336484D02*
X95049429Y-67276969D01*
X95049429Y-67276969D02*
X95065380Y-67238256D01*
X95065380Y-67238256D02*
X95071290Y-67223800D01*
X95071290Y-67223800D02*
X95085252Y-67209115D01*
X95085252Y-67209115D02*
X95112260Y-67209158D01*
X95112260Y-67209158D02*
X95155787Y-67224701D01*
X95155787Y-67224701D02*
X95219310Y-67256516D01*
X95219310Y-67256516D02*
X95219812Y-67256787D01*
X95219812Y-67256787D02*
X95267640Y-67281477D01*
X95267640Y-67281477D02*
X95306303Y-67299462D01*
X95306303Y-67299462D02*
X95328105Y-67307186D01*
X95328105Y-67307186D02*
X95329067Y-67307257D01*
X95329067Y-67307257D02*
X95345479Y-67299422D01*
X95345479Y-67299422D02*
X95381713Y-67277635D01*
X95381713Y-67277635D02*
X95433726Y-67244472D01*
X95433726Y-67244472D02*
X95497475Y-67202509D01*
X95497475Y-67202509D02*
X95568140Y-67154857D01*
X95568140Y-67154857D02*
X95640084Y-67106609D01*
X95640084Y-67106609D02*
X95704926Y-67064649D01*
X95704926Y-67064649D02*
X95758465Y-67031573D01*
X95758465Y-67031573D02*
X95796503Y-67009979D01*
X95796503Y-67009979D02*
X95814667Y-67002457D01*
X95814667Y-67002457D02*
X95831392Y-67012343D01*
X95831392Y-67012343D02*
X95865020Y-67039974D01*
X95865020Y-67039974D02*
X95912190Y-67082305D01*
X95912190Y-67082305D02*
X95969542Y-67136295D01*
X95969542Y-67136295D02*
X96033716Y-67198901D01*
X96033716Y-67198901D02*
X96054703Y-67219817D01*
X96054703Y-67219817D02*
X96271701Y-67437177D01*
X96271701Y-67437177D02*
X96106532Y-67679580D01*
X96106532Y-67679580D02*
X96056336Y-67754019D01*
X96056336Y-67754019D02*
X96012281Y-67820828D01*
X96012281Y-67820828D02*
X95976838Y-67876135D01*
X95976838Y-67876135D02*
X95952481Y-67916071D01*
X95952481Y-67916071D02*
X95941678Y-67936764D01*
X95941678Y-67936764D02*
X95941362Y-67938237D01*
X95941362Y-67938237D02*
X95947057Y-67957742D01*
X95947057Y-67957742D02*
X95962374Y-67996978D01*
X95962374Y-67996978D02*
X95984663Y-68049370D01*
X95984663Y-68049370D02*
X96000307Y-68084445D01*
X96000307Y-68084445D02*
X96029559Y-68151599D01*
X96029559Y-68151599D02*
X96057106Y-68219442D01*
X96057106Y-68219442D02*
X96078463Y-68276766D01*
X96078463Y-68276766D02*
X96084265Y-68294228D01*
X96084265Y-68294228D02*
X96100748Y-68340862D01*
X96100748Y-68340862D02*
X96116860Y-68376895D01*
X96116860Y-68376895D02*
X96125710Y-68390513D01*
X96125710Y-68390513D02*
X96145240Y-68398848D01*
X96145240Y-68398848D02*
X96187866Y-68410663D01*
X96187866Y-68410663D02*
X96248055Y-68424619D01*
X96248055Y-68424619D02*
X96320278Y-68439378D01*
X96320278Y-68439378D02*
X96352600Y-68445445D01*
X96352600Y-68445445D02*
X96434678Y-68460527D01*
X96434678Y-68460527D02*
X96513405Y-68475131D01*
X96513405Y-68475131D02*
X96581091Y-68487820D01*
X96581091Y-68487820D02*
X96630040Y-68497158D01*
X96630040Y-68497158D02*
X96639257Y-68498961D01*
X96639257Y-68498961D02*
X96715457Y-68514001D01*
X96715457Y-68514001D02*
X96715457Y-68831308D01*
X96715457Y-68831308D02*
X96715286Y-68935646D01*
X96715286Y-68935646D02*
X96714584Y-69014587D01*
X96714584Y-69014587D02*
X96713066Y-69071762D01*
X96713066Y-69071762D02*
X96710451Y-69110801D01*
X96710451Y-69110801D02*
X96706454Y-69135335D01*
X96706454Y-69135335D02*
X96700791Y-69148995D01*
X96700791Y-69148995D02*
X96693180Y-69155411D01*
X96693180Y-69155411D02*
X96690057Y-69156601D01*
X96690057Y-69156601D02*
X96671222Y-69160820D01*
X96671222Y-69160820D02*
X96629612Y-69169238D01*
X96629612Y-69169238D02*
X96570570Y-69180839D01*
X96570570Y-69180839D02*
X96499443Y-69194605D01*
X96499443Y-69194605D02*
X96421575Y-69209520D01*
X96421575Y-69209520D02*
X96342313Y-69224568D01*
X96342313Y-69224568D02*
X96267002Y-69238731D01*
X96267002Y-69238731D02*
X96200987Y-69250994D01*
X96200987Y-69250994D02*
X96149613Y-69260339D01*
X96149613Y-69260339D02*
X96118225Y-69265750D01*
X96118225Y-69265750D02*
X96111241Y-69266686D01*
X96111241Y-69266686D02*
X96104915Y-69279204D01*
X96104915Y-69279204D02*
X96090910Y-69312554D01*
X96090910Y-69312554D02*
X96071845Y-69360423D01*
X96071845Y-69360423D02*
X96064566Y-69379171D01*
X96064566Y-69379171D02*
X96035204Y-69451605D01*
X96035204Y-69451605D02*
X96000629Y-69531630D01*
X96000629Y-69531630D02*
X95969663Y-69599072D01*
X95969663Y-69599072D02*
X95946877Y-69650641D01*
X95946877Y-69650641D02*
X95931718Y-69693015D01*
X95931718Y-69693015D02*
X95926658Y-69718966D01*
X95926658Y-69718966D02*
X95927464Y-69722444D01*
X95927464Y-69722444D02*
X95938159Y-69738864D01*
X95938159Y-69738864D02*
X95962580Y-69775383D01*
X95962580Y-69775383D02*
X95998105Y-69828113D01*
X95998105Y-69828113D02*
X96042113Y-69893165D01*
X96042113Y-69893165D02*
X96091983Y-69966649D01*
X96091983Y-69966649D02*
X96101844Y-69981155D01*
X96101844Y-69981155D02*
X96159708Y-70067096D01*
X96159708Y-70067096D02*
X96202244Y-70132539D01*
X96202244Y-70132539D02*
X96231146Y-70180496D01*
X96231146Y-70180496D02*
X96248110Y-70213980D01*
X96248110Y-70213980D02*
X96254833Y-70236005D01*
X96254833Y-70236005D02*
X96253010Y-70249583D01*
X96253010Y-70249583D02*
X96252964Y-70249669D01*
X96252964Y-70249669D02*
X96238614Y-70267503D01*
X96238614Y-70267503D02*
X96206877Y-70301983D01*
X96206877Y-70301983D02*
X96161190Y-70349532D01*
X96161190Y-70349532D02*
X96104996Y-70406578D01*
X96104996Y-70406578D02*
X96041732Y-70469545D01*
X96041732Y-70469545D02*
X96034598Y-70476573D01*
X96034598Y-70476573D02*
X95954870Y-70553780D01*
X95954870Y-70553780D02*
X95893343Y-70610470D01*
X95893343Y-70610470D02*
X95848779Y-70647690D01*
X95848779Y-70647690D02*
X95819943Y-70666485D01*
X95819943Y-70666485D02*
X95807242Y-70668911D01*
X95807242Y-70668911D02*
X95788706Y-70658329D01*
X95788706Y-70658329D02*
X95750239Y-70633884D01*
X95750239Y-70633884D02*
X95695814Y-70598188D01*
X95695814Y-70598188D02*
X95629402Y-70553853D01*
X95629402Y-70553853D02*
X95554975Y-70503489D01*
X95554975Y-70503489D02*
X95537599Y-70491640D01*
X95537599Y-70491640D02*
X95290903Y-70323174D01*
X95290903Y-70323174D02*
X95179494Y-70373738D01*
X95179494Y-70373738D02*
X95111743Y-70403205D01*
X95111743Y-70403205D02*
X95039017Y-70432841D01*
X95039017Y-70432841D02*
X94976497Y-70456470D01*
X94976497Y-70456470D02*
X94973743Y-70457442D01*
X94973743Y-70457442D02*
X94924840Y-70475343D01*
X94924840Y-70475343D02*
X94887143Y-70490480D01*
X94887143Y-70490480D02*
X94868775Y-70499590D01*
X94868775Y-70499590D02*
X94868744Y-70499616D01*
X94868744Y-70499616D02*
X94862915Y-70516083D01*
X94862915Y-70516083D02*
X94853008Y-70556581D01*
X94853008Y-70556581D02*
X94840005Y-70616558D01*
X94840005Y-70616558D02*
X94824891Y-70691460D01*
X94824891Y-70691460D02*
X94808648Y-70776736D01*
X94808648Y-70776736D02*
X94807319Y-70783925D01*
X94807319Y-70783925D02*
X94791025Y-70871786D01*
X94791025Y-70871786D02*
X94776067Y-70951540D01*
X94776067Y-70951540D02*
X94763409Y-71018119D01*
X94763409Y-71018119D02*
X94754014Y-71066453D01*
X94754014Y-71066453D02*
X94748846Y-71091475D01*
X94748846Y-71091475D02*
X94748756Y-71091857D01*
X94748756Y-71091857D02*
X94745611Y-71102501D01*
X94745611Y-71102501D02*
X94739496Y-71110538D01*
X94739496Y-71110538D02*
X94726747Y-71116333D01*
X94726747Y-71116333D02*
X94703700Y-71120253D01*
X94703700Y-71120253D02*
X94666691Y-71122665D01*
X94666691Y-71122665D02*
X94612056Y-71123935D01*
X94612056Y-71123935D02*
X94536133Y-71124429D01*
X94536133Y-71124429D02*
X94435256Y-71124514D01*
X94435256Y-71124514D02*
X94422200Y-71124514D01*
X94422200Y-71124514D02*
X94318290Y-71124452D01*
X94318290Y-71124452D02*
X94318290Y-71124452D01*
G36*
X95831392Y-67012343D02*
G01*
X95865020Y-67039974D01*
X95912190Y-67082305D01*
X95969542Y-67136295D01*
X96033716Y-67198901D01*
X96054703Y-67219817D01*
X96271701Y-67437177D01*
X96106532Y-67679580D01*
X96056336Y-67754019D01*
X96012281Y-67820828D01*
X95976838Y-67876135D01*
X95952481Y-67916071D01*
X95941678Y-67936764D01*
X95941362Y-67938237D01*
X95947057Y-67957742D01*
X95962374Y-67996978D01*
X95984663Y-68049370D01*
X96000307Y-68084445D01*
X96029559Y-68151599D01*
X96057106Y-68219442D01*
X96078463Y-68276766D01*
X96084265Y-68294228D01*
X96100748Y-68340862D01*
X96116860Y-68376895D01*
X96125710Y-68390513D01*
X96145240Y-68398848D01*
X96187866Y-68410663D01*
X96248055Y-68424619D01*
X96320278Y-68439378D01*
X96352600Y-68445445D01*
X96434678Y-68460527D01*
X96513405Y-68475131D01*
X96581091Y-68487820D01*
X96630040Y-68497158D01*
X96639257Y-68498961D01*
X96715457Y-68514001D01*
X96715457Y-68831308D01*
X96715286Y-68935646D01*
X96714584Y-69014587D01*
X96713066Y-69071762D01*
X96710451Y-69110801D01*
X96706454Y-69135335D01*
X96700791Y-69148995D01*
X96693180Y-69155411D01*
X96690057Y-69156601D01*
X96671222Y-69160820D01*
X96629612Y-69169238D01*
X96570570Y-69180839D01*
X96499443Y-69194605D01*
X96421575Y-69209520D01*
X96342313Y-69224568D01*
X96267002Y-69238731D01*
X96200987Y-69250994D01*
X96149613Y-69260339D01*
X96118225Y-69265750D01*
X96111241Y-69266686D01*
X96104915Y-69279204D01*
X96090910Y-69312554D01*
X96071845Y-69360423D01*
X96064566Y-69379171D01*
X96035204Y-69451605D01*
X96000629Y-69531630D01*
X95969663Y-69599072D01*
X95946877Y-69650641D01*
X95931718Y-69693015D01*
X95926658Y-69718966D01*
X95927464Y-69722444D01*
X95938159Y-69738864D01*
X95962580Y-69775383D01*
X95998105Y-69828113D01*
X96042113Y-69893165D01*
X96091983Y-69966649D01*
X96101844Y-69981155D01*
X96159708Y-70067096D01*
X96202244Y-70132539D01*
X96231146Y-70180496D01*
X96248110Y-70213980D01*
X96254833Y-70236005D01*
X96253010Y-70249583D01*
X96252964Y-70249669D01*
X96238614Y-70267503D01*
X96206877Y-70301983D01*
X96161190Y-70349532D01*
X96104996Y-70406578D01*
X96041732Y-70469545D01*
X96034598Y-70476573D01*
X95954870Y-70553780D01*
X95893343Y-70610470D01*
X95848779Y-70647690D01*
X95819943Y-70666485D01*
X95807242Y-70668911D01*
X95788706Y-70658329D01*
X95750239Y-70633884D01*
X95695814Y-70598188D01*
X95629402Y-70553853D01*
X95554975Y-70503489D01*
X95537599Y-70491640D01*
X95290903Y-70323174D01*
X95179494Y-70373738D01*
X95111743Y-70403205D01*
X95039017Y-70432841D01*
X94976497Y-70456470D01*
X94973743Y-70457442D01*
X94924840Y-70475343D01*
X94887143Y-70490480D01*
X94868775Y-70499590D01*
X94868744Y-70499616D01*
X94862915Y-70516083D01*
X94853008Y-70556581D01*
X94840005Y-70616558D01*
X94824891Y-70691460D01*
X94808648Y-70776736D01*
X94807319Y-70783925D01*
X94791025Y-70871786D01*
X94776067Y-70951540D01*
X94763409Y-71018119D01*
X94754014Y-71066453D01*
X94748846Y-71091475D01*
X94748756Y-71091857D01*
X94745611Y-71102501D01*
X94739496Y-71110538D01*
X94726747Y-71116333D01*
X94703700Y-71120253D01*
X94666691Y-71122665D01*
X94612056Y-71123935D01*
X94536133Y-71124429D01*
X94435256Y-71124514D01*
X94422200Y-71124514D01*
X94318290Y-71124452D01*
X94239746Y-71124022D01*
X94182902Y-71122858D01*
X94144095Y-71120593D01*
X94119662Y-71116860D01*
X94105938Y-71111294D01*
X94099260Y-71103527D01*
X94095964Y-71093195D01*
X94095644Y-71091857D01*
X94090638Y-71067721D01*
X94081371Y-71020099D01*
X94068808Y-70954059D01*
X94053913Y-70874672D01*
X94037649Y-70787004D01*
X94037081Y-70783925D01*
X94020790Y-70698011D01*
X94005548Y-70622104D01*
X93992339Y-70560755D01*
X93982146Y-70518518D01*
X93975952Y-70499945D01*
X93975657Y-70499616D01*
X93957412Y-70490547D01*
X93919795Y-70475433D01*
X93870929Y-70457538D01*
X93870657Y-70457442D01*
X93809107Y-70434307D01*
X93736543Y-70404835D01*
X93668143Y-70375203D01*
X93664906Y-70373738D01*
X93553498Y-70323174D01*
X93306801Y-70491640D01*
X93231123Y-70542997D01*
X93162569Y-70588911D01*
X93105112Y-70626770D01*
X93062724Y-70653963D01*
X93039375Y-70667879D01*
X93037158Y-70668911D01*
X93020190Y-70664316D01*
X92988499Y-70642145D01*
X92940848Y-70601353D01*
X92876002Y-70540895D01*
X92809803Y-70476573D01*
X92745986Y-70413188D01*
X92688871Y-70355349D01*
X92641895Y-70306625D01*
X92608497Y-70270590D01*
X92592115Y-70250816D01*
X92591506Y-70249798D01*
X92589695Y-70236228D01*
X92596517Y-70214067D01*
X92613660Y-70180322D01*
X92642807Y-70132000D01*
X92685645Y-70066108D01*
X92742752Y-69981283D01*
X92793434Y-69906623D01*
X92838739Y-69839660D01*
X92876050Y-69784284D01*
X92902748Y-69744380D01*
X92916215Y-69723838D01*
X92917063Y-69722444D01*
X92915419Y-69702762D01*
X92902955Y-69664507D01*
X92882152Y-69614911D01*
X92874738Y-69599072D01*
X92842386Y-69528510D01*
X92807872Y-69448447D01*
X92779835Y-69379171D01*
X92759632Y-69327755D01*
X92743585Y-69288681D01*
X92734312Y-69268259D01*
X92733159Y-69266686D01*
X92716104Y-69264079D01*
X92675902Y-69256937D01*
X92617898Y-69246277D01*
X92547437Y-69233115D01*
X92469865Y-69218467D01*
X92390528Y-69203351D01*
X92314769Y-69188782D01*
X92247936Y-69175778D01*
X92195372Y-69165355D01*
X92162424Y-69158530D01*
X92154343Y-69156601D01*
X92145995Y-69151838D01*
X92139694Y-69141082D01*
X92135155Y-69120702D01*
X92132096Y-69087066D01*
X92130233Y-69036545D01*
X92129282Y-68965508D01*
X92128960Y-68870324D01*
X92128943Y-68831308D01*
X92128943Y-68514001D01*
X92205143Y-68498961D01*
X92247537Y-68490805D01*
X92310800Y-68478901D01*
X92387238Y-68464684D01*
X92469157Y-68449590D01*
X92491800Y-68445445D01*
X92567394Y-68430747D01*
X92633247Y-68416295D01*
X92683834Y-68403425D01*
X92713626Y-68393478D01*
X92718588Y-68390513D01*
X92730774Y-68369517D01*
X92748247Y-68328833D01*
X92767623Y-68276478D01*
X92771466Y-68265200D01*
X92796861Y-68195277D01*
X92828383Y-68116382D01*
X92859231Y-68045534D01*
X92859383Y-68045205D01*
X92910753Y-67934067D01*
X92741801Y-67685547D01*
X92572848Y-67437028D01*
X92789771Y-67219742D01*
X92855381Y-67155074D01*
X92915221Y-67098067D01*
X92965933Y-67051767D01*
X93004154Y-67019216D01*
X93026525Y-67003457D01*
X93029734Y-67002457D01*
X93048574Y-67010331D01*
X93087020Y-67032222D01*
X93140870Y-67065533D01*
X93205924Y-67107669D01*
X93276260Y-67154857D01*
X93347645Y-67202990D01*
X93411292Y-67244872D01*
X93463159Y-67277929D01*
X93499205Y-67299582D01*
X93515333Y-67307257D01*
X93535011Y-67300763D01*
X93572325Y-67283650D01*
X93619579Y-67259474D01*
X93624588Y-67256787D01*
X93688223Y-67224873D01*
X93731859Y-67209221D01*
X93758998Y-67209055D01*
X93773143Y-67223596D01*
X93773225Y-67223800D01*
X93780295Y-67241021D01*
X93797158Y-67281901D01*
X93822505Y-67343275D01*
X93855029Y-67421981D01*
X93893422Y-67514853D01*
X93936378Y-67618728D01*
X93977978Y-67719298D01*
X94023696Y-67830284D01*
X94065674Y-67933097D01*
X94102652Y-68024585D01*
X94133373Y-68101599D01*
X94156578Y-68160985D01*
X94171010Y-68199591D01*
X94175457Y-68214000D01*
X94164304Y-68230528D01*
X94135131Y-68256870D01*
X94096229Y-68285913D01*
X93985443Y-68377761D01*
X93898849Y-68483041D01*
X93837484Y-68599534D01*
X93802385Y-68725024D01*
X93794592Y-68857293D01*
X93800257Y-68918343D01*
X93831122Y-69045005D01*
X93884280Y-69156859D01*
X93956433Y-69252799D01*
X94044283Y-69331724D01*
X94144535Y-69392530D01*
X94253890Y-69434113D01*
X94369053Y-69455372D01*
X94486725Y-69455201D01*
X94603610Y-69432499D01*
X94716411Y-69386162D01*
X94821831Y-69315087D01*
X94865832Y-69274889D01*
X94950221Y-69171671D01*
X95008978Y-69058875D01*
X95042496Y-68939790D01*
X95051165Y-68817705D01*
X95035377Y-68695907D01*
X94995522Y-68577684D01*
X94931993Y-68466325D01*
X94845179Y-68365116D01*
X94748171Y-68285913D01*
X94707763Y-68255638D01*
X94679218Y-68229581D01*
X94668943Y-68213975D01*
X94674323Y-68196957D01*
X94689625Y-68156300D01*
X94713588Y-68095158D01*
X94744956Y-68016681D01*
X94782468Y-67924020D01*
X94824867Y-67820328D01*
X94866537Y-67719274D01*
X94912510Y-67608193D01*
X94955093Y-67505259D01*
X94992979Y-67413635D01*
X95024860Y-67336484D01*
X95049429Y-67276969D01*
X95065380Y-67238256D01*
X95071290Y-67223800D01*
X95085252Y-67209115D01*
X95112260Y-67209158D01*
X95155787Y-67224701D01*
X95219310Y-67256516D01*
X95219812Y-67256787D01*
X95267640Y-67281477D01*
X95306303Y-67299462D01*
X95328105Y-67307186D01*
X95329067Y-67307257D01*
X95345479Y-67299422D01*
X95381713Y-67277635D01*
X95433726Y-67244472D01*
X95497475Y-67202509D01*
X95568140Y-67154857D01*
X95640084Y-67106609D01*
X95704926Y-67064649D01*
X95758465Y-67031573D01*
X95796503Y-67009979D01*
X95814667Y-67002457D01*
X95831392Y-67012343D01*
G37*
X95831392Y-67012343D02*
X95865020Y-67039974D01*
X95912190Y-67082305D01*
X95969542Y-67136295D01*
X96033716Y-67198901D01*
X96054703Y-67219817D01*
X96271701Y-67437177D01*
X96106532Y-67679580D01*
X96056336Y-67754019D01*
X96012281Y-67820828D01*
X95976838Y-67876135D01*
X95952481Y-67916071D01*
X95941678Y-67936764D01*
X95941362Y-67938237D01*
X95947057Y-67957742D01*
X95962374Y-67996978D01*
X95984663Y-68049370D01*
X96000307Y-68084445D01*
X96029559Y-68151599D01*
X96057106Y-68219442D01*
X96078463Y-68276766D01*
X96084265Y-68294228D01*
X96100748Y-68340862D01*
X96116860Y-68376895D01*
X96125710Y-68390513D01*
X96145240Y-68398848D01*
X96187866Y-68410663D01*
X96248055Y-68424619D01*
X96320278Y-68439378D01*
X96352600Y-68445445D01*
X96434678Y-68460527D01*
X96513405Y-68475131D01*
X96581091Y-68487820D01*
X96630040Y-68497158D01*
X96639257Y-68498961D01*
X96715457Y-68514001D01*
X96715457Y-68831308D01*
X96715286Y-68935646D01*
X96714584Y-69014587D01*
X96713066Y-69071762D01*
X96710451Y-69110801D01*
X96706454Y-69135335D01*
X96700791Y-69148995D01*
X96693180Y-69155411D01*
X96690057Y-69156601D01*
X96671222Y-69160820D01*
X96629612Y-69169238D01*
X96570570Y-69180839D01*
X96499443Y-69194605D01*
X96421575Y-69209520D01*
X96342313Y-69224568D01*
X96267002Y-69238731D01*
X96200987Y-69250994D01*
X96149613Y-69260339D01*
X96118225Y-69265750D01*
X96111241Y-69266686D01*
X96104915Y-69279204D01*
X96090910Y-69312554D01*
X96071845Y-69360423D01*
X96064566Y-69379171D01*
X96035204Y-69451605D01*
X96000629Y-69531630D01*
X95969663Y-69599072D01*
X95946877Y-69650641D01*
X95931718Y-69693015D01*
X95926658Y-69718966D01*
X95927464Y-69722444D01*
X95938159Y-69738864D01*
X95962580Y-69775383D01*
X95998105Y-69828113D01*
X96042113Y-69893165D01*
X96091983Y-69966649D01*
X96101844Y-69981155D01*
X96159708Y-70067096D01*
X96202244Y-70132539D01*
X96231146Y-70180496D01*
X96248110Y-70213980D01*
X96254833Y-70236005D01*
X96253010Y-70249583D01*
X96252964Y-70249669D01*
X96238614Y-70267503D01*
X96206877Y-70301983D01*
X96161190Y-70349532D01*
X96104996Y-70406578D01*
X96041732Y-70469545D01*
X96034598Y-70476573D01*
X95954870Y-70553780D01*
X95893343Y-70610470D01*
X95848779Y-70647690D01*
X95819943Y-70666485D01*
X95807242Y-70668911D01*
X95788706Y-70658329D01*
X95750239Y-70633884D01*
X95695814Y-70598188D01*
X95629402Y-70553853D01*
X95554975Y-70503489D01*
X95537599Y-70491640D01*
X95290903Y-70323174D01*
X95179494Y-70373738D01*
X95111743Y-70403205D01*
X95039017Y-70432841D01*
X94976497Y-70456470D01*
X94973743Y-70457442D01*
X94924840Y-70475343D01*
X94887143Y-70490480D01*
X94868775Y-70499590D01*
X94868744Y-70499616D01*
X94862915Y-70516083D01*
X94853008Y-70556581D01*
X94840005Y-70616558D01*
X94824891Y-70691460D01*
X94808648Y-70776736D01*
X94807319Y-70783925D01*
X94791025Y-70871786D01*
X94776067Y-70951540D01*
X94763409Y-71018119D01*
X94754014Y-71066453D01*
X94748846Y-71091475D01*
X94748756Y-71091857D01*
X94745611Y-71102501D01*
X94739496Y-71110538D01*
X94726747Y-71116333D01*
X94703700Y-71120253D01*
X94666691Y-71122665D01*
X94612056Y-71123935D01*
X94536133Y-71124429D01*
X94435256Y-71124514D01*
X94422200Y-71124514D01*
X94318290Y-71124452D01*
X94239746Y-71124022D01*
X94182902Y-71122858D01*
X94144095Y-71120593D01*
X94119662Y-71116860D01*
X94105938Y-71111294D01*
X94099260Y-71103527D01*
X94095964Y-71093195D01*
X94095644Y-71091857D01*
X94090638Y-71067721D01*
X94081371Y-71020099D01*
X94068808Y-70954059D01*
X94053913Y-70874672D01*
X94037649Y-70787004D01*
X94037081Y-70783925D01*
X94020790Y-70698011D01*
X94005548Y-70622104D01*
X93992339Y-70560755D01*
X93982146Y-70518518D01*
X93975952Y-70499945D01*
X93975657Y-70499616D01*
X93957412Y-70490547D01*
X93919795Y-70475433D01*
X93870929Y-70457538D01*
X93870657Y-70457442D01*
X93809107Y-70434307D01*
X93736543Y-70404835D01*
X93668143Y-70375203D01*
X93664906Y-70373738D01*
X93553498Y-70323174D01*
X93306801Y-70491640D01*
X93231123Y-70542997D01*
X93162569Y-70588911D01*
X93105112Y-70626770D01*
X93062724Y-70653963D01*
X93039375Y-70667879D01*
X93037158Y-70668911D01*
X93020190Y-70664316D01*
X92988499Y-70642145D01*
X92940848Y-70601353D01*
X92876002Y-70540895D01*
X92809803Y-70476573D01*
X92745986Y-70413188D01*
X92688871Y-70355349D01*
X92641895Y-70306625D01*
X92608497Y-70270590D01*
X92592115Y-70250816D01*
X92591506Y-70249798D01*
X92589695Y-70236228D01*
X92596517Y-70214067D01*
X92613660Y-70180322D01*
X92642807Y-70132000D01*
X92685645Y-70066108D01*
X92742752Y-69981283D01*
X92793434Y-69906623D01*
X92838739Y-69839660D01*
X92876050Y-69784284D01*
X92902748Y-69744380D01*
X92916215Y-69723838D01*
X92917063Y-69722444D01*
X92915419Y-69702762D01*
X92902955Y-69664507D01*
X92882152Y-69614911D01*
X92874738Y-69599072D01*
X92842386Y-69528510D01*
X92807872Y-69448447D01*
X92779835Y-69379171D01*
X92759632Y-69327755D01*
X92743585Y-69288681D01*
X92734312Y-69268259D01*
X92733159Y-69266686D01*
X92716104Y-69264079D01*
X92675902Y-69256937D01*
X92617898Y-69246277D01*
X92547437Y-69233115D01*
X92469865Y-69218467D01*
X92390528Y-69203351D01*
X92314769Y-69188782D01*
X92247936Y-69175778D01*
X92195372Y-69165355D01*
X92162424Y-69158530D01*
X92154343Y-69156601D01*
X92145995Y-69151838D01*
X92139694Y-69141082D01*
X92135155Y-69120702D01*
X92132096Y-69087066D01*
X92130233Y-69036545D01*
X92129282Y-68965508D01*
X92128960Y-68870324D01*
X92128943Y-68831308D01*
X92128943Y-68514001D01*
X92205143Y-68498961D01*
X92247537Y-68490805D01*
X92310800Y-68478901D01*
X92387238Y-68464684D01*
X92469157Y-68449590D01*
X92491800Y-68445445D01*
X92567394Y-68430747D01*
X92633247Y-68416295D01*
X92683834Y-68403425D01*
X92713626Y-68393478D01*
X92718588Y-68390513D01*
X92730774Y-68369517D01*
X92748247Y-68328833D01*
X92767623Y-68276478D01*
X92771466Y-68265200D01*
X92796861Y-68195277D01*
X92828383Y-68116382D01*
X92859231Y-68045534D01*
X92859383Y-68045205D01*
X92910753Y-67934067D01*
X92741801Y-67685547D01*
X92572848Y-67437028D01*
X92789771Y-67219742D01*
X92855381Y-67155074D01*
X92915221Y-67098067D01*
X92965933Y-67051767D01*
X93004154Y-67019216D01*
X93026525Y-67003457D01*
X93029734Y-67002457D01*
X93048574Y-67010331D01*
X93087020Y-67032222D01*
X93140870Y-67065533D01*
X93205924Y-67107669D01*
X93276260Y-67154857D01*
X93347645Y-67202990D01*
X93411292Y-67244872D01*
X93463159Y-67277929D01*
X93499205Y-67299582D01*
X93515333Y-67307257D01*
X93535011Y-67300763D01*
X93572325Y-67283650D01*
X93619579Y-67259474D01*
X93624588Y-67256787D01*
X93688223Y-67224873D01*
X93731859Y-67209221D01*
X93758998Y-67209055D01*
X93773143Y-67223596D01*
X93773225Y-67223800D01*
X93780295Y-67241021D01*
X93797158Y-67281901D01*
X93822505Y-67343275D01*
X93855029Y-67421981D01*
X93893422Y-67514853D01*
X93936378Y-67618728D01*
X93977978Y-67719298D01*
X94023696Y-67830284D01*
X94065674Y-67933097D01*
X94102652Y-68024585D01*
X94133373Y-68101599D01*
X94156578Y-68160985D01*
X94171010Y-68199591D01*
X94175457Y-68214000D01*
X94164304Y-68230528D01*
X94135131Y-68256870D01*
X94096229Y-68285913D01*
X93985443Y-68377761D01*
X93898849Y-68483041D01*
X93837484Y-68599534D01*
X93802385Y-68725024D01*
X93794592Y-68857293D01*
X93800257Y-68918343D01*
X93831122Y-69045005D01*
X93884280Y-69156859D01*
X93956433Y-69252799D01*
X94044283Y-69331724D01*
X94144535Y-69392530D01*
X94253890Y-69434113D01*
X94369053Y-69455372D01*
X94486725Y-69455201D01*
X94603610Y-69432499D01*
X94716411Y-69386162D01*
X94821831Y-69315087D01*
X94865832Y-69274889D01*
X94950221Y-69171671D01*
X95008978Y-69058875D01*
X95042496Y-68939790D01*
X95051165Y-68817705D01*
X95035377Y-68695907D01*
X94995522Y-68577684D01*
X94931993Y-68466325D01*
X94845179Y-68365116D01*
X94748171Y-68285913D01*
X94707763Y-68255638D01*
X94679218Y-68229581D01*
X94668943Y-68213975D01*
X94674323Y-68196957D01*
X94689625Y-68156300D01*
X94713588Y-68095158D01*
X94744956Y-68016681D01*
X94782468Y-67924020D01*
X94824867Y-67820328D01*
X94866537Y-67719274D01*
X94912510Y-67608193D01*
X94955093Y-67505259D01*
X94992979Y-67413635D01*
X95024860Y-67336484D01*
X95049429Y-67276969D01*
X95065380Y-67238256D01*
X95071290Y-67223800D01*
X95085252Y-67209115D01*
X95112260Y-67209158D01*
X95155787Y-67224701D01*
X95219310Y-67256516D01*
X95219812Y-67256787D01*
X95267640Y-67281477D01*
X95306303Y-67299462D01*
X95328105Y-67307186D01*
X95329067Y-67307257D01*
X95345479Y-67299422D01*
X95381713Y-67277635D01*
X95433726Y-67244472D01*
X95497475Y-67202509D01*
X95568140Y-67154857D01*
X95640084Y-67106609D01*
X95704926Y-67064649D01*
X95758465Y-67031573D01*
X95796503Y-67009979D01*
X95814667Y-67002457D01*
X95831392Y-67012343D01*
D16*
X130730400Y-102201600D02*
X130730400Y-100201600D01*
X145430400Y-102201600D02*
X130730400Y-102201600D01*
X130730400Y-93001600D02*
X131730400Y-93001600D01*
X130730400Y-94901600D02*
X130730400Y-93001600D01*
X145430400Y-93001600D02*
X145430400Y-102201600D01*
X137530400Y-93001600D02*
X145430400Y-93001600D01*
X131580400Y-102401600D02*
X130530400Y-102401600D01*
X130530400Y-101351600D02*
X130530400Y-102401600D01*
X141580000Y-38053641D02*
X141580000Y-37746359D01*
X140820000Y-38053641D02*
X140820000Y-37746359D01*
X119340000Y-89007836D02*
X119340000Y-88792164D01*
X120060000Y-89007836D02*
X120060000Y-88792164D01*
X122200000Y-97960000D02*
X121400000Y-97960000D01*
X122200000Y-94840000D02*
X120400000Y-94840000D01*
X122200000Y-97960000D02*
X123000000Y-97960000D01*
X122200000Y-94840000D02*
X123000000Y-94840000D01*
X117965000Y-96138748D02*
X117965000Y-96661252D01*
X119435000Y-96138748D02*
X119435000Y-96661252D01*
X117340000Y-88987836D02*
X117340000Y-88772164D01*
X118060000Y-88987836D02*
X118060000Y-88772164D01*
D18*
X145990000Y-90350000D02*
X137700000Y-90350000D01*
X137700000Y-76450000D02*
X145990000Y-76450000D01*
X145990000Y-90350000D02*
X145990000Y-76450000D01*
X128700000Y-88060000D02*
X128700000Y-78560000D01*
D16*
X72580000Y-74053641D02*
X72580000Y-73746359D01*
X71820000Y-74053641D02*
X71820000Y-73746359D01*
X113435000Y-102885000D02*
X113435000Y-100600000D01*
X111965000Y-102885000D02*
X113435000Y-102885000D01*
X111965000Y-100600000D02*
X111965000Y-102885000D01*
D19*
X131700000Y-59825000D02*
X131700000Y-58725000D01*
X135600000Y-57325000D02*
X138400000Y-57325000D01*
X138400000Y-73525000D02*
X135500000Y-73525000D01*
X143250000Y-73525000D02*
X140900000Y-73525000D01*
X143250000Y-73525000D02*
X143250000Y-57325000D01*
X140800000Y-57325000D02*
X143250000Y-57325000D01*
X131700000Y-72125000D02*
X131700000Y-70625000D01*
D18*
X131300000Y-60125000D02*
G75*
G03*
X131300000Y-60125000I-100000J0D01*
G01*
D16*
X130560000Y-69507836D02*
X130560000Y-69292164D01*
X129840000Y-69507836D02*
X129840000Y-69292164D01*
X124046359Y-75780000D02*
X124353641Y-75780000D01*
X124046359Y-75020000D02*
X124353641Y-75020000D01*
X124320000Y-77053641D02*
X124320000Y-76746359D01*
X125080000Y-77053641D02*
X125080000Y-76746359D01*
X117888748Y-70165000D02*
X118411252Y-70165000D01*
X117888748Y-71635000D02*
X118411252Y-71635000D01*
X123468348Y-101315900D02*
X123990852Y-101315900D01*
X123468348Y-99845900D02*
X123990852Y-99845900D01*
X76550000Y-103450000D02*
X90850000Y-103450000D01*
X89360000Y-97650000D02*
X90850000Y-97650000D01*
X78040000Y-97650000D02*
X78040000Y-96450000D01*
X90850000Y-97650000D02*
X90850000Y-98990000D01*
X90850000Y-103450000D02*
X90850000Y-101710000D01*
X76550000Y-101710000D02*
X76550000Y-103450000D01*
X76550000Y-97650000D02*
X76550000Y-98990000D01*
X78040000Y-97650000D02*
X76550000Y-97650000D01*
X81320000Y-37053641D02*
X81320000Y-36746359D01*
X82080000Y-37053641D02*
X82080000Y-36746359D01*
X117900000Y-91740000D02*
X116000000Y-91740000D01*
X116500000Y-94060000D02*
X117900000Y-94060000D01*
X124150000Y-72350000D02*
X129250000Y-72350000D01*
X124150000Y-59750000D02*
X124150000Y-72350000D01*
X129250000Y-72350000D02*
X129250000Y-59750000D01*
X119046359Y-77020000D02*
X119353641Y-77020000D01*
X119046359Y-77780000D02*
X119353641Y-77780000D01*
X95540000Y-97650000D02*
X94050000Y-97650000D01*
X108350000Y-97650000D02*
X108350000Y-98990000D01*
X94050000Y-101710000D02*
X94050000Y-103450000D01*
X106860000Y-97650000D02*
X108350000Y-97650000D01*
X94050000Y-97650000D02*
X94050000Y-98990000D01*
X95540000Y-97650000D02*
X95540000Y-96450000D01*
X108350000Y-103450000D02*
X108350000Y-101710000D01*
X94050000Y-103450000D02*
X108350000Y-103450000D01*
X127540852Y-101315900D02*
X127018348Y-101315900D01*
X127540852Y-99845900D02*
X127018348Y-99845900D01*
X74555000Y-54070000D02*
X74555000Y-55400000D01*
X71955000Y-54070000D02*
X66815000Y-54070000D01*
X73225000Y-54070000D02*
X74555000Y-54070000D01*
X71955000Y-54070000D02*
X71955000Y-56730000D01*
X66815000Y-54070000D02*
X66815000Y-56730000D01*
X71955000Y-56730000D02*
X66815000Y-56730000D01*
X144720000Y-39780000D02*
X144720000Y-56020000D01*
X123080000Y-56020000D02*
X128990000Y-56020000D01*
X123080000Y-39780000D02*
X128990000Y-39780000D01*
X132270000Y-56020000D02*
X144720000Y-56020000D01*
X132270000Y-39780000D02*
X144720000Y-39780000D01*
X123080000Y-56020000D02*
X123080000Y-39780000D01*
X144450000Y-55900000D02*
X144450000Y-56150000D01*
X144600000Y-55800000D02*
X144850000Y-55800000D01*
X97320000Y-37053641D02*
X97320000Y-36746359D01*
X98080000Y-37053641D02*
X98080000Y-36746359D01*
X118340000Y-89007836D02*
X118340000Y-88792164D01*
X119060000Y-89007836D02*
X119060000Y-88792164D01*
X116340000Y-89007836D02*
X116340000Y-88792164D01*
X117060000Y-89007836D02*
X117060000Y-88792164D01*
X123585000Y-86010000D02*
X124310000Y-86010000D01*
X123585000Y-79790000D02*
X124310000Y-79790000D01*
X124310000Y-79790000D02*
X124310000Y-80515000D01*
X118090000Y-86010000D02*
X118090000Y-85285000D01*
X124310000Y-86010000D02*
X124310000Y-85285000D01*
X118815000Y-79790000D02*
X118090000Y-79790000D01*
X118815000Y-86010000D02*
X118090000Y-86010000D01*
X71930000Y-50570000D02*
X66790000Y-50570000D01*
X73200000Y-50570000D02*
X74530000Y-50570000D01*
X71930000Y-53230000D02*
X66790000Y-53230000D01*
X74530000Y-50570000D02*
X74530000Y-51900000D01*
X66790000Y-50570000D02*
X66790000Y-53230000D01*
X71930000Y-50570000D02*
X71930000Y-53230000D01*
X121700000Y-43500000D02*
X120400000Y-43500000D01*
X121700000Y-46300000D02*
X120700000Y-46300000D01*
X69028400Y-71700400D02*
X66628400Y-71700400D01*
X69028400Y-69300400D02*
X69028400Y-71700400D01*
X66628400Y-71700400D02*
X66628400Y-69300400D01*
X66628400Y-69300400D02*
X69028400Y-69300400D01*
X119900000Y-104600000D02*
X117500000Y-104600000D01*
X119900000Y-102200000D02*
X119900000Y-104600000D01*
X117500000Y-102200000D02*
X119900000Y-102200000D01*
X117500000Y-104600000D02*
X117500000Y-102200000D01*
X122353641Y-99280000D02*
X122046359Y-99280000D01*
X122353641Y-98520000D02*
X122046359Y-98520000D01*
X124293200Y-90640500D02*
X124293200Y-98700500D01*
X128813200Y-90640500D02*
X124293200Y-90640500D01*
X128813200Y-98700500D02*
X128813200Y-90640500D01*
X134820000Y-38053641D02*
X134820000Y-37746359D01*
X135580000Y-38053641D02*
X135580000Y-37746359D01*
X143885200Y-48310000D02*
X142555200Y-48310000D01*
X141285200Y-48310000D02*
X138685200Y-48310000D01*
X138685200Y-48310000D02*
X138685200Y-43110000D01*
X143885200Y-46980000D02*
X143885200Y-48310000D01*
X141285200Y-45710000D02*
X141285200Y-48310000D01*
X143885200Y-45710000D02*
X143885200Y-43110000D01*
X143885200Y-45710000D02*
X141285200Y-45710000D01*
X143885200Y-43110000D02*
X138685200Y-43110000D01*
X123820000Y-89246359D02*
X123820000Y-89553641D01*
X124580000Y-89246359D02*
X124580000Y-89553641D01*
X121700000Y-51300000D02*
X120700000Y-51300000D01*
X121700000Y-48500000D02*
X120400000Y-48500000D01*
X123226800Y-77158441D02*
X123226800Y-76851159D01*
X123986800Y-77158441D02*
X123986800Y-76851159D01*
X117592164Y-67040000D02*
X117807836Y-67040000D01*
X117592164Y-67760000D02*
X117807836Y-67760000D01*
X117080000Y-96043641D02*
X117080000Y-95736359D01*
X116320000Y-96043641D02*
X116320000Y-95736359D01*
X121400000Y-91740000D02*
X119500000Y-91740000D01*
X120000000Y-94060000D02*
X121400000Y-94060000D01*
X67801400Y-66956900D02*
X67801400Y-64671900D01*
X67801400Y-64671900D02*
X66331400Y-64671900D01*
X66331400Y-64671900D02*
X66331400Y-66956900D01*
X127490852Y-103315900D02*
X126968348Y-103315900D01*
X127490852Y-101845900D02*
X126968348Y-101845900D01*
X73805000Y-94255000D02*
X71205000Y-94255000D01*
X73805000Y-78955000D02*
X68605000Y-78955000D01*
X68605000Y-96855000D02*
X68605000Y-78955000D01*
X73805000Y-94255000D02*
X73805000Y-78955000D01*
X71205000Y-94255000D02*
X71205000Y-96855000D01*
X73805000Y-96855000D02*
X72475000Y-96855000D01*
X73805000Y-95525000D02*
X73805000Y-96855000D01*
X71205000Y-96855000D02*
X68605000Y-96855000D01*
X127895764Y-73086800D02*
X128111436Y-73086800D01*
X127895764Y-73806800D02*
X128111436Y-73806800D01*
X118807836Y-64260000D02*
X118592164Y-64260000D01*
X118807836Y-63540000D02*
X118592164Y-63540000D01*
X117888748Y-68165000D02*
X118411252Y-68165000D01*
X117888748Y-69635000D02*
X118411252Y-69635000D01*
X78965000Y-38111252D02*
X78965000Y-37588748D01*
X80435000Y-38111252D02*
X80435000Y-37588748D01*
X116061924Y-88977836D02*
X116061924Y-88762164D01*
X115341924Y-88977836D02*
X115341924Y-88762164D01*
X121307836Y-47760000D02*
X121092164Y-47760000D01*
X121307836Y-47040000D02*
X121092164Y-47040000D01*
X121700000Y-63340000D02*
X122350000Y-63340000D01*
X121700000Y-63340000D02*
X120025000Y-63340000D01*
X121700000Y-66460000D02*
X121050000Y-66460000D01*
X121700000Y-66460000D02*
X122350000Y-66460000D01*
X76337500Y-36340000D02*
X75537500Y-36340000D01*
X76337500Y-39460000D02*
X78137500Y-39460000D01*
X76337500Y-39460000D02*
X75537500Y-39460000D01*
X76337500Y-36340000D02*
X77137500Y-36340000D01*
X68108800Y-65017241D02*
X68108800Y-64709959D01*
X68868800Y-65017241D02*
X68868800Y-64709959D01*
X123468348Y-103315900D02*
X123990852Y-103315900D01*
X123468348Y-101845900D02*
X123990852Y-101845900D01*
X120237436Y-76245200D02*
X120021764Y-76245200D01*
X120237436Y-75525200D02*
X120021764Y-75525200D01*
M02*
